<?xml version="1.0" encoding="utf-8"?>
<!-- Generator: Adobe Illustrator 27.2.0, SVG Export Plug-In . SVG Version: 6.00 Build 0)  -->
<svg version="1.1" id="Слой_1" xmlns="http://www.w3.org/2000/svg" xmlns:xlink="http://www.w3.org/1999/xlink" x="0px" y="0px"
	 viewBox="0 0 640 80" style="enable-background:new 0 0 640 80;" xml:space="preserve">
<style type="text/css">
	.st0{display:none;}
	.st1{fill:#FFA46A;stroke:#000000;stroke-width:0.5;stroke-miterlimit:10;}
	.st2{fill:#FFA46A;stroke:#1D1D1B;stroke-width:0.5;stroke-miterlimit:10;}
	.st3{fill:#004F55;stroke:#1D1D1B;stroke-width:0.5;stroke-miterlimit:10;}
	.st4{fill:#C96600;stroke:#7F0011;stroke-width:0.5;stroke-miterlimit:10;}
	.st5{fill:#1700D4;stroke:#1D1D1B;stroke-width:0.5;stroke-miterlimit:10;}
	.st6{fill:#C0D1DA;stroke:#1D1D1B;stroke-width:0.5;stroke-miterlimit:10;}
	.st7{display:inline;fill:none;stroke:#1D1D1B;stroke-miterlimit:10;}
</style>
<g id="Слой_43" class="st0">
	
		<image style="display:inline;overflow:visible;enable-background:new    ;" width="51" height="93" xlink:href="819BEB3F.jpeg"  transform="matrix(0.8668 0 0 0.8668 17 1.1941)">
	</image>
</g>
<g id="Кадры">
	<g id="Кадр8">
		<path id="Шея_00000024693589467059148920000009479014751534963386_" class="st1" d="M598.7,18.1c-0.8-2.5,1.9-4,3.3-4
			c1.4,0,2.5,0.4,2.6,1.7s-0.6,3.2-1.9,3.5C601.3,19.5,599.2,19.7,598.7,18.1z"/>
		<path id="Голова_00000023968660240109525170000003966246303599266478_" class="st2" d="M598.5,12.5
			c-0.3-2.5,1.7-4.3,1.9-4.5c0.3-0.3,2.5-2.1,5.2-1.4c2.5,0.7,3.4,3.2,3.6,3.8c1.1,3,0.2,7.1-2.3,7.9c-1.5,0.5-3.1-0.5-4.5-1.3
			C601,16.1,598.8,14.8,598.5,12.5z"/>
		<g id="Левая_рука_копия_3">
			<path id="Левое_предплечье_00000057852155762974428600000002628422164794849441_" class="st2" d="M608.5,32.3
				c0.5,0.8,0.3,1,1,2.9c0.5,1.3,0.6,1.4,1.2,3c0.9,2.3,1.3,3.4,0.9,3.8c-0.5,0.5-2.1-0.5-2.7-0.8c-0.7-0.5-2-1.4-3.6-3.7
				c-1.6-2.3-2.6-3.7-2.2-5.3c0.2-1.1,1.1-2.5,2.3-2.5C607,29.6,608.3,32,608.5,32.3z"/>
			<path id="Левое_плечо_00000029736006172986420850000011711156718086108312_" class="st2" d="M600.9,19.9
				c1.4-0.6,3.9,1.5,4.2,1.7c0.8,0.7,1.1,1.3,1.2,1.5c0.1,0.2,0.4,0.8,0.5,2.2c0.1,1.1,0,2-0.3,3.6c-0.4,2.4-0.6,2.7-0.9,2.9
				c-0.7,0.4-1.8,0.4-2.4-0.1c-0.7-0.5-0.8-1.2-1.2-2.3c-0.7-2-1.2-2-1.8-3.4C599.4,23.8,599.4,20.5,600.9,19.9z"/>
			<path id="Левый_кулак_00000101089638348915374850000015933144661002265492_" class="st2" d="M613.4,38.4
				c0.1,0,1.8-0.1,2.5,1.2c0.6,1,0.1,2.2-0.4,2.9c-0.8,1-2.5,1.5-3.7,0.7c-0.9-0.7-1.2-1.9-0.9-2.9
				C611.2,39.1,612.4,38.5,613.4,38.4z"/>
		</g>
		<g id="Левая_нога_копия_3">
			<path id="Левое_бедро_00000160158588325204126940000012972935168444183192_" class="st3" d="M603,41.6
				c0.6,2.6,1.6,4.4,2.4,5.6c1.8,2.6,3.6,3.8,4.4,6.8c0.3,1,0.5,2.1,0,2.9c-1,1.5-4.1,1.7-6.2,1c-1.8-0.6-3.4-2.6-6.6-6.8
				c-1.2-1.5-2.5-3.3-3.5-5.8c-0.9-2.4-0.7-3.2-0.7-3.5c0.6-2.4,3.8-4.5,6.7-3.7C602,38.9,602.9,41.3,603,41.6z"/>
			<path id="Левая_голень_00000070093947222536065690000010816578056876432527_" class="st4" d="M601,56.6
				c1-1.8,2.8-1.2,8.1-4.3c0.8-0.5,1.4-0.8,1.7-0.6c0.8,0.5-0.9,3.3-1.8,7.8c-0.5,2.6-0.5,4.6-0.5,5.2c0,5,0,7.6,0.8,9.9
				c0.1,0.4,0.4,1.1,0,1.6c-0.6,0.6-2.5,0.3-3.7-0.7c-0.9-0.8-1.1-2-1.2-2.5c-0.5-3.6-1.9-7.1-2.7-10.6
				C600.8,57.5,600.7,57.2,601,56.6z"/>
			<path id="Левая_стопа_00000057145256994848174640000000470550998467775131_" class="st4" d="M607.9,73.8
				c0.5,0.1,0.8,0.4,2.8,2.5c1.1,1.2,1.3,1.5,1.9,1.8c0.8,0.5,1.4,0.6,1.4,0.8c0,0.5-2.6,0.7-2.7,0.7c-2.2,0.2-2.3-0.1-3.9-0.1
				c-0.7,0-1.3,0-1.9,0.1c-0.2,0-0.7,0.1-0.9-0.2c-0.4-0.4,0.3-1,0.4-2.4c0.1-1-0.2-1.4,0.2-2.1c0.1-0.2,0.3-0.6,0.7-0.8
				C606.7,73.5,607.7,73.7,607.9,73.8z"/>
		</g>
		<path id="Туловище_00000008136352018149225530000003977813018294930341_" class="st5" d="M591,35.2c0-1.3-0.1-0.4-0.7-8
			c-0.2-2.4-0.4-4.9,1-7.2c0.1-0.2,0.2-0.4,0.5-0.6c2.2-2.5,6.4-2.2,6.6-2.2c4.4,0.4,6.5,4.1,6.7,4.4c0.3,0.5,0.9,1.6,0.9,3
			c0,1.8-0.7,1.9-1.5,5c-0.6,2.1-0.8,2.8-1,3.4c-0.2,0.5-0.2,0.4-0.3,0.7c-0.7,1.7-0.6,2.9-0.7,3.8c-0.2,1.5-1.2,2.5-2.2,3.7
			c-0.3,0.3-3.8,4.1-6.5,3.2c-1.5-0.5-2-2.3-2.4-3.5C590.6,38.7,590.9,37.5,591,35.2z"/>
		<g id="Правая_нога_копия_3">
			<path id="Правое_бедро_00000152223894097550364560000012944561627252790429_" class="st6" d="M593.8,60.6
				c2.3-1.1,1.1-4.5,2.6-9.4c1.8-5.9,5.9-8.4,4.4-11.1c-0.5-0.8-1.2-1.2-1.5-1.4c-2.4-1.4-6.2-0.4-8.2,1.6c-1.3,1.2-1.6,3.2-2.3,7.1
				c-0.5,2.8-0.8,4.9-0.4,7.6c0.3,2.1,0.7,4.8,2.7,5.6C591.1,60.7,592.5,61.2,593.8,60.6z"/>
			<path id="Правая_голень_00000163761549509393395270000014206541919036817319_" class="st4" d="M588.3,54.3
				c1.6-1.3,3.8,0.3,8.1-0.6c0.4-0.1,0.8-0.2,1,0c0.6,0.6-1.2,2.9-2.9,6c-1.6,3-2.5,5.5-2.7,6C589.2,74,589,75,589,75
				c-0.1,0.5-0.3,1.5-0.9,1.6c-0.7,0.2-1.8-0.8-2.3-1.8c-0.8-1.5-0.4-3.1,0-4.7c0.8-3.8-0.1-2.5,1.5-12.6
				C587.5,55.4,587.7,54.8,588.3,54.3z"/>
			<path id="Правая_стопа_00000114790831970858340390000011408504432425402272_" class="st4" d="M588.8,73.9
				c1,0.3,0.6,1.2,2.2,3c0.3,0.4,1,1.2,2,1.9c1,0.7,1.5,0.9,1.5,1.1c-0.1,0.4-2.2-0.2-5.6-0.1c-2.5,0.1-4,0.4-4.7-0.5
				c-0.3-0.4-0.4-0.9-0.4-1.2c0-0.5,0.2-1.1,0.8-2.3c0.4-0.8,0.7-1.3,1.3-1.6c0,0,0,0,0.1,0C586.7,73.8,587.9,73.6,588.8,73.9z"/>
		</g>
		<g id="Пояс_00000049926412859129480990000004214650512515045524_">
			<g>
				<path d="M592,40.4c3.1,0.3,6.3,0.6,9.4,0.9c0.8,0.1,1.5-0.8,1.5-1.5c0-0.9-0.7-1.4-1.5-1.5c-3.1-0.3-6.3-0.6-9.4-0.9
					c-0.8-0.1-1.5,0.8-1.5,1.5C590.6,39.8,591.2,40.3,592,40.4L592,40.4z"/>
			</g>
		</g>
		<g id="Правая_рука_копия_3">
			<path id="Правое_плечо_00000169558752030141091100000016467330660374309028_" class="st2" d="M593.2,18.7
				c1.6-0.2,3.6,0.5,4.3,2c0.5,1,0.3,2.3-0.3,3.2c-0.4,0.5-0.8,0.7-1.5,1.1c-0.7,0.4-3.2,1.8-4.5,3.8c-1.1,1.7-0.6,2.5-1.6,3.2
				c-1,0.6-2.6,0.6-3.3-0.2c-0.2-0.2-0.9-1.1,0.9-5.2C589,22.3,590.4,19,593.2,18.7z"/>
			<path id="Правый_кулак_00000111888042620805596660000009296092183240075920_" class="st2" d="M593,39.5
				c0.1,0,1.9,0.8,1.9,2.2c0,1.2-1.1,2-2,2.3c-1.4,0.5-3.4,0.2-4.1-1.1c-0.6-1-0.2-2.2,0.7-2.9C590.5,39.1,591.9,39,593,39.5z"/>
			<path id="Правое_предплечье_00000156581326691821456880000008519081589342096559_" class="st2" d="M591.7,32.4
				c0.6,2.1-0.2,2.5-0.3,7.1c0,1.3,0,2-0.5,2.2c-0.7,0.4-2.2-0.6-2.9-1.8c-0.4-0.7-0.4-1.4-0.4-1.6c-0.1-4-3-6.4-1.7-8.2
				c0.8-1.1,2.7-1.5,4-0.9C591,29.8,591.3,31.2,591.7,32.4z"/>
		</g>
	</g>
	<g id="Кадр7">
		<path id="Шея_00000036950434172219080750000000952083000058607276_" class="st1" d="M518.7,18.1c-0.8-2.5,1.9-4,3.3-4
			c1.4,0,2.5,0.4,2.6,1.7s-0.6,3.2-1.9,3.5C521.3,19.5,519.2,19.7,518.7,18.1z"/>
		<path id="Голова_00000034089894783698894160000018429323185992478370_" class="st2" d="M518.5,12.5
			c-0.3-2.5,1.7-4.3,1.9-4.5c0.3-0.3,2.5-2.1,5.2-1.4c2.5,0.7,3.4,3.2,3.6,3.8c1.1,3,0.2,7.1-2.3,7.9c-1.5,0.5-3.1-0.5-4.5-1.3
			C521,16.1,518.8,14.8,518.5,12.5z"/>
		<g id="Левая_рука_копия_2">
			<path id="Левое_предплечье_00000041988312309083286970000013752770611769895556_" class="st2" d="M528.5,32.3
				c0.5,0.8,0.3,1,1,2.9c0.5,1.3,0.6,1.4,1.2,3c0.9,2.3,1.3,3.4,0.9,3.8c-0.5,0.5-2.1-0.5-2.7-0.8c-0.7-0.5-2-1.4-3.6-3.7
				c-1.6-2.3-2.6-3.7-2.2-5.3c0.2-1.1,1.1-2.5,2.3-2.5C527,29.6,528.3,32,528.5,32.3z"/>
			<path id="Левое_плечо_00000071524080274370593960000015241850911524472707_" class="st2" d="M520.9,19.9
				c1.4-0.6,3.9,1.5,4.2,1.7c0.8,0.7,1.1,1.3,1.2,1.5c0.1,0.2,0.4,0.8,0.5,2.2c0.1,1.1,0,2-0.3,3.6c-0.4,2.4-0.6,2.7-0.9,2.9
				c-0.7,0.4-1.8,0.4-2.4-0.1c-0.7-0.5-0.8-1.2-1.2-2.3c-0.7-2-1.2-2-1.8-3.4C519.4,23.8,519.4,20.5,520.9,19.9z"/>
			<path id="Левый_кулак_00000021811516320188534140000017187551635527256981_" class="st2" d="M533.4,38.4
				c0.1,0,1.8-0.1,2.5,1.2c0.6,1,0.1,2.2-0.4,2.9c-0.8,1-2.5,1.5-3.7,0.7c-0.9-0.7-1.2-1.9-0.9-2.9
				C531.2,39.1,532.4,38.5,533.4,38.4z"/>
		</g>
		<g id="Левая_нога_копия_2">
			<path id="Левое_бедро_00000087376823451737311170000007986567482806868108_" class="st3" d="M523,41.6
				c0.6,2.6,1.6,4.4,2.4,5.6c1.8,2.6,3.6,3.8,4.4,6.8c0.3,1,0.5,2.1,0,2.9c-1,1.5-4.1,1.7-6.2,1c-1.8-0.6-3.4-2.6-6.6-6.8
				c-1.2-1.5-2.5-3.3-3.5-5.8c-0.9-2.4-0.7-3.2-0.7-3.5c0.6-2.4,3.8-4.5,6.7-3.7C522,38.9,522.9,41.3,523,41.6z"/>
			<path id="Левая_голень_00000029755954586788514730000014215809520625103273_" class="st4" d="M521,56.6
				c1-1.8,2.8-1.2,8.1-4.3c0.8-0.5,1.4-0.8,1.7-0.6c0.8,0.5-0.9,3.3-1.8,7.8c-0.5,2.6-0.5,4.6-0.5,5.2c0,5,0,7.6,0.8,9.9
				c0.1,0.4,0.4,1.1,0,1.6c-0.6,0.6-2.5,0.3-3.7-0.7c-0.9-0.8-1.1-2-1.2-2.5c-0.5-3.6-1.9-7.1-2.7-10.6
				C520.8,57.5,520.7,57.2,521,56.6z"/>
			<path id="Левая_стопа_00000164505489097208214350000009261736711197897373_" class="st4" d="M527.9,73.8
				c0.5,0.1,0.8,0.4,2.8,2.5c1.1,1.2,1.3,1.5,1.9,1.8c0.8,0.5,1.4,0.6,1.4,0.8c0,0.5-2.6,0.7-2.7,0.7c-2.2,0.2-2.3-0.1-3.9-0.1
				c-0.7,0-1.3,0-1.9,0.1c-0.2,0-0.7,0.1-0.9-0.2c-0.4-0.4,0.3-1,0.4-2.4c0.1-1-0.2-1.4,0.2-2.1c0.1-0.2,0.3-0.6,0.7-0.8
				C526.7,73.5,527.7,73.7,527.9,73.8z"/>
		</g>
		<path id="Туловище_00000106140018065408197020000007319007095696888244_" class="st5" d="M511,35.2c0-1.3-0.1-0.4-0.7-8
			c-0.2-2.4-0.4-4.9,1-7.2c0.1-0.2,0.2-0.4,0.5-0.6c2.2-2.5,6.4-2.2,6.6-2.2c4.4,0.4,6.5,4.1,6.7,4.4c0.3,0.5,0.9,1.6,0.9,3
			c0,1.8-0.7,1.9-1.5,5c-0.6,2.1-0.8,2.8-1,3.4c-0.2,0.5-0.2,0.4-0.3,0.7c-0.7,1.7-0.6,2.9-0.7,3.8c-0.2,1.5-1.2,2.5-2.2,3.7
			c-0.3,0.3-3.8,4.1-6.5,3.2c-1.5-0.5-2-2.3-2.4-3.5C510.6,38.7,510.9,37.5,511,35.2z"/>
		<g id="Правая_нога_копия_2">
			<path id="Правое_бедро_00000008849605123372401610000012294048715562045877_" class="st6" d="M513.8,60.6
				c2.3-1.1,1.1-4.5,2.6-9.4c1.8-5.9,5.9-8.4,4.4-11.1c-0.5-0.8-1.2-1.2-1.5-1.4c-2.4-1.4-6.2-0.4-8.2,1.6c-1.3,1.2-1.6,3.2-2.3,7.1
				c-0.5,2.8-0.8,4.9-0.4,7.6c0.3,2.1,0.7,4.8,2.7,5.6C511.1,60.7,512.5,61.2,513.8,60.6z"/>
			<path id="Правая_голень_00000053507228988258123530000003698107021581793436_" class="st4" d="M508.3,54.3
				c1.6-1.3,3.8,0.3,8.1-0.6c0.4-0.1,0.8-0.2,1,0c0.6,0.6-1.2,2.9-2.9,6c-1.6,3-2.5,5.5-2.6,6C509.2,74,509,75,509,75
				c-0.1,0.5-0.3,1.5-0.9,1.6c-0.7,0.2-1.8-0.8-2.4-1.8c-0.8-1.5-0.4-3.1,0-4.7c0.8-3.8-0.1-2.5,1.5-12.6
				C507.5,55.4,507.7,54.8,508.3,54.3z"/>
			<path id="Правая_стопа_00000084514898133113881170000013153568191823055765_" class="st4" d="M508.8,73.9
				c1,0.3,0.6,1.2,2.2,3c0.4,0.4,1,1.2,2,1.9c1,0.7,1.5,0.9,1.5,1.1c-0.1,0.4-2.2-0.2-5.6-0.1c-2.5,0.1-4,0.4-4.7-0.5
				c-0.3-0.4-0.4-0.9-0.4-1.2c0-0.5,0.2-1.1,0.8-2.3c0.4-0.8,0.7-1.3,1.3-1.6c0,0,0,0,0.1,0C506.7,73.8,507.9,73.6,508.8,73.9z"/>
		</g>
		<g id="Пояс_00000124881236387789951030000000025090521293725613_">
			<g>
				<path d="M512,40.4c3.1,0.3,6.3,0.6,9.4,0.9c0.8,0.1,1.5-0.8,1.5-1.5c0-0.9-0.7-1.4-1.5-1.5c-3.1-0.3-6.3-0.6-9.4-0.9
					c-0.8-0.1-1.5,0.8-1.5,1.5C510.6,39.8,511.2,40.3,512,40.4L512,40.4z"/>
			</g>
		</g>
		<g id="Правая_рука_копия_2">
			<path id="Правое_плечо_00000142898567323464753860000002489398400647591096_" class="st2" d="M513.2,18.7
				c1.6-0.2,3.6,0.5,4.3,2c0.5,1,0.3,2.3-0.3,3.2c-0.4,0.5-0.8,0.7-1.5,1.1c-0.7,0.4-3.2,1.8-4.5,3.8c-1.1,1.7-0.6,2.5-1.6,3.2
				c-1,0.6-2.6,0.6-3.3-0.2c-0.2-0.2-0.9-1.1,0.9-5.2C509,22.3,510.4,19,513.2,18.7z"/>
			<path id="Правый_кулак_00000034050482990988026130000001182599991378076322_" class="st2" d="M513,39.5
				c0.1,0,1.9,0.8,1.9,2.2c0,1.2-1.1,2-2,2.3c-1.4,0.5-3.4,0.2-4.1-1.1c-0.6-1-0.2-2.2,0.7-2.9C510.5,39.1,511.9,39,513,39.5z"/>
			<path id="Правое_предплечье_00000114769709910262047640000008412391163115003812_" class="st2" d="M511.7,32.4
				c0.6,2.1-0.2,2.5-0.4,7.1c0,1.3,0,2-0.5,2.2c-0.7,0.4-2.2-0.6-2.9-1.8c-0.4-0.7-0.4-1.4-0.4-1.6c-0.1-4-3-6.4-1.7-8.2
				c0.8-1.1,2.7-1.5,4-0.9C511,29.8,511.3,31.2,511.7,32.4z"/>
		</g>
	</g>
	<g id="Кадр6">
		<path id="Шея_00000014597088746505822290000018413044166052348847_" class="st1" d="M438.7,15.9c-0.8-2.6,1.9-4.1,3.3-4.2
			c1.4,0,2.5,0.5,2.6,1.7s-0.6,3.3-1.9,3.6S439.2,17.5,438.7,15.9z"/>
		<path id="Голова_00000000202790523227453430000010903274423692053947_" class="st2" d="M438.5,10.1
			c-0.3-2.6,1.7-4.4,1.9-4.7c0.3-0.3,2.5-2.2,5.2-1.5c2.5,0.7,3.4,3.3,3.6,3.9c1.1,3.1,0.1,7.4-2.3,8.2c-1.5,0.5-3.1-0.5-4.5-1.3
			C441,13.9,438.8,12.5,438.5,10.1z"/>
		<g id="Левая_рука__x28_копия5_x29_">
			<path id="Левое_предплечье_00000031207842272044941220000006268097050884393620_" class="st2" d="M448.5,30.6
				c0.5,0.9,0.3,1,1,3c0.5,1.4,0.6,1.5,1.2,3.1c0.9,2.4,1.3,3.6,0.9,3.9c-0.5,0.5-2.1-0.5-2.7-0.9c-0.7-0.5-2-1.4-3.6-3.8
				c-1.6-2.4-2.6-3.8-2.2-5.5c0.2-1.2,1.1-2.5,2.3-2.6C447,27.9,448.4,30.3,448.5,30.6z"/>
			<path id="Левое_плечо_00000149351902529393099070000011737232375358234510_" class="st2" d="M440.9,17.7
				c1.4-0.7,3.9,1.5,4.2,1.8c0.8,0.7,1.1,1.4,1.2,1.6c0.1,0.2,0.4,0.9,0.5,2.2c0.1,1.2,0,2-0.3,3.7c-0.4,2.5-0.6,2.8-0.9,3
				c-0.7,0.5-1.8,0.4-2.4-0.1c-0.7-0.5-0.8-1.2-1.2-2.4c-0.7-2-1.2-2.1-1.8-3.6C439.4,21.8,439.4,18.4,440.9,17.7z"/>
			<path id="Левый_кулак_00000149359417890767802210000014388719011930885786_" class="st2" d="M453.4,36.9
				c0.1,0,1.8-0.1,2.5,1.2c0.6,1.1,0.1,2.3-0.4,3c-0.8,1-2.5,1.6-3.7,0.7c-0.9-0.7-1.2-2-0.9-3C451.2,37.6,452.4,37,453.4,36.9z"/>
		</g>
		<g id="Левая_нога__x28_копия5_x29_">
			<path id="Левое_бедро_00000157307903219178826890000014721729423859877249_" class="st3" d="M443,40.3
				c0.6,2.7,1.6,4.5,2.4,5.8c1.8,2.7,3.6,3.9,4.4,7c0.3,1.1,0.5,2.2,0,3c-1,1.6-4.1,1.8-6.2,1c-1.8-0.6-3.4-2.7-6.6-7
				c-1.2-1.6-2.5-3.4-3.5-6c-0.9-2.5-0.7-3.3-0.7-3.6c0.6-2.5,3.8-4.6,6.7-3.8C442,37.5,442.9,40,443,40.3z"/>
			<path id="Левая_голень_00000170957217190536241330000003884793867857815183_" class="st4" d="M441,55.8
				c1-1.8,2.8-1.3,8.1-4.5c0.8-0.5,1.4-0.8,1.7-0.6c0.8,0.5-0.9,3.5-1.8,8.1c-0.5,2.7-0.5,4.8-0.5,5.3c0,5.2,0,7.8,0.8,10.2
				c0.1,0.4,0.4,1.2,0,1.6c-0.6,0.7-2.5,0.3-3.7-0.8c-0.9-0.9-1.1-2-1.2-2.6c-0.5-3.7-1.9-7.3-2.7-11
				C440.8,56.7,440.7,56.4,441,55.8z"/>
			<path id="Левая_стопа_00000075138008737369358380000011690487397479906722_" class="st4" d="M447.9,73.6
				c0.5,0.1,0.8,0.4,2.8,2.6c1.1,1.2,1.4,1.5,1.9,1.9c0.8,0.5,1.4,0.6,1.4,0.8c0,0.5-2.6,0.7-2.7,0.7c-2.1,0.2-2.3-0.1-3.9-0.1
				c-0.6,0-1.3,0-1.9,0.1c-0.2,0-0.6,0.1-0.9-0.2c-0.4-0.4,0.3-1.1,0.4-2.5c0.1-1-0.2-1.4,0.2-2.2c0.1-0.2,0.3-0.6,0.7-0.9
				C446.7,73.2,447.7,73.5,447.9,73.6z"/>
		</g>
		<path id="Туловище_00000060022812198665012890000017451226385043143563_" class="st5" d="M431,33.6c0-1.3-0.1-0.4-0.7-8.2
			c-0.2-2.5-0.4-5.1,1-7.4c0.1-0.2,0.2-0.4,0.5-0.7c2.2-2.6,6.4-2.3,6.6-2.3c4.4,0.5,6.5,4.3,6.6,4.6c0.3,0.6,0.9,1.6,0.9,3.1
			c0,1.9-0.7,2-1.5,5.1c-0.6,2.1-0.8,2.9-1,3.5c-0.2,0.5-0.2,0.4-0.3,0.8c-0.7,1.7-0.6,3-0.7,3.9c-0.2,1.6-1.2,2.6-2.2,3.8
			c-0.3,0.4-3.8,4.3-6.5,3.3c-1.5-0.6-2-2.4-2.4-3.7C430.6,37.2,430.9,36,431,33.6z"/>
		<g id="Правая_нога__x28_копия5_x29_">
			<path id="Правое_бедро_00000001634523825305566560000008346177370384188054_" class="st6" d="M433.8,59.9
				c2.3-1.2,1.1-4.6,2.6-9.7c1.8-6.1,5.9-8.7,4.4-11.5c-0.5-0.8-1.2-1.3-1.5-1.5c-2.4-1.4-6.2-0.4-8.2,1.6c-1.3,1.2-1.6,3.3-2.3,7.4
				c-0.5,2.9-0.8,5-0.4,7.9c0.3,2.1,0.7,5,2.7,5.8C431.1,60,432.5,60.5,433.8,59.9z"/>
			<path id="Правая_голень_00000066479308162953178000000013661278755789532596_" class="st4" d="M428.3,53.4
				c1.6-1.4,3.8,0.3,8.1-0.6c0.4-0.1,0.8-0.2,1,0c0.6,0.6-1.2,3-2.9,6.3c-1.6,3.1-2.5,5.7-2.6,6.2c-2.7,8.4-2.9,9.4-2.9,9.4
				c-0.1,0.5-0.3,1.5-0.9,1.7c-0.7,0.2-1.8-0.8-2.4-1.8c-0.8-1.6-0.4-3.2,0-4.9c0.8-3.9-0.1-2.6,1.5-13.1
				C427.5,54.6,427.7,54,428.3,53.4z"/>
			<path id="Правая_стопа_00000042736826284597200560000001453733871767033497_" class="st4" d="M428.8,73.7
				c1,0.4,0.6,1.2,2.2,3.1c0.4,0.4,1,1.2,2,2c1,0.7,1.5,0.9,1.5,1.1c-0.1,0.4-2.2-0.2-5.6-0.1c-2.5,0.1-4,0.4-4.7-0.5
				c-0.3-0.4-0.4-1-0.4-1.2c0-0.5,0.2-1.2,0.8-2.4c0.4-0.8,0.7-1.4,1.3-1.7c0,0,0,0,0.1,0C426.7,73.6,427.9,73.4,428.8,73.7z"/>
		</g>
		<g id="Пояс_00000142865201870283863290000012878842502834453648_">
			<g>
				<path d="M432,39c3.1,0.3,6.3,0.7,9.4,1c0.8,0.1,1.5-0.8,1.5-1.5c0-0.9-0.7-1.4-1.5-1.5c-3.1-0.3-6.3-0.7-9.4-1
					c-0.8-0.1-1.5,0.8-1.5,1.5C430.6,38.3,431.2,38.9,432,39L432,39z"/>
			</g>
		</g>
		<g id="Правая_рука__x28_копия5_x29_">
			<path id="Правое_плечо_00000037664456818538481300000008373392368340220811_" class="st2" d="M433.2,16.5
				c1.6-0.2,3.6,0.6,4.3,2.1c0.5,1.1,0.3,2.4-0.3,3.3c-0.4,0.6-0.8,0.8-1.5,1.1c-0.7,0.4-3.2,1.9-4.5,4c-1.1,1.7-0.6,2.6-1.6,3.3
				c-1,0.6-2.6,0.6-3.3-0.2c-0.2-0.2-0.9-1.1,0.9-5.4C429,20.3,430.4,16.9,433.2,16.5z"/>
			<path id="Правый_кулак_00000091729234076830141450000001690757414868736386_" class="st2" d="M433,38
				c0.1,0,1.9,0.8,1.9,2.2c0,1.2-1.1,2-2,2.3c-1.4,0.5-3.4,0.2-4.1-1.2c-0.6-1-0.2-2.2,0.7-3C430.5,37.6,431.9,37.6,433,38z"/>
			<path id="Правое_предплечье_00000073693086773671108820000017884513206147338659_" class="st2" d="M431.7,30.7
				c0.6,2.2-0.2,2.5-0.4,7.4c0,1.4,0,2.1-0.5,2.3c-0.7,0.4-2.2-0.6-2.9-1.8c-0.4-0.8-0.4-1.5-0.4-1.7c-0.1-4.2-3-6.6-1.7-8.5
				c0.8-1.1,2.7-1.5,4-0.9C431,28,431.3,29.4,431.7,30.7z"/>
		</g>
	</g>
	<g id="Кадр5">
		<path id="Шея_00000123408775623657162360000003903458459069091482_" class="st1" d="M358.7,15.4c-0.8-2.6,1.9-4.2,3.3-4.2
			s2.5,0.5,2.6,1.8s-0.6,3.4-1.9,3.6C361.3,16.9,359.2,17,358.7,15.4z"/>
		<path id="Голова_00000164501032567493547920000002012833968880029584_" class="st2" d="M358.5,9.5c-0.3-2.6,1.7-4.5,1.9-4.7
			c0.3-0.3,2.5-2.2,5.2-1.5c2.5,0.7,3.4,3.3,3.6,4c1.1,3.1,0.1,7.5-2.3,8.3c-1.5,0.5-3.1-0.5-4.5-1.3C361,13.3,358.8,12,358.5,9.5z"
			/>
		<g id="Левая_рука__x28_копия4_x29_">
			<path id="Левое_предплечье_00000051365281875702585380000014216353896166332040_" class="st2" d="M368.5,30.2
				c0.5,0.9,0.3,1,1,3.1c0.5,1.4,0.6,1.5,1.2,3.2c0.9,2.4,1.3,3.6,0.9,3.9c-0.5,0.5-2.1-0.5-2.7-0.9c-0.7-0.5-2-1.4-3.6-3.8
				c-1.6-2.4-2.6-3.8-2.2-5.5c0.2-1.2,1.1-2.6,2.3-2.6C367,27.4,368.4,29.9,368.5,30.2z"/>
			<path id="Левое_плечо_00000000929691365715516830000015221440706851018428_" class="st2" d="M360.9,17.2
				c1.4-0.7,3.9,1.6,4.2,1.8c0.8,0.7,1.1,1.4,1.2,1.6c0.1,0.2,0.4,0.9,0.5,2.3c0.1,1.2,0,2.1-0.3,3.8c-0.4,2.5-0.6,2.8-0.9,3
				c-0.7,0.5-1.8,0.4-2.4-0.1c-0.7-0.5-0.8-1.2-1.2-2.4c-0.7-2.1-1.2-2.1-1.8-3.6C359.4,21.3,359.4,17.9,360.9,17.2z"/>
			<path id="Левый_кулак_00000044868761129207115250000010065365553161798553_" class="st2" d="M373.4,36.6
				c0.1,0,1.8-0.1,2.5,1.2c0.6,1.1,0.1,2.3-0.4,3c-0.8,1-2.5,1.6-3.7,0.7c-0.9-0.7-1.2-2-0.9-3C371.2,37.3,372.4,36.6,373.4,36.6z"
				/>
		</g>
		<g id="Левая_нога__x28_копия4_x29_">
			<path id="Левое_бедро_00000148642735202933999020000008788607615757096333_" class="st3" d="M363,39.9
				c0.6,2.7,1.6,4.6,2.4,5.8c1.8,2.8,3.6,3.9,4.4,7.1c0.3,1.1,0.5,2.2,0,3.1c-1,1.6-4.1,1.8-6.2,1.1c-1.8-0.6-3.4-2.7-6.6-7
				c-1.2-1.6-2.5-3.5-3.5-6c-0.9-2.5-0.7-3.4-0.7-3.7c0.6-2.5,3.8-4.7,6.7-3.8C362,37.1,362.9,39.6,363,39.9z"/>
			<path id="Левая_голень_00000075848953201285132280000011529943867607850644_" class="st4" d="M361,55.5
				c1-1.8,2.8-1.3,8.1-4.5c0.8-0.5,1.4-0.9,1.7-0.6c0.8,0.5-0.9,3.5-1.8,8.2c-0.5,2.7-0.5,4.8-0.5,5.4c0,5.3,0,7.9,0.8,10.3
				c0.1,0.4,0.4,1.2,0,1.6c-0.6,0.7-2.5,0.3-3.7-0.8c-0.9-0.9-1.1-2.1-1.2-2.6c-0.5-3.8-1.9-7.4-2.7-11.1
				C360.8,56.5,360.7,56.2,361,55.5z"/>
			<path id="Левая_стопа_00000085960474695764488610000009903099351780992170_" class="st4" d="M367.9,73.5
				c0.5,0.1,0.8,0.4,2.8,2.6c1.1,1.2,1.4,1.5,1.9,1.9c0.8,0.5,1.4,0.6,1.4,0.8c0,0.5-2.6,0.7-2.7,0.7c-2.1,0.2-2.3-0.1-3.9-0.1
				c-0.6,0-1.3,0-1.9,0.1c-0.2,0-0.6,0.1-0.9-0.2c-0.4-0.4,0.3-1.1,0.4-2.5c0.1-1-0.2-1.4,0.2-2.2c0.1-0.2,0.3-0.6,0.7-0.9
				C366.7,73.2,367.7,73.4,367.9,73.5z"/>
		</g>
		<path id="Туловище_00000092420705250494814020000016573326130965474997_" class="st5" d="M351,33.2c0-1.3-0.1-0.4-0.7-8.3
			c-0.2-2.5-0.4-5.1,1-7.5c0.1-0.2,0.2-0.4,0.5-0.7c2.2-2.7,6.4-2.3,6.6-2.3c4.4,0.5,6.5,4.3,6.6,4.6c0.3,0.6,0.9,1.7,0.9,3.1
			c0,1.9-0.7,2-1.5,5.2c-0.6,2.2-0.8,2.9-1,3.5c-0.2,0.5-0.2,0.4-0.3,0.8c-0.7,1.8-0.6,3-0.7,4c-0.2,1.6-1.2,2.7-2.2,3.8
			c-0.3,0.4-3.8,4.3-6.5,3.3c-1.5-0.6-2-2.4-2.4-3.7C350.6,36.9,350.9,35.6,351,33.2z"/>
		<g id="Правая_нога__x28_копия4_x29_">
			<path id="Правое_бедро_00000133525912463741014310000017911472205289866175_" class="st6" d="M353.8,59.7
				c2.3-1.2,1.1-4.6,2.6-9.8c1.8-6.1,5.9-8.8,4.4-11.6c-0.5-0.9-1.2-1.3-1.5-1.5c-2.4-1.4-6.2-0.4-8.2,1.7c-1.3,1.2-1.6,3.3-2.3,7.5
				c-0.5,3-0.8,5.1-0.4,7.9c0.3,2.2,0.7,5,2.7,5.9C351.1,59.8,352.5,60.3,353.8,59.7z"/>
			<path id="Правая_голень_00000017508158228624466100000007162578227538854807_" class="st4" d="M348.3,53.2
				c1.6-1.4,3.8,0.3,8.1-0.6c0.4-0.1,0.8-0.2,1,0c0.6,0.6-1.2,3-2.9,6.3c-1.6,3.2-2.5,5.8-2.6,6.3c-2.7,8.5-2.9,9.5-2.9,9.5
				c-0.1,0.5-0.3,1.5-0.9,1.7c-0.7,0.2-1.8-0.8-2.4-1.8c-0.8-1.6-0.4-3.2,0-4.9c0.8-3.9-0.1-2.6,1.5-13.2
				C347.5,54.4,347.7,53.7,348.3,53.2z"/>
			<path id="Правая_стопа_00000047777143965184067290000017022471504990777486_" class="st4" d="M348.8,73.6
				c1,0.4,0.6,1.2,2.2,3.1c0.4,0.4,1,1.2,2,2c1,0.7,1.5,0.9,1.5,1.1c-0.1,0.4-2.2-0.2-5.6-0.1c-2.5,0.1-4,0.4-4.7-0.5
				c-0.3-0.4-0.4-1-0.4-1.2c0-0.5,0.2-1.2,0.8-2.4c0.4-0.8,0.7-1.4,1.3-1.7c0,0,0,0,0.1,0C346.7,73.5,347.9,73.3,348.8,73.6z"/>
		</g>
		<g id="Пояс_00000008142789565007627600000010455442638296628908_">
			<g>
				<path d="M352,38.6c3.1,0.3,6.3,0.7,9.4,1c0.8,0.1,1.5-0.8,1.5-1.5c0-0.9-0.7-1.4-1.5-1.5c-3.1-0.3-6.3-0.7-9.4-1
					c-0.8-0.1-1.5,0.8-1.5,1.5C350.6,38,351.2,38.5,352,38.6L352,38.6z"/>
			</g>
		</g>
		<g id="Правая_рука__x28_копия4_x29_">
			<path id="Правое_плечо_00000012455156359304316090000017050829203818506149_" class="st2" d="M353.2,16
				c1.6-0.2,3.6,0.6,4.3,2.1c0.5,1.1,0.3,2.4-0.3,3.4c-0.4,0.6-0.8,0.8-1.5,1.1c-0.7,0.4-3.2,1.9-4.5,4c-1.1,1.7-0.6,2.6-1.6,3.3
				c-1,0.6-2.6,0.6-3.3-0.2c-0.2-0.2-0.9-1.1,0.9-5.4C349,19.8,350.4,16.4,353.2,16z"/>
			<path id="Правый_кулак_00000174576112126731091850000012533539038726349997_" class="st2" d="M353,37.7
				c0.1,0,1.9,0.8,1.9,2.3c0,1.2-1.1,2.1-2,2.4c-1.4,0.5-3.4,0.2-4.1-1.2c-0.6-1-0.2-2.3,0.7-3C350.5,37.3,351.9,37.2,353,37.7z"/>
			<path id="Правое_предплечье_00000117634671135657556530000010215677976123114387_" class="st2" d="M351.7,30.3
				c0.6,2.2-0.2,2.6-0.4,7.4c0,1.4,0,2.1-0.5,2.3c-0.7,0.4-2.2-0.6-2.9-1.9c-0.4-0.8-0.4-1.5-0.4-1.7c-0.1-4.2-3-6.7-1.7-8.5
				c0.8-1.1,2.7-1.5,4-0.9C351,27.6,351.3,29,351.7,30.3z"/>
		</g>
	</g>
	<g id="Кадр4">
		<path id="Шея_00000160890502344237670490000007412165799502114474_" class="st1" d="M278.7,15.4c-0.8-2.6,1.9-4.2,3.3-4.2
			s2.5,0.5,2.6,1.8s-0.6,3.4-1.9,3.6C281.3,16.9,279.2,17,278.7,15.4z"/>
		<path id="Голова_00000018222177047012546270000012301283375184149145_" class="st2" d="M278.5,9.5c-0.3-2.6,1.7-4.5,1.9-4.7
			c0.3-0.3,2.5-2.2,5.2-1.5c2.5,0.7,3.4,3.3,3.6,4c1.1,3.1,0.1,7.5-2.3,8.3c-1.5,0.5-3.1-0.5-4.5-1.3C281,13.3,278.8,12,278.5,9.5z"
			/>
		<g id="Левая_рука__x28_копия3_x29_">
			<path id="Левое_предплечье_00000183229767343157365070000008231056601435217596_" class="st2" d="M288.5,30.2
				c0.5,0.9,0.3,1,1,3.1c0.5,1.4,0.6,1.5,1.2,3.2c0.9,2.4,1.3,3.6,0.9,3.9c-0.5,0.5-2.1-0.5-2.7-0.9c-0.7-0.5-2-1.4-3.6-3.8
				c-1.6-2.4-2.6-3.8-2.2-5.5c0.2-1.2,1.1-2.6,2.3-2.6C287,27.4,288.4,29.9,288.5,30.2z"/>
			<path id="Левое_плечо_00000070111527418526467860000002304658632042369680_" class="st2" d="M280.9,17.2
				c1.4-0.7,3.9,1.6,4.2,1.8c0.8,0.7,1.1,1.4,1.2,1.6c0.1,0.2,0.4,0.9,0.5,2.3c0.1,1.2,0,2.1-0.3,3.8c-0.4,2.5-0.6,2.8-0.9,3
				c-0.7,0.5-1.8,0.4-2.4-0.1c-0.7-0.5-0.8-1.2-1.2-2.4c-0.7-2.1-1.2-2.1-1.8-3.6C279.4,21.3,279.4,17.9,280.9,17.2z"/>
			<path id="Левый_кулак_00000059994753422381694430000002748917280681524135_" class="st2" d="M293.4,36.6
				c0.1,0,1.8-0.1,2.5,1.2c0.6,1.1,0.1,2.3-0.4,3c-0.8,1-2.5,1.6-3.7,0.7c-0.9-0.7-1.2-2-0.9-3C291.2,37.3,292.4,36.6,293.4,36.6z"
				/>
		</g>
		<g id="Левая_нога__x28_копия3_x29_">
			<path id="Левое_бедро_00000132086284157870979740000015878203106720674228_" class="st3" d="M283,39.9
				c0.6,2.7,1.6,4.6,2.4,5.8c1.8,2.8,3.6,3.9,4.4,7.1c0.3,1.1,0.5,2.2,0,3.1c-1,1.6-4.1,1.8-6.2,1.1c-1.8-0.6-3.4-2.7-6.6-7
				c-1.2-1.6-2.5-3.5-3.5-6c-0.9-2.5-0.7-3.4-0.7-3.7c0.6-2.5,3.8-4.7,6.7-3.8C282,37.1,282.9,39.6,283,39.9z"/>
			<path id="Левая_голень_00000132798461631976011010000016221793252758448300_" class="st4" d="M281,55.5
				c1-1.8,2.8-1.3,8.1-4.5c0.8-0.5,1.4-0.9,1.7-0.6c0.8,0.5-0.9,3.5-1.8,8.2c-0.5,2.7-0.5,4.8-0.5,5.4c0,5.3,0,7.9,0.8,10.3
				c0.1,0.4,0.4,1.2,0,1.6c-0.6,0.7-2.5,0.3-3.7-0.8c-0.9-0.9-1.1-2.1-1.2-2.6c-0.5-3.8-1.9-7.4-2.7-11.1
				C280.8,56.5,280.7,56.2,281,55.5z"/>
			<path id="Левая_стопа_00000000941207659549963010000017289666766760681885_" class="st4" d="M287.9,73.5
				c0.5,0.1,0.8,0.4,2.8,2.6c1.1,1.2,1.4,1.5,1.9,1.9c0.8,0.5,1.4,0.6,1.4,0.8c0,0.5-2.6,0.7-2.7,0.7c-2.1,0.2-2.3-0.1-3.9-0.1
				c-0.6,0-1.3,0-1.9,0.1c-0.2,0-0.6,0.1-0.9-0.2c-0.4-0.4,0.3-1.1,0.4-2.5c0.1-1-0.2-1.4,0.2-2.2c0.1-0.2,0.3-0.6,0.7-0.9
				C286.7,73.2,287.7,73.4,287.9,73.5z"/>
		</g>
		<path id="Туловище_00000000934854675426261460000001425837606933011606_" class="st5" d="M271,33.2c0-1.3-0.1-0.4-0.7-8.3
			c-0.2-2.5-0.4-5.1,1-7.5c0.1-0.2,0.2-0.4,0.5-0.7c2.2-2.7,6.4-2.3,6.6-2.3c4.4,0.5,6.5,4.3,6.6,4.6c0.3,0.6,0.9,1.7,0.9,3.1
			c0,1.9-0.7,2-1.5,5.2c-0.6,2.2-0.8,2.9-1,3.5c-0.2,0.5-0.2,0.4-0.3,0.8c-0.7,1.8-0.6,3-0.7,4c-0.2,1.6-1.2,2.7-2.2,3.8
			c-0.3,0.4-3.8,4.3-6.5,3.3c-1.5-0.6-2-2.4-2.4-3.7C270.6,36.9,270.9,35.6,271,33.2z"/>
		<g id="Правая_нога__x28_копия3_x29_">
			<path id="Правое_бедро_00000129177507435780980480000009400986636148413118_" class="st6" d="M273.8,59.7
				c2.3-1.2,1.1-4.6,2.6-9.8c1.8-6.1,5.9-8.8,4.4-11.6c-0.5-0.9-1.2-1.3-1.5-1.5c-2.4-1.4-6.2-0.4-8.2,1.7c-1.3,1.2-1.6,3.3-2.3,7.5
				c-0.5,3-0.8,5.1-0.4,7.9c0.3,2.2,0.7,5,2.7,5.9C271.1,59.8,272.5,60.3,273.8,59.7z"/>
			<path id="Правая_голень_00000134235954622398878610000011986480799628660612_" class="st4" d="M268.3,53.2
				c1.6-1.4,3.8,0.3,8.1-0.6c0.4-0.1,0.8-0.2,1,0c0.6,0.6-1.2,3-2.9,6.3c-1.6,3.2-2.5,5.8-2.6,6.3c-2.7,8.5-2.9,9.5-2.9,9.5
				c-0.1,0.5-0.3,1.5-0.9,1.7c-0.7,0.2-1.8-0.8-2.4-1.8c-0.8-1.6-0.4-3.2,0-4.9c0.8-3.9-0.1-2.6,1.5-13.2
				C267.5,54.4,267.7,53.7,268.3,53.2z"/>
			<path id="Правая_стопа_00000067206854176179324430000008576054457227720868_" class="st4" d="M268.8,73.6
				c1,0.4,0.6,1.2,2.2,3.1c0.4,0.4,1,1.2,2,2c1,0.7,1.5,0.9,1.5,1.1c-0.1,0.4-2.2-0.2-5.6-0.1c-2.5,0.1-4,0.4-4.7-0.5
				c-0.3-0.4-0.4-1-0.4-1.2c0-0.5,0.2-1.2,0.8-2.4c0.4-0.8,0.7-1.4,1.3-1.7c0,0,0,0,0.1,0C266.7,73.5,267.9,73.3,268.8,73.6z"/>
		</g>
		<g id="Пояс_00000178892543913220853550000006818321075239490233_">
			<g>
				<path d="M272,38.6c3.1,0.3,6.3,0.7,9.4,1c0.8,0.1,1.5-0.8,1.5-1.5c0-0.9-0.7-1.4-1.5-1.5c-3.1-0.3-6.3-0.7-9.4-1
					c-0.8-0.1-1.5,0.8-1.5,1.5C270.6,38,271.2,38.5,272,38.6L272,38.6z"/>
			</g>
		</g>
		<g id="Правая_рука__x28_копия3_x29_">
			<path id="Правое_плечо_00000052089517913207574960000011766491563376745386_" class="st2" d="M273.2,16
				c1.6-0.2,3.6,0.6,4.3,2.1c0.5,1.1,0.3,2.4-0.3,3.4c-0.4,0.6-0.8,0.8-1.5,1.1c-0.7,0.4-3.2,1.9-4.5,4c-1.1,1.7-0.6,2.6-1.6,3.3
				c-1,0.6-2.6,0.6-3.3-0.2c-0.2-0.2-0.9-1.1,0.9-5.4C269,19.8,270.4,16.4,273.2,16z"/>
			<path id="Правый_кулак_00000176727934852045288660000014432489026949588926_" class="st2" d="M273,37.7
				c0.1,0,1.9,0.8,1.9,2.3c0,1.2-1.1,2.1-2,2.4c-1.4,0.5-3.4,0.2-4.1-1.2c-0.6-1-0.2-2.3,0.7-3C270.5,37.3,271.9,37.2,273,37.7z"/>
			<path id="Правое_предплечье_00000168084503544272777390000012954120056638465685_" class="st2" d="M271.7,30.3
				c0.6,2.2-0.2,2.6-0.4,7.4c0,1.4,0,2.1-0.5,2.3c-0.7,0.4-2.2-0.6-2.9-1.9c-0.4-0.8-0.4-1.5-0.4-1.7c-0.1-4.2-3-6.7-1.7-8.5
				c0.8-1.1,2.7-1.5,4-0.9C271,27.6,271.3,29,271.7,30.3z"/>
		</g>
	</g>
	<g id="Кадр3">
		<path id="Шея_00000121971610783197038270000017506934363823156379_" class="st1" d="M198.7,15.4c-0.8-2.6,1.9-4.2,3.3-4.2
			s2.5,0.5,2.6,1.8s-0.6,3.4-1.9,3.6C201.3,16.9,199.2,17,198.7,15.4z"/>
		<path id="Голова_00000076598691307166400650000014547136383607501195_" class="st2" d="M198.5,9.5c-0.3-2.6,1.7-4.5,1.9-4.7
			c0.3-0.3,2.5-2.2,5.2-1.5c2.5,0.7,3.4,3.3,3.6,4c1.1,3.1,0.1,7.5-2.3,8.3c-1.5,0.5-3.1-0.5-4.5-1.3C201,13.3,198.8,12,198.5,9.5z"
			/>
		<g id="Левая_рука__x28_копия2_x29_">
			<path id="Левое_предплечье_00000178194062086002673460000004580148984746973572_" class="st2" d="M208.6,30.2
				c0.5,0.9,0.3,1,1,3.1c0.5,1.4,0.6,1.5,1.2,3.2c0.9,2.4,1.3,3.6,0.9,3.9c-0.5,0.5-2.1-0.5-2.7-0.9c-0.7-0.5-2-1.4-3.6-3.8
				c-1.6-2.4-2.6-3.8-2.2-5.5c0.2-1.2,1.1-2.6,2.3-2.6C207.1,27.4,208.4,29.9,208.6,30.2z"/>
			<path id="Левое_плечо_00000008857857974702734250000013240714077502603670_" class="st2" d="M200.9,17.2
				c1.4-0.7,3.9,1.6,4.2,1.8c0.8,0.7,1.1,1.4,1.2,1.6c0.1,0.2,0.4,0.9,0.5,2.3c0.1,1.2,0,2.1-0.3,3.8c-0.4,2.5-0.6,2.8-0.9,3
				c-0.7,0.5-1.8,0.4-2.4-0.1c-0.7-0.5-0.8-1.2-1.2-2.4c-0.7-2.1-1.2-2.1-1.8-3.6C199.4,21.3,199.4,17.9,200.9,17.2z"/>
			<path id="Левый_кулак_00000102522476849231557930000003588716112668397192_" class="st2" d="M213.4,36.6
				c0.1,0,1.8-0.1,2.6,1.2c0.6,1.1,0.1,2.3-0.4,3c-0.8,1-2.5,1.6-3.7,0.7c-0.9-0.7-1.2-2-0.9-3C211.2,37.3,212.4,36.6,213.4,36.6z"
				/>
		</g>
		<g id="Левая_нога__x28_копия2_x29_">
			<path id="Левое_бедро_00000006667662996102993960000003994941493076656794_" class="st3" d="M203,39.9
				c0.6,2.7,1.6,4.6,2.4,5.8c1.8,2.8,3.6,3.9,4.4,7.1c0.3,1.1,0.6,2.2,0,3.1c-1,1.6-4.1,1.8-6.2,1.1c-1.8-0.6-3.4-2.7-6.6-7
				c-1.2-1.6-2.5-3.5-3.4-6c-0.9-2.5-0.7-3.4-0.7-3.7c0.6-2.5,3.8-4.7,6.7-3.8C202,37.1,202.9,39.6,203,39.9z"/>
			<path id="Левая_голень_00000083055831943907369920000011563385521251565246_" class="st4" d="M201.1,55.5
				c1-1.8,2.8-1.3,8.1-4.5c0.8-0.5,1.4-0.9,1.7-0.6c0.8,0.5-0.9,3.5-1.8,8.2c-0.5,2.7-0.5,4.8-0.5,5.4c0,5.3,0,7.9,0.8,10.3
				c0.1,0.4,0.4,1.2,0,1.6c-0.6,0.7-2.6,0.3-3.7-0.8c-0.9-0.9-1.1-2.1-1.2-2.6c-0.6-3.8-1.9-7.4-2.7-11.1
				C200.8,56.5,200.7,56.2,201.1,55.5z"/>
			<path id="Левая_стопа_00000099650515627094512290000012365564491958661817_" class="st4" d="M207.9,73.5
				c0.5,0.1,0.8,0.4,2.8,2.6c1.1,1.2,1.4,1.5,1.9,1.9c0.8,0.5,1.4,0.6,1.4,0.8c0,0.5-2.6,0.7-2.7,0.7c-2.1,0.2-2.3-0.1-3.9-0.1
				c-0.6,0-1.3,0-1.9,0.1c-0.2,0-0.6,0.1-0.9-0.2c-0.4-0.4,0.3-1.1,0.4-2.5c0.1-1-0.2-1.4,0.2-2.2c0.1-0.2,0.3-0.6,0.7-0.9
				C206.7,73.2,207.7,73.4,207.9,73.5z"/>
		</g>
		<path id="Туловище_00000067210320351643412520000009638404606642742195_" class="st5" d="M190.9,33.2
			c0-1.3-0.1-0.4-0.7-8.3c-0.2-2.5-0.4-5.1,1-7.5c0.1-0.2,0.2-0.4,0.4-0.7c2.2-2.7,6.4-2.3,6.6-2.3c4.4,0.5,6.5,4.3,6.6,4.6
			c0.3,0.6,0.9,1.7,0.9,3.1c0,1.9-0.7,2-1.6,5.2c-0.6,2.2-0.8,2.9-1,3.5c-0.2,0.5-0.2,0.4-0.3,0.8c-0.7,1.8-0.6,3-0.7,4
			c-0.2,1.6-1.2,2.7-2.2,3.8c-0.3,0.4-3.8,4.3-6.5,3.3c-1.5-0.6-2-2.4-2.4-3.7C190.6,36.9,190.9,35.6,190.9,33.2z"/>
		<g id="Правая_нога__x28_копия2_x29_">
			<path id="Правое_бедро_00000067202370539707243040000014990355291022336397_" class="st6" d="M193.8,59.7
				c2.3-1.2,1.1-4.6,2.6-9.8c1.8-6.1,5.9-8.8,4.4-11.6c-0.4-0.9-1.2-1.3-1.5-1.5c-2.4-1.4-6.2-0.4-8.2,1.7c-1.3,1.2-1.6,3.3-2.3,7.5
				c-0.5,3-0.8,5.1-0.4,7.9c0.3,2.2,0.7,5,2.7,5.9C191.1,59.8,192.5,60.3,193.8,59.7z"/>
			<path id="Правая_голень_00000115511268434718275500000003330263249031164842_" class="st4" d="M188.3,53.2
				c1.6-1.4,3.8,0.3,8.1-0.6c0.4-0.1,0.8-0.2,1.1,0c0.6,0.6-1.2,3-2.9,6.3c-1.6,3.2-2.5,5.8-2.6,6.3c-2.7,8.5-2.9,9.5-2.9,9.5
				c-0.1,0.5-0.3,1.5-0.9,1.7c-0.7,0.2-1.8-0.8-2.4-1.8c-0.8-1.6-0.4-3.2,0-4.9c0.8-3.9-0.1-2.6,1.5-13.2
				C187.6,54.4,187.7,53.7,188.3,53.2z"/>
			<path id="Правая_стопа_00000065047034248297050870000016834210892669840513_" class="st4" d="M188.8,73.6
				c1,0.4,0.6,1.2,2.2,3.1c0.4,0.4,1,1.2,2,2c1,0.7,1.6,0.9,1.5,1.1c-0.1,0.4-2.2-0.2-5.6-0.1c-2.5,0.1-4,0.4-4.7-0.5
				c-0.3-0.4-0.4-1-0.4-1.2c0-0.5,0.2-1.2,0.8-2.4c0.4-0.8,0.7-1.4,1.3-1.7c0,0,0,0,0.1,0C186.7,73.5,187.9,73.3,188.8,73.6z"/>
		</g>
		<g id="Пояс_00000155861323798729667860000014529483371080764079_">
			<g>
				<path d="M192,38.6c3.1,0.3,6.3,0.7,9.4,1c0.8,0.1,1.5-0.8,1.5-1.5c0-0.9-0.7-1.4-1.5-1.5c-3.1-0.3-6.3-0.7-9.4-1
					c-0.8-0.1-1.5,0.8-1.5,1.5C190.6,38,191.2,38.5,192,38.6L192,38.6z"/>
			</g>
		</g>
		<g id="Правая_рука__x28_копия2_x29_">
			<path id="Правое_плечо_00000034799577801565799170000012270689369271872938_" class="st2" d="M193.2,16
				c1.6-0.2,3.6,0.6,4.3,2.1c0.5,1.1,0.3,2.4-0.3,3.4c-0.4,0.6-0.8,0.8-1.5,1.1c-0.7,0.4-3.2,1.9-4.4,4c-1.1,1.7-0.6,2.6-1.6,3.3
				c-1,0.6-2.6,0.6-3.3-0.2c-0.2-0.2-0.9-1.1,0.9-5.4C189,19.8,190.4,16.4,193.2,16z"/>
			<path id="Правый_кулак_00000177449514960248282240000007907250007702142888_" class="st2" d="M193,37.7
				c0.1,0,1.9,0.8,1.9,2.3c0,1.2-1.1,2.1-2,2.4c-1.4,0.5-3.4,0.2-4.1-1.2c-0.6-1-0.2-2.3,0.7-3C190.5,37.3,191.9,37.2,193,37.7z"/>
			<path id="Правое_предплечье_00000045594245201878334240000007680886398822105472_" class="st2" d="M191.7,30.3
				c0.6,2.2-0.2,2.6-0.4,7.4c-0.1,1.4,0,2.1-0.5,2.3c-0.7,0.4-2.2-0.6-2.9-1.9c-0.4-0.8-0.4-1.5-0.4-1.7c-0.1-4.2-2.9-6.7-1.7-8.5
				c0.8-1.1,2.7-1.5,4-0.9C191,27.6,191.3,29,191.7,30.3z"/>
		</g>
	</g>
	<g id="Кадр2">
		<path id="Шея_00000083808446531175171070000015387799207953408923_" class="st1" d="M118.7,15.9c-0.8-2.6,1.9-4.1,3.3-4.2
			c1.4,0,2.5,0.5,2.6,1.7s-0.6,3.3-1.9,3.6S119.2,17.5,118.7,15.9z"/>
		<path id="Голова_00000043450950201075263140000000987999913148480174_" class="st2" d="M118.5,10.1
			c-0.3-2.6,1.7-4.4,1.9-4.7c0.3-0.3,2.5-2.2,5.2-1.5c2.5,0.7,3.4,3.3,3.6,3.9c1.1,3.1,0.1,7.4-2.3,8.2c-1.5,0.5-3.1-0.5-4.5-1.3
			C121,13.9,118.8,12.5,118.5,10.1z"/>
		<g id="Левая_рука__x28_копия_x29_">
			<path id="Левое_предплечье_00000103246744213273543820000001628454348988358571_" class="st2" d="M128.6,30.6
				c0.5,0.9,0.3,1,1,3c0.5,1.4,0.6,1.5,1.2,3.1c0.9,2.4,1.3,3.6,0.9,3.9c-0.5,0.5-2.1-0.5-2.7-0.9c-0.7-0.5-2-1.4-3.6-3.8
				c-1.6-2.4-2.6-3.8-2.2-5.5c0.2-1.2,1.1-2.5,2.3-2.6C127.1,27.9,128.4,30.3,128.6,30.6z"/>
			<path id="Левое_плечо_00000086685090913445333140000010549353949751847301_" class="st2" d="M120.9,17.7
				c1.4-0.7,3.9,1.5,4.2,1.8c0.8,0.7,1.1,1.4,1.2,1.6c0.1,0.2,0.4,0.9,0.5,2.2c0.1,1.2,0,2-0.3,3.7c-0.4,2.5-0.6,2.8-0.9,3
				c-0.7,0.5-1.8,0.4-2.4-0.1c-0.7-0.5-0.8-1.2-1.2-2.4c-0.7-2-1.2-2.1-1.8-3.6C119.4,21.8,119.4,18.4,120.9,17.7z"/>
			<path id="Левый_кулак_00000010296149536643964830000005764510106264039564_" class="st2" d="M133.4,36.9
				c0.1,0,1.8-0.1,2.6,1.2c0.6,1.1,0.1,2.3-0.4,3c-0.8,1-2.5,1.6-3.7,0.7c-0.9-0.7-1.2-2-0.9-3C131.2,37.6,132.4,37,133.4,36.9z"/>
		</g>
		<g id="Левая_нога__x28_копия_x29_">
			<path id="Левое_бедро_00000090259735621248676620000006703277922801089204_" class="st3" d="M123,40.3
				c0.6,2.7,1.6,4.5,2.4,5.8c1.8,2.7,3.6,3.9,4.4,7c0.3,1.1,0.6,2.2,0,3c-1,1.6-4.1,1.8-6.2,1c-1.8-0.6-3.4-2.7-6.6-7
				c-1.2-1.6-2.5-3.4-3.4-6c-0.9-2.5-0.7-3.3-0.7-3.6c0.6-2.5,3.8-4.6,6.7-3.8C122,37.5,122.9,40,123,40.3z"/>
			<path id="Левая_голень_00000116936986112479049120000008016730029023278777_" class="st4" d="M121.1,55.8
				c1-1.8,2.8-1.3,8.1-4.5c0.8-0.5,1.4-0.8,1.7-0.6c0.8,0.5-0.9,3.5-1.8,8.1c-0.5,2.7-0.5,4.8-0.5,5.3c0,5.2,0,7.8,0.8,10.2
				c0.1,0.4,0.4,1.2,0,1.6c-0.6,0.7-2.6,0.3-3.7-0.8c-0.9-0.9-1.1-2-1.2-2.6c-0.6-3.7-1.9-7.3-2.7-11
				C120.8,56.7,120.7,56.4,121.1,55.8z"/>
			<path id="Левая_стопа_00000063631896018657050480000015322832306537201341_" class="st4" d="M127.9,73.6
				c0.5,0.1,0.8,0.4,2.8,2.6c1.1,1.2,1.4,1.5,1.9,1.9c0.8,0.5,1.4,0.6,1.4,0.8c0,0.5-2.6,0.7-2.7,0.7c-2.1,0.2-2.3-0.1-3.9-0.1
				c-0.7,0-1.3,0-1.9,0.1c-0.2,0-0.7,0.1-0.9-0.2c-0.4-0.4,0.3-1.1,0.4-2.5c0.1-1-0.2-1.4,0.2-2.2c0.1-0.2,0.3-0.6,0.7-0.9
				C126.7,73.2,127.7,73.5,127.9,73.6z"/>
		</g>
		<path id="Туловище_00000026871958479324129870000016742752938347346066_" class="st5" d="M110.9,33.6
			c0-1.3-0.1-0.4-0.7-8.2c-0.2-2.5-0.4-5.1,1-7.4c0.1-0.2,0.2-0.4,0.4-0.7c2.2-2.6,6.4-2.3,6.6-2.3c4.4,0.5,6.5,4.3,6.7,4.6
			c0.3,0.6,0.9,1.6,0.9,3.1c0,1.9-0.7,2-1.6,5.1c-0.6,2.1-0.8,2.9-1,3.5c-0.2,0.5-0.2,0.4-0.3,0.8c-0.7,1.7-0.6,3-0.7,3.9
			c-0.2,1.6-1.2,2.6-2.2,3.8c-0.3,0.4-3.8,4.3-6.5,3.3c-1.5-0.6-2-2.4-2.4-3.7C110.6,37.2,110.9,36,110.9,33.6z"/>
		<g id="Правая_нога__x28_копия_x29_">
			<path id="Правое_бедро_00000018934934557799142990000009941694313204529543_" class="st6" d="M113.8,59.9
				c2.3-1.2,1.1-4.6,2.6-9.7c1.8-6.1,5.9-8.7,4.4-11.5c-0.4-0.8-1.2-1.3-1.5-1.5c-2.4-1.4-6.2-0.4-8.2,1.6c-1.3,1.2-1.6,3.3-2.3,7.4
				c-0.5,2.9-0.8,5-0.4,7.9c0.3,2.1,0.7,5,2.7,5.8C111.1,60,112.5,60.5,113.8,59.9z"/>
			<path id="Правая_голень_00000111911211834470491760000003717415079330343309_" class="st4" d="M108.3,53.4
				c1.6-1.4,3.8,0.3,8.1-0.6c0.4-0.1,0.8-0.2,1.1,0c0.6,0.6-1.2,3-2.9,6.3c-1.6,3.1-2.5,5.7-2.7,6.2c-2.7,8.4-2.9,9.4-2.9,9.4
				c-0.1,0.5-0.3,1.5-0.9,1.7c-0.7,0.2-1.8-0.8-2.3-1.8c-0.8-1.6-0.4-3.2,0-4.9c0.8-3.9-0.1-2.6,1.5-13.1
				C107.6,54.6,107.7,54,108.3,53.4z"/>
			<path id="Правая_стопа_00000182498731775675870730000007712867863239107973_" class="st4" d="M108.8,73.7
				c1,0.4,0.6,1.2,2.2,3.1c0.3,0.4,1,1.2,2,2c1,0.7,1.6,0.9,1.5,1.1c-0.1,0.4-2.2-0.2-5.6-0.1c-2.5,0.1-4,0.4-4.7-0.5
				c-0.3-0.4-0.4-1-0.4-1.2c0-0.5,0.2-1.2,0.8-2.4c0.4-0.8,0.7-1.4,1.3-1.7c0,0,0,0,0.1,0C106.7,73.6,107.9,73.4,108.8,73.7z"/>
		</g>
		<g id="Пояс_00000124876803522420673640000016442625411600639903_">
			<g>
				<path d="M112,39c3.1,0.3,6.3,0.7,9.4,1c0.8,0.1,1.5-0.8,1.5-1.5c0-0.9-0.7-1.4-1.5-1.5c-3.1-0.3-6.3-0.7-9.4-1
					c-0.8-0.1-1.5,0.8-1.5,1.5C110.6,38.3,111.2,38.9,112,39L112,39z"/>
			</g>
		</g>
		<g id="Правая_рука__x28_копия_x29_">
			<path id="Правое_плечо_00000021121244694648064060000017486223921601827209_" class="st2" d="M113.2,16.5
				c1.6-0.2,3.6,0.6,4.3,2.1c0.5,1.1,0.3,2.4-0.3,3.3c-0.4,0.6-0.8,0.8-1.5,1.1c-0.7,0.4-3.2,1.9-4.4,4c-1.1,1.7-0.6,2.6-1.6,3.3
				c-1,0.6-2.6,0.6-3.3-0.2c-0.2-0.2-0.9-1.1,0.9-5.4C109,20.3,110.4,16.9,113.2,16.5z"/>
			<path id="Правый_кулак_00000062156089019998967430000005418060104177199023_" class="st2" d="M113,38
				c0.1,0,1.9,0.8,1.9,2.2c0,1.2-1.1,2-2,2.3c-1.4,0.5-3.4,0.2-4.1-1.2c-0.6-1-0.2-2.2,0.7-3C110.5,37.6,111.9,37.6,113,38z"/>
			<path id="Правое_предплечье_00000115481666761286843260000004448378276481410438_" class="st2" d="M111.7,30.7
				c0.6,2.2-0.2,2.5-0.3,7.4c-0.1,1.4,0,2.1-0.5,2.3c-0.7,0.4-2.2-0.6-2.9-1.8c-0.4-0.8-0.4-1.5-0.4-1.7c-0.1-4.2-2.9-6.6-1.7-8.5
				c0.8-1.1,2.7-1.5,4-0.9C111,28,111.3,29.4,111.7,30.7z"/>
		</g>
	</g>
	<g id="Кадр1">
		<path id="Шея" class="st1" d="M38.7,18.1c-0.8-2.5,1.9-4,3.3-4s2.5,0.4,2.6,1.7S44,19,42.6,19.3C41.3,19.5,39.2,19.7,38.7,18.1
			z"/>
		<path id="Голова" class="st2" d="M38.5,12.5C38.2,10,40.2,8.2,40.5,8c0.3-0.3,2.5-2.1,5.2-1.4c2.5,0.7,3.4,3.2,3.6,3.8
			c1.1,3,0.2,7.1-2.3,7.9c-1.5,0.5-3.1-0.5-4.5-1.3C41,16.1,38.8,14.8,38.5,12.5z"/>
		<g id="Левая_рука">
			<path id="Левое_предплечье" class="st2" d="M48.5,32.3c0.5,0.8,0.3,1,1,2.9c0.5,1.3,0.6,1.4,1.2,3
				c0.9,2.3,1.3,3.4,0.9,3.8c-0.5,0.5-2.1-0.5-2.7-0.8c-0.7-0.5-2-1.4-3.6-3.7c-1.6-2.3-2.6-3.7-2.2-5.3c0.2-1.1,1.1-2.5,2.3-2.5
				C47,29.6,48.3,32,48.5,32.3z"/>
			<path id="Левое_плечо" class="st2" d="M40.9,19.9c1.4-0.6,3.9,1.5,4.2,1.7c0.8,0.7,1.1,1.3,1.2,1.5
				c0.1,0.2,0.4,0.8,0.5,2.2c0.1,1.1,0,2-0.3,3.6c-0.4,2.4-0.6,2.7-0.9,2.9c-0.7,0.4-1.8,0.4-2.4-0.1c-0.7-0.5-0.8-1.2-1.2-2.3
				c-0.7-2-1.2-2-1.8-3.4C39.4,23.8,39.4,20.5,40.9,19.9z"/>
			<path id="Левый_кулак" class="st2" d="M53.4,38.4c0.1,0,1.8-0.1,2.5,1.2c0.6,1,0.1,2.2-0.4,2.9c-0.8,1-2.5,1.5-3.7,0.7
				c-0.9-0.7-1.2-1.9-0.9-2.9C51.2,39.1,52.4,38.5,53.4,38.4z"/>
		</g>
		<g id="Левая_нога">
			<path id="Левое_бедро_00000062158728181636582070000003630555239306599813_" class="st3" d="M43,41.6
				c0.6,2.6,1.6,4.4,2.4,5.6c1.8,2.6,3.6,3.8,4.4,6.8c0.3,1,0.5,2.1,0,2.9c-1,1.5-4.1,1.7-6.2,1c-1.8-0.6-3.4-2.6-6.6-6.8
				c-1.2-1.5-2.5-3.3-3.5-5.8c-0.9-2.4-0.7-3.2-0.7-3.5c0.6-2.4,3.8-4.5,6.7-3.7C42,38.9,42.9,41.3,43,41.6z"/>
			<path id="Левая_голень_00000070800726131404274450000012792647063664463523_" class="st4" d="M41,56.6
				c1-1.8,2.8-1.2,8.1-4.3c0.8-0.5,1.4-0.8,1.7-0.6c0.8,0.5-0.9,3.3-1.8,7.8c-0.5,2.6-0.5,4.6-0.5,5.2c0,5,0,7.6,0.8,9.9
				c0.1,0.4,0.4,1.1,0,1.6c-0.6,0.6-2.5,0.3-3.7-0.7c-0.9-0.8-1.1-2-1.2-2.5c-0.5-3.6-1.9-7.1-2.7-10.6C40.8,57.5,40.7,57.2,41,56.6
				z"/>
			<path id="Левая_стопа_00000163768244792015708200000007565364106087615659_" class="st4" d="M47.9,73.8
				c0.5,0.1,0.8,0.4,2.8,2.5c1.1,1.2,1.3,1.5,1.9,1.8c0.8,0.5,1.4,0.6,1.4,0.8c0,0.5-2.6,0.7-2.7,0.7c-2.2,0.2-2.3-0.1-3.9-0.1
				c-0.7,0-1.3,0-1.9,0.1c-0.2,0-0.7,0.1-0.9-0.2c-0.4-0.4,0.3-1,0.4-2.4c0.1-1-0.2-1.4,0.2-2.1c0.1-0.2,0.3-0.6,0.7-0.8
				C46.7,73.5,47.7,73.7,47.9,73.8z"/>
		</g>
		<path id="Туловище" class="st5" d="M31,35.2c0-1.3-0.1-0.4-0.7-8c-0.2-2.4-0.4-4.9,1-7.2c0.1-0.2,0.2-0.4,0.5-0.6
			c2.2-2.5,6.4-2.2,6.6-2.2c4.4,0.4,6.5,4.1,6.7,4.4c0.3,0.5,0.9,1.6,0.9,3c0,1.8-0.7,1.9-1.5,5c-0.6,2.1-0.8,2.8-1,3.4
			c-0.2,0.5-0.2,0.4-0.3,0.7c-0.7,1.7-0.6,2.9-0.7,3.8C42,39,41.1,40,40.1,41.1c-0.3,0.3-3.8,4.1-6.5,3.2c-1.5-0.5-2-2.3-2.4-3.5
			C30.6,38.7,30.9,37.5,31,35.2z"/>
		<g id="Правая_нога">
			<path id="Правое_бедро" class="st6" d="M33.8,60.6c2.3-1.1,1.1-4.5,2.6-9.4c1.8-5.9,5.9-8.4,4.4-11.1
				c-0.5-0.8-1.2-1.2-1.5-1.4c-2.4-1.4-6.2-0.4-8.2,1.6c-1.3,1.2-1.6,3.2-2.3,7.1c-0.5,2.8-0.8,4.9-0.4,7.6c0.3,2.1,0.7,4.8,2.7,5.6
				C31.1,60.7,32.5,61.2,33.8,60.6z"/>
			<path id="Правая_голень" class="st4" d="M28.3,54.3c1.6-1.3,3.8,0.3,8.1-0.6c0.4-0.1,0.8-0.2,1,0
				c0.6,0.6-1.2,2.9-2.9,6c-1.6,3-2.5,5.5-2.6,6C29.2,74,29,75,29,75c-0.1,0.5-0.3,1.5-0.9,1.6c-0.7,0.2-1.8-0.8-2.4-1.8
				c-0.8-1.5-0.4-3.1,0-4.7c0.8-3.8-0.1-2.5,1.5-12.6C27.5,55.4,27.7,54.8,28.3,54.3z"/>
			<path id="Правая_стопа" class="st4" d="M28.8,73.9c1,0.3,0.6,1.2,2.2,3c0.4,0.4,1,1.2,2,1.9c1,0.7,1.5,0.9,1.5,1.1
				c-0.1,0.4-2.2-0.2-5.6-0.1c-2.5,0.1-4,0.4-4.7-0.5c-0.3-0.4-0.4-0.9-0.4-1.2c0-0.5,0.2-1.1,0.8-2.3c0.4-0.8,0.7-1.3,1.3-1.6
				c0,0,0,0,0.1,0C26.7,73.8,27.9,73.6,28.8,73.9z"/>
		</g>
		<g id="Пояс_00000006672300101815831140000015636376335001793923_">
			<g>
				<path d="M32,40.4c3.1,0.3,6.3,0.6,9.4,0.9c0.8,0.1,1.5-0.8,1.5-1.5c0-0.9-0.7-1.4-1.5-1.5c-3.1-0.3-6.3-0.6-9.4-0.9
					c-0.8-0.1-1.5,0.8-1.5,1.5C30.6,39.8,31.2,40.3,32,40.4L32,40.4z"/>
			</g>
		</g>
		<g id="Правая_рука">
			<path id="Правое_плечо_00000016045068457161871270000006101254709083943608_" class="st2" d="M33.2,18.7
				c1.6-0.2,3.6,0.5,4.3,2c0.5,1,0.3,2.3-0.3,3.2c-0.4,0.5-0.8,0.7-1.5,1.1c-0.7,0.4-3.2,1.8-4.5,3.8c-1.1,1.7-0.6,2.5-1.6,3.2
				c-1,0.6-2.6,0.6-3.3-0.2c-0.2-0.2-0.9-1.1,0.9-5.2C29,22.3,30.4,19,33.2,18.7z"/>
			<path id="Правый_кулак_00000089569830401128823050000010206867575697131934_" class="st2" d="M33,39.5
				c0.1,0,1.9,0.8,1.9,2.2c0,1.2-1.1,2-2,2.3c-1.4,0.5-3.4,0.2-4.1-1.1c-0.6-1-0.2-2.2,0.7-2.9C30.5,39.1,31.9,39,33,39.5z"/>
			<path id="Правое_предплечье_00000097480859511235791180000008477021296921578905_" class="st2" d="M31.7,32.4
				c0.6,2.1-0.2,2.5-0.4,7.1c0,1.3,0,2-0.5,2.2c-0.7,0.4-2.2-0.6-2.9-1.8c-0.4-0.7-0.4-1.4-0.4-1.6c-0.1-4-3-6.4-1.7-8.2
				c0.8-1.1,2.7-1.5,4-0.9C31,29.8,31.3,31.2,31.7,32.4z"/>
		</g>
	</g>
</g>
<g id="Рамки" class="st0">
	<rect class="st7" width="80" height="80"/>
	<rect x="80" class="st7" width="80" height="80"/>
	<rect x="160" class="st7" width="80" height="80"/>
	<rect x="240" class="st7" width="80" height="80"/>
	<rect x="320" class="st7" width="80" height="80"/>
	<rect x="400" class="st7" width="80" height="80"/>
	<rect x="480" class="st7" width="80" height="80"/>
	<rect x="560" class="st7" width="80" height="80"/>
	<rect x="640" class="st7" width="80" height="80"/>
	<rect x="720" class="st7" width="80" height="80"/>
</g>
</svg>
