<?xml version="1.0" encoding="utf-8"?>
<!-- Generator: Adobe Illustrator 27.2.0, SVG Export Plug-In . SVG Version: 6.00 Build 0)  -->
<svg version="1.1" id="Слой_1" xmlns="http://www.w3.org/2000/svg" xmlns:xlink="http://www.w3.org/1999/xlink" x="0px" y="0px"
	 viewBox="0 0 640 80" style="enable-background:new 0 0 640 80;" xml:space="preserve">
<style type="text/css">
	.st0{fill:#FFA46A;stroke:#000000;stroke-width:0.5;stroke-miterlimit:10;}
	.st1{fill:#FFA46A;stroke:#1D1D1B;stroke-width:0.5;stroke-miterlimit:10;}
	.st2{fill:#004F55;stroke:#1D1D1B;stroke-width:0.5;stroke-miterlimit:10;}
	.st3{fill:#C96600;stroke:#7F0011;stroke-width:0.5;stroke-miterlimit:10;}
	.st4{fill:#1700D4;stroke:#1D1D1B;stroke-width:0.5;stroke-miterlimit:10;}
	.st5{fill:#C0D1DA;stroke:#1D1D1B;stroke-width:0.5;stroke-miterlimit:10;}
	.st6{display:none;}
	.st7{display:inline;fill:none;stroke:#1D1D1B;stroke-miterlimit:10;}
</style>
<g id="Кадры">
	
		<image style="display:none;overflow:visible;enable-background:new    ;" width="259" height="47" xlink:href="1B8DAF44.jpeg"  transform="matrix(1.7397 0 0 1.7397 186.1321 0.1399)">
	</image>
	<g id="Кадр8">
		<path id="Шея_00000044167030043066004550000017228309537953374858_" class="st0" d="M610.3,17.3c-0.8-2.6,1.9-4.2,3.3-4.2
			s2.5,0.5,2.6,1.8s-0.6,3.4-1.9,3.7C613,18.8,610.8,19,610.3,17.3z"/>
		<path id="Голова_00000078027384902638055330000014473175758786898343_" class="st1" d="M610.2,11.3
			c-0.3-2.6,1.7-4.6,1.9-4.8c0.3-0.3,2.5-2.3,5.2-1.5c2.5,0.7,3.4,3.3,3.6,4c1.1,3.2,0.2,7.6-2.3,8.4c-1.5,0.5-3.1-0.5-4.5-1.4
			C612.6,15.2,610.5,13.8,610.2,11.3z"/>
		<g id="Левая_рука_копия_2">
			<path id="Левое_предплечье_00000141422816030285563610000005570311492180820876_" class="st1" d="M598.2,23.4
				c-0.2,0.8-0.4,0.7-1,2.3c-0.5,1.1-0.4,1.2-0.9,2.5c-0.7,1.9-1.1,2.8-1.5,2.8c-0.6,0-1-1.4-1.2-1.9c-0.2-0.7-0.5-1.9-0.2-4.1
				c0.3-2.3,0.5-3.6,1.5-4.4c0.8-0.6,2.1-0.9,2.9-0.4C598.8,21,598.3,23.1,598.2,23.4z"/>
			<path id="Левое_плечо_00000108290665544066391520000004096621341691119766_" class="st1" d="M606.8,14.5
				c1.1,1.2-0.3,4.2-0.5,4.5c-0.5,1-1,1.5-1.2,1.7c-0.1,0.1-0.7,0.7-2,1.2c-1.1,0.5-2,0.6-3.7,0.9c-2.5,0.5-2.9,0.3-3.2,0.1
				c-0.7-0.5-0.9-1.5-0.7-2.3c0.2-0.8,0.9-1.1,2-1.9c1.8-1.3,1.7-1.9,2.9-2.8C602.4,14.4,605.7,13.3,606.8,14.5z"/>
			<path id="Левый_кулак_00000103986964171409509790000015753914629992484512_" class="st1" d="M596.7,28.5
				c0,0,0.9,0.9,0.6,2.1c-0.2,1-1.1,1.7-1.7,1.8c-0.9,0.3-2-0.2-2.1-1.4c-0.1-0.9,0.4-2,1.1-2.5C595.3,27.9,596.2,28,596.7,28.5z"/>
		</g>
		<g id="Левая_нога_копия_2">
			<path id="Левое_бедро_00000120557837929197114600000017450729301761336207_" class="st2" d="M608.3,38.9
				c1.8,2.1,3.6,3.4,4.9,4.1c2.8,1.7,5,1.8,7.3,4.3c0.8,0.8,1.5,1.7,1.5,2.8c-0.1,1.9-2.7,3.5-5,3.9c-1.9,0.3-4.3-0.9-9.2-3.2
				c-1.8-0.9-3.8-1.9-5.9-3.8c-2-1.8-2.3-2.7-2.3-3c-0.7-2.5,1.1-6,4.1-6.6C606,36.9,608,38.7,608.3,38.9z"/>
			<path id="Левая_голень_00000065766794076776212670000001116209932531849347_" class="st3" d="M618.3,45.9
				c2.1,0,2.5,1.8,7.8,5c0.8,0.5,1.4,0.8,1.4,1.2c-0.1,0.9-3.5,0.8-8.2,2.3c-2.7,0.8-4.6,1.8-5.1,2.1c-4.7,2.5-7.1,3.7-9,5.6
				c-0.3,0.3-0.9,0.9-1.5,0.8c-0.9-0.2-1.5-2.1-1-3.6c0.3-1.2,1.3-1.9,1.8-2.3c3.1-2.3,5.7-5.2,8.7-7.6
				C617.4,46.2,617.5,46,618.3,45.9z"/>
			<path id="Левая_стопа_00000090977274374187198930000016240814114974259369_" class="st3" d="M603.8,59.9
				c1,1.5,0.2,2.3,0.8,4.2c0.2,0.5,0.9,2.5,2.3,3.9c0.2,0.2,0.8,0.7,0.8,1.4c0,0.3-0.1,0.7-0.4,0.8c-0.7,0.4-2-0.8-2.5-1.2
				c-1.2-1.1-1.2-1.6-2.6-3.2c-1.2-1.5-2.3-3.1-3.7-4.5c-0.1-0.2-0.5-0.5-0.4-0.8c0.1-0.5,0.9-0.8,2.3-1.3c1.6-0.5,2-0.4,2.2-0.4
				C602.7,58.8,603.3,59.1,603.8,59.9z"/>
		</g>
		<path id="Туловище_00000167388037838988815490000000318755879745740473_" class="st4" d="M599.8,33.4
			c0.2-1.3,0-0.5,0.5-8.5c0.2-2.6,0.4-5.2,2.1-7.4c0.2-0.2,0.3-0.4,0.5-0.6c2.1-1.9,5.4-1.6,6.9-1.4c2.4,0.3,6.8,1.6,7.6,4.5
			c0.3,1.2-0.2,2.2-1.2,4.4c-1,2.2-1.8,3.8-2.3,5c-1.3,3-1.4,3.2-2,4.1c-0.7,1.2-1.4,2-2.5,3.4c-1.3,1.6-2,2.4-3,3.4
			c-1.9,1.8-3.9,3.6-5.4,3c-1.4-0.5-1.7-2.8-1.8-4.1C598.9,37,599.4,35.8,599.8,33.4z"/>
		<g id="Правая_нога_копия_2">
			<path id="Правое_бедро_00000025433430942309808850000012949050305076593828_" class="st5" d="M594.6,59.9
				c2.5-0.5,2.3-4.3,5.1-8.9c3.4-5.5,8-7.1,7.4-10.2c-0.2-1-0.8-1.6-1-1.9c-2-2-5.8-2-8.4-0.5c-1.5,0.9-2.4,2.8-4.2,6.7
				c-1.3,2.8-2.2,4.8-2.5,7.7c-0.3,2.2-0.7,5.1,1.1,6.5C592.1,59.3,593.2,60.2,594.6,59.9z"/>
			<path id="Правая_голень_00000062889877215450594880000001229053388977839290_" class="st3" d="M590.4,54.9
				c2.1-0.3,3,2.3,7.2,3.9c0.4,0.1,0.8,0.3,0.9,0.6c0.2,0.9-2.6,1.9-5.9,3.8c-3.1,1.8-5.2,3.6-5.7,3.9c-7,5.8-7.7,6.6-7.7,6.6
				c-0.3,0.4-1.1,1.2-1.7,1c-0.8-0.2-1.1-1.7-1-2.8c0.2-1.8,1.5-3,2.7-4.2c2.8-2.9,1.3-2.3,8.5-10.5C589.2,55.5,589.6,55,590.4,54.9
				z"/>
			<path id="Правая_стопа_00000046297408335233365810000013094574562060450183_" class="st3" d="M579.1,73.6
				c0.4,1.6-0.2,1.9,0.2,2.7c0.4,0.9,1.2,0.7,2.4,2c0.4,0.5,1,1.1,0.8,1.4c-0.1,0.3-0.6,0.3-2.9,0.1c-1.8-0.1-2.7-0.2-3.7-0.4
				c-1.8-0.3-2.6-0.5-3-1.1c-0.7-1-0.2-2.5,0-2.9c0.2-0.6,0.6-1,1.3-2c0.9-1.1,1.4-1.7,2-1.9c0.7-0.2,1.6-0.1,2.2,0.4
				C578.8,72.5,578.9,73,579.1,73.6z"/>
		</g>
		<g id="Правая_рука_копия_2">
			<path id="Правое_плечо_00000061437411396015015120000004481675207195008646_" class="st1" d="M609.6,18.3
				c1.3-1.1,3.7-1.5,5.2-0.4c1,0.7,1.6,2.1,1.5,3.4c-0.1,0.8-0.4,1.2-0.8,1.9c-0.4,0.8-1.9,3.6-2,6.3c0,2.2,0.9,2.8,0.3,4.1
				c-0.6,1.2-2.1,2-3.2,1.7c-0.3-0.1-1.5-0.5-2.2-5.6C607.7,24.3,607.2,20.2,609.6,18.3z"/>
			<path id="Правый_кулак_00000158726506922117490090000011017843195095049633_" class="st1" d="M620.3,30
				c0.1-0.1,1.1-1.5,2.6-1.3c1.2,0.2,1.9,1.5,2,2.3c0.2,1.3-0.4,3.1-1.9,3.5c-1.1,0.3-2.3-0.3-2.9-1.3
				C619.5,32.2,619.7,30.9,620.3,30z"/>
			<path id="Правое_предплечье_00000116202256476291237540000008338887093307109286_" class="st1" d="M613.2,29.6
				c2.5-0.1,2.7,0.7,7.9,1.9c1.5,0.3,2.2,0.5,2.4,1c0.2,0.9-1.1,2.3-2.6,2.8c-0.9,0.3-1.7,0.1-1.9,0.1c-4.6-0.8-7.8,1.8-9.5,0.1
				c-1-1-1-3.2-0.1-4.5C610.2,29.8,611.8,29.7,613.2,29.6z"/>
		</g>
		<g id="Пояс_00000001649349792414231870000004287512968065544589_">
			<g>
				<path d="M599.6,39.1c2.7,0.6,5.3,1.2,8,1.8c0.8,0.2,1.7-0.2,1.8-1c0.2-0.8-0.2-1.7-1-1.8c-2.7-0.6-5.3-1.2-8-1.8
					c-0.8-0.2-1.7,0.2-1.8,1C598.3,38.1,598.8,39,599.6,39.1L599.6,39.1z"/>
			</g>
		</g>
	</g>
	<g id="Кадр7">
		<path id="Шея_00000101806031252819796660000004086912162988791214_" class="st0" d="M525.8,13.2c-0.8-2.6,1.9-4.2,3.3-4.2
			c1.4,0,2.5,0.5,2.6,1.8c0.1,1.3-0.6,3.4-1.9,3.7S526.3,14.8,525.8,13.2z"/>
		<path id="Голова_00000073710943908136513710000000890866480535826560_" class="st1" d="M526.6,7.7c-0.3-2.6,1.7-4.6,1.9-4.8
			c0.3-0.3,2.5-2.3,5.2-1.5c2.5,0.7,3.4,3.3,3.6,4c1.1,3.2,0.2,7.6-2.3,8.4c-1.5,0.5-3.1-0.5-4.5-1.4C529,11.6,526.9,10.2,526.6,7.7
			z"/>
		<g id="Левая_рука__x28_копия6_x29_">
			<path id="Левое_предплечье_00000075873372589069679100000005971963759586414010_" class="st1" d="M528.2,29.4
				c-0.2,0.7-0.4,0.7-1.1,2.2c-0.5,1-0.5,1.2-1,2.4c-0.8,1.8-1.2,2.7-1.7,2.7c-0.6,0-1-1.4-1.1-2c-0.2-0.7-0.4-1.9-0.1-4.1
				c0.4-2.2,0.6-3.5,1.7-4.2c0.8-0.5,2.1-0.8,2.9-0.2C528.9,27,528.3,29.1,528.2,29.4z"/>
			<path id="Левое_плечо_00000155139949176236455130000007833994285910573956_" class="st1" d="M534.7,15.8
				c1.2,0.6,1.5,2.7,1.5,3.1c0.1,1.5-0.4,2.6-0.8,3.2c-0.2,0.4-0.4,0.6-2.1,2.6c-1.7,2-2,2.2-2.3,2.5c-1.2,0.9-2.1,1.7-3.2,1.4
				c-0.9-0.2-1.6-1.2-1.7-2.1c-0.1-0.9,0.4-1.5,1.2-2.7c1.2-2,0.8-2.5,1.7-4C530.2,17.4,533,15.1,534.7,15.8z"/>
			<path id="Левый_кулак_00000093894319003189466470000016953676280543985062_" class="st1" d="M527.5,35.4
				c0,0.1-0.1,1.7-1.5,2.5c-1.2,0.7-2.4,0.3-3-0.1c-1-0.7-1.4-2.2-0.4-3.4c0.8-0.9,2.2-1.3,3.2-1.1
				C526.9,33.5,527.5,34.4,527.5,35.4z"/>
		</g>
		<g id="Левая_нога__x28_копия6_x29_">
			<path id="Левое_бедро_00000090277271464336913460000016966263470401693118_" class="st2" d="M526,38.8
				c0.2,2.8,0.9,4.8,1.5,6.2c1.3,3,3,4.5,3.3,7.8c0.1,1.1,0.3,2.5-0.5,3.1c-1.2,1-4-0.7-4.6-1c-1.7-1-2.2-1.9-6.1-7.2
				c-0.4-0.5-2.8-3.8-3.6-6.3c-0.7-2-0.3-3.3-0.1-3.7c0,0,0-0.1,0-0.1c1-2.4,4.5-4.1,7.2-2.8C525.5,35.8,526,38.5,526,38.8z"/>
			<path id="Левая_голень_00000088127277140801677340000004794248934780808360_" class="st3" d="M529.4,51.7
				c0.3,0.2,1.5,1.3,1.5,3c0,1-0.4,2.3-1.4,3c-0.9,0.6-2.1,0.5-6.1-1.1c-3.2-1.2-4.2-2.1-5.8-2.5c-4.8-1.3-8.4-1.7-8.4-1.7
				c-0.4,0-1.3-0.2-1.4-0.6c-0.1-0.5,1-1.4,2-1.8c1.1-0.5,2.1-0.5,3.2-0.5c2.3,0.1,3.3,0.5,5,0.7c2.4,0.3,2.2-0.2,5.7,0
				C528,50.5,529,51.3,529.4,51.7z"/>
			<path id="Левая_стопа_00000036211359293755160980000007516256805571062408_" class="st3" d="M509.2,52.3
				c-1.7,1.3-2.8,0.5-3.8,1.6c-0.5,0.5-0.7,1.3-1.1,3c-0.3,1.1-0.4,1.6-0.7,1.7c-0.4,0-0.9-1-1.1-1.8c-0.3-1.1-0.1-2,0-2.7
				c0.2-1.1,0.4-1.1,1.1-3.2c0.4-1.3,0.4-1.4,0.7-1.9c0.2-0.4,1-1.6,2.1-1.7c0.5,0,0.6,0.3,2.7,2.3c0.7,0.6,1,0.9,1,1.4
				C510.1,51,510.1,51.5,509.2,52.3z"/>
		</g>
		<path id="Туловище_00000182529378522954098630000009177078237266645434_" class="st4" d="M517.5,31.1
			c0-0.1,0.1-0.6,0.2-1.1c0.2-0.9,0.2-1.1,0.3-2c0.1-1.3,0-1.8,0-3c0-2,0.2-3.4,0.3-4.8c0.4-3.2,0.7-4.8,1.7-6
			c1.1-1.2,2.5-1.6,3.1-1.8c1.9-0.6,3.5-0.2,4.4,0c2.2,0.5,6.3,2.3,6.8,5.5c0.2,1-0.1,1.8-0.6,3.5c-0.7,2.1-1,2-2.4,4.9
			c-1.4,3-1.5,3.1-2.1,4.1c-0.7,1-1.3,1.8-2.6,3.3c-1.1,1.3-1.7,1.9-1.9,2c-1.7,0.9-3.6,0.2-4.1,0c-0.7-0.3-1.7-0.6-2.4-1.6
			C517.4,32.8,517.5,31.3,517.5,31.1z"/>
		<g id="Правая_нога__x28_копия6_x29_">
			<path id="Правое_бедро_00000023983592400811984730000012946924571923902592_" class="st5" d="M519.9,57.7
				c0.4-0.2,0.6-0.4,0.7-0.5c2.1-2.1,3.1-7.1,3.7-9.6c1.4-5.9,2.9-7.6,1.7-9.6c-0.5-0.8-1.2-1.2-2.3-1.9c-1.9-1.2-5.3-2.4-7.2-0.8
				c-0.2,0.2-0.3,0.3-0.4,0.5c-0.7,1-0.3,2.7-0.8,7.4c-0.4,3.6-0.8,4.8-0.9,6.5c0,0.7,0,0.6,0,1.9c0,4.1-0.3,4.8,0.2,5.5
				C515.5,58.1,518.1,58.6,519.9,57.7z"/>
			<path id="Правая_голень_00000131326295043998162180000002923188250721780908_" class="st3" d="M513.6,54.5
				c1.5-1.6,4,0,8.5-1.4c0.4-0.1,0.8-0.3,1.1-0.1c0.7,0.6-0.9,3.3-2.3,6.9c-1.3,3.5-1.9,6.3-2,6.9C517,76,517,77.1,517,77.1
				c0,0.5-0.1,1.6-0.8,1.9c-0.8,0.3-2-0.7-2.7-1.7c-1.1-1.6-0.8-3.4-0.6-5.2c0.4-4.2-0.5-2.8,0-14C513,55.7,513,55.1,513.6,54.5z"/>
			<path id="Правая_стопа_00000107590058037280947690000012454823226482251161_" class="st3" d="M515.1,74.5
				c1.4,0.5,1.5,1.3,3.3,2.7c0.7,0.5,1.2,0.9,2,1.2c1.2,0.4,2.2,0.3,2.2,0.7c0.1,0.3-0.4,0.7-0.9,0.9c-0.8,0.3-1.4-0.1-2.2-0.3
				c-0.2-0.1-0.2,0-3.7-0.2c-0.5,0,0,0.2-4.1-0.5c-0.4-0.1-0.7-0.1-0.8-0.4c-0.3-0.4,0.1-1.2,0.9-2.4c0.9-1.5,1.3-1.7,1.4-1.7
				C513.6,74.3,514.1,74.2,515.1,74.5z"/>
		</g>
		<g id="Правая_рука__x28_копия6_x29_">
			<path id="Правое_плечо_00000129894587798088667610000012229687636426176959_" class="st1" d="M521.3,13.4
				c1.6-0.9,4.1-1,5.6,0.3c1,0.9,1.5,2.4,1.2,3.6c-0.2,0.8-0.5,1.2-1,1.9c-0.5,0.7-2.5,3.4-2.9,6.1c-0.3,2.3,0.7,3-0.2,4.2
				c-0.8,1.1-2.5,1.8-3.7,1.3c-0.3-0.1-1.5-0.8-1.7-6C518.6,19.2,518.5,15,521.3,13.4z"/>
			<path id="Правый_кулак_00000157284691741268334270000000790525826428398011_" class="st1" d="M530.8,32.4
				c0.1-0.1,1.1-1.3,2.9-0.9c1.4,0.3,2.3,1.4,2.6,2.1c0.4,1.2-0.2,2.7-1.9,2.9c-1.3,0.2-2.7-0.4-3.5-1.3
				C530,34.2,530.1,33.1,530.8,32.4z"/>
			<path id="Правое_предплечье_00000125589317446257940340000000248939927755178915_" class="st1" d="M524.7,27.5
				c1.3,0.7,1.6,1.2,3.9,3.3c2.6,2.4,3.6,2.9,3.4,3.5c-0.2,0.8-1.9,1.1-3.2,0.8c-0.8-0.2-1.4-0.7-1.6-0.8c-3.5-2.6-7.1-2.3-7.8-4.3
				c-0.5-1.2,0.4-2.8,1.6-3.3C522.2,26.2,523.7,27,524.7,27.5z"/>
		</g>
		<g id="Пояс_00000019658867919917313090000010040352349959015869_">
			<g>
				<path d="M517.5,36c2.5,0.6,5,1.2,7.6,1.8c0.8,0.2,1.7-0.2,1.8-1c0.2-0.8-0.2-1.7-1-1.8c-2.5-0.6-5-1.2-7.6-1.8
					c-0.8-0.2-1.7,0.2-1.8,1C516.3,35,516.7,35.9,517.5,36L517.5,36z"/>
			</g>
		</g>
	</g>
	<g id="Кадр6">
		<path id="Шея_00000013171210064987337440000008277440054867535767_" class="st0" d="M448.5,13.6c-0.8-2.6,1.9-4.2,3.3-4.2
			c1.4,0,2.5,0.5,2.6,1.8s-0.6,3.4-1.9,3.7S449,15.2,448.5,13.6z"/>
		<path id="Голова_00000161592609304753454940000003420155387880003518_" class="st1" d="M449.2,8.1c-0.3-2.6,1.7-4.6,1.9-4.8
			c0.3-0.3,2.5-2.3,5.2-1.5c2.5,0.7,3.4,3.3,3.6,4c1.1,3.2,0.1,7.6-2.3,8.4c-1.5,0.5-3.1-0.5-4.5-1.4
			C451.7,11.9,449.5,10.6,449.2,8.1z"/>
		<g id="Левая_рука__x28_копия5_x29_">
			<path id="Левое_предплечье_00000101067633805939981420000016155580310971124872_" class="st1" d="M458.9,26.1
				c0.8-0.1,0.8,0.1,2.5,0.1c1.1,0,1.2,0,2.6,0c2,0,2.9,0,3.1,0.5c0.2,0.5-0.9,1.5-1.3,1.8c-0.5,0.4-1.6,1.2-3.7,1.7
				c-2.2,0.5-3.4,0.9-4.5,0.1c-0.8-0.5-1.5-1.6-1.3-2.6C456.5,26.5,458.5,26.2,458.9,26.1z"/>
			<path id="Левое_плечо_00000021089918072410688470000004616738136155532679_" class="st1" d="M455.7,15.6
				c1.3-0.4,2.9,1.1,3.2,1.3c1.1,1,1.4,2.2,1.6,2.9c0.1,0.4,0.1,0.7,0.2,3.4c0,2.6,0,3-0.1,3.4c-0.3,1.5-0.5,2.7-1.5,3.2
				c-0.8,0.4-2,0.2-2.7-0.4c-0.7-0.6-0.7-1.4-0.9-2.8c-0.5-2.3-1-2.5-1.4-4.1C453.4,19.8,454,16.1,455.7,15.6z"/>
			<path id="Левый_кулак_00000077318031577719698710000007488510707209373069_" class="st1" d="M464.6,24.5
				c0.1,0,1.6-0.6,2.9,0.4c1.1,0.8,1.3,2.1,1.1,2.8c-0.2,1.1-1.5,2.1-3,1.7c-1.2-0.4-2.1-1.4-2.3-2.5
				C463.1,25.7,463.8,24.8,464.6,24.5z"/>
		</g>
		<g id="Левая_нога__x28_копия5_x29_">
			<path id="Левое_бедро_00000183967627561219309440000010416657242356862083_" class="st2" d="M445.1,43.8
				c-2.2,1.8-3.5,3.5-4.2,4.8c-1.7,2.8-2,5-4.5,7.1c-0.8,0.7-1.9,1.7-2.8,1.4c-1.5-0.5-1.7-3.7-1.8-4.4c-0.1-2,0.3-2.9,2.5-9.1
				c0.2-0.6,1.5-4.4,3.1-6.6c1.3-1.7,2.5-2.1,2.9-2.2c0,0,0.1,0,0.1,0c2.6-0.6,6,1.3,6.4,4.3C447.2,41.6,445.3,43.5,445.1,43.8z"/>
			<path id="Левая_голень_00000166649369464151000580000014029962241342521269_" class="st3" d="M435.6,52.2
				c0.6,1.1,0.3,2.6,0.1,3.3c-0.2,1-0.6,2.4-1.6,2.9c-1.1,0.5-2.2-0.5-4.9-2.4c-2.8-1.9-4.1-2.8-5.4-3.3c-4.5-2-8-2.9-8-2.9
				c-0.4-0.1-1.3-0.3-1.3-0.8c0-0.5,1.2-1.2,2.2-1.5c1.5-0.4,2.8-0.1,3.2,0c8.3,2.2,8.2,2.4,10.4,2.9
				C433.4,51,434.9,50.9,435.6,52.2z"/>
			<path id="Левая_стопа_00000120559137005156210280000007866760418882322322_" class="st3" d="M418.7,50
				c-1.9,1-2.9,0.1-4,0.9c-0.6,0.4-0.9,1.2-1.6,2.8c-0.5,1-0.7,1.5-1,1.5c-0.4,0-0.7-1.1-0.8-2c-0.1-1.1,0.2-2,0.5-2.7
				c0.4-1,0.6-1,1.6-2.9c0.6-1.2,0.6-1.3,1-1.8c0.3-0.3,1.3-1.4,2.3-1.3c0.5,0.1,0.5,0.4,2.3,2.7c0.6,0.7,0.9,1.1,0.8,1.5
				C419.9,49,419.8,49.5,418.7,50z"/>
		</g>
		<path id="Туловище_00000128460114230318691960000000543697116395266219_" class="st4" d="M440.6,31.6
			c0.2-1.9,0.3-2,0.4-3.1c0.1-1.3-0.1-1.8-0.1-3c-0.1-2,0-3.4,0.2-4.8c0.3-3.2,0.5-4.8,1.5-6.1c1-1.2,2.4-1.7,3-1.9
			c0.5-0.2,1.9-0.6,4.4-0.1c1.3,0.2,6.8,1.3,7.6,4.4c0.3,1.2-0.1,2.2-1.2,4.4c-1,2.2-1.7,3.8-2.2,5c-1.3,3-1.4,3.2-1.9,4.1
			c-0.7,1.2-1.4,2-2.5,3.4c-1.8,2.2-2.7,3.2-3,3.4c-0.4,0.2-2.7,1.7-4.5,0.7c-1.3-0.7-1.6-2.3-1.8-2.9
			C440.3,34.3,440.4,33.4,440.6,31.6z"/>
		<g id="Правая_нога__x28_копия5_x29_">
			<path id="Правое_бедро_00000103226352881291718590000013323086709492150950_" class="st5" d="M450.9,54.4
				c1.6-1.8-0.1-3.5-0.5-10.6c-0.2-3.1,0.1-5.1-1.2-7.9c-0.8-1.7-1.5-2.2-1.8-2.5c-2.3-1.6-6.3-1-7.5,1c-0.8,1.4,0.2,2.4,1.6,7.8
				c0.9,3.5,0.9,4.8,1.4,6.4c0.2,0.7,0.2,0.6,0.7,1.7c1.5,3.8,1.4,4.6,2.1,5.1C447,56.3,449.6,55.9,450.9,54.4z"/>
			<path id="Правая_голень_00000113312248934112070030000010676665245287961520_" class="st3" d="M444.1,54.8
				c1-2,3.9-1.2,7.7-3.8c0.4-0.2,0.7-0.5,1-0.4c0.9,0.4,0.1,3.4-0.2,7.3c-0.3,3.7,0,6.6,0,7.2c0.9,9.4,1.1,10.4,1.1,10.4
				c0.1,0.5,0.4,1.6-0.2,2c-0.6,0.5-2.1-0.1-3.1-0.9c-1.5-1.2-1.7-3-2.1-4.8c-0.8-4.2-1.2-2.5-4-13.4
				C443.8,56.2,443.7,55.6,444.1,54.8z"/>
			<path id="Правая_стопа_00000181780143601440406190000014491567386285202328_" class="st3" d="M452.5,74.8
				c1.4,0.3,1.6,1.2,3.6,2.2c0.8,0.4,1.3,0.7,2.2,0.9c1.3,0.3,2.2,0.1,2.3,0.4c0.1,0.4-0.7,1-0.8,1c-0.5,0.3-1,0.4-1.9,0.6
				c-1,0.1-1.8,0.1-2.2,0.1c-2-0.1-3.9-0.4-5.8-0.4c-0.2,0-0.6,0-0.9-0.3c-0.3-0.4,0-1.2,0.6-2.5c0.7-1.6,1.1-1.8,1.2-1.9
				C451,74.8,451.5,74.6,452.5,74.8z"/>
		</g>
		<g id="Правая_рука__x28_копия5_x29_">
			<path id="Правое_плечо_00000083789058239276333780000000164300687438419338_" class="st1" d="M445.7,11.7
				c1.4,0.8,2.4,2.7,2,4.3c-0.3,1.1-1.3,2.1-2.4,2.5c-0.7,0.2-1.1,0.1-1.9,0c-0.8-0.1-3.7-0.4-6,0.4c-1.9,0.7-2.1,1.8-3.4,1.6
				c-1.2-0.1-2.4-1.1-2.5-2.2c0-0.3,0-1.5,4.1-3.8C440,12.1,443.3,10.3,445.7,11.7z"/>
			<path id="Правый_кулак_00000155852072449119757940000000097264447023214978_" class="st1" d="M434.8,26.1
				c0.1,0,1.5,0.3,1.9,1.8c0.4,1.2-0.2,2.3-0.7,2.8c-0.8,0.8-2.2,1-3.1-0.2c-0.7-0.9-0.8-2.2-0.4-3.1C433,26.3,434,25.9,434.8,26.1z
				"/>
			<path id="Правое_предплечье_00000135655854049165259090000007882039908957942688_" class="st1" d="M435.8,20.2
				c0,1.3-0.3,1.7-1.1,4.3c-0.9,3-0.9,3.9-1.4,4.1c-0.7,0.2-1.6-0.9-1.9-2.1c-0.2-0.7,0-1.3,0-1.5c0.7-3.7-1-6.3,0.3-7.7
				c0.8-0.9,2.4-0.9,3.3-0.2C435.8,17.8,435.8,19.2,435.8,20.2z"/>
		</g>
		<g id="Пояс_00000088830184573446055780000007253145214883366591_">
			<g>
				<path d="M440.5,34.5c2.5,0.6,5,1.2,7.6,1.8c0.8,0.2,1.7-0.2,1.9-1c0.2-0.8-0.2-1.7-1-1.8c-2.5-0.6-5-1.2-7.6-1.8
					c-0.8-0.2-1.7,0.2-1.9,1.1C439.3,33.5,439.7,34.3,440.5,34.5L440.5,34.5z"/>
			</g>
		</g>
	</g>
	<g id="Кадр5">
		<path id="Шея_00000032643121897615829210000002576188845960348346_" class="st0" d="M368.2,19.4c-0.8-2.6,1.9-4.2,3.3-4.2
			s2.5,0.5,2.6,1.8c0.1,1.3-0.6,3.4-1.9,3.7S368.7,21.1,368.2,19.4z"/>
		<path id="Голова_00000118367649015676311150000003833534850786702002_" class="st1" d="M368.5,13.7
			c-0.3-2.6,1.7-4.6,1.9-4.8c0.3-0.3,2.5-2.3,5.2-1.5c2.5,0.7,3.4,3.3,3.6,4c1.1,3.2,0.1,7.6-2.3,8.4c-1.5,0.5-3.1-0.5-4.5-1.4
			C371,17.5,368.8,16.2,368.5,13.7z"/>
		<g id="Левая_рука__x28_копия4_x29_">
			<path id="Левое_предплечье_00000160153321318993116850000010575641240764184199_" class="st1" d="M379.2,30.3
				c0.9-0.1,0.9,0.1,2.8,0.2c1.3,0,1.4,0,3,0c2.2,0,3.4,0.1,3.5,0.5c0.2,0.6-1.1,1.7-1.5,2.1c-0.6,0.5-1.8,1.4-4.3,2
				c-2.5,0.7-4,1-5.2,0.2c-0.9-0.6-1.8-1.9-1.5-3C376.4,30.7,378.8,30.4,379.2,30.3z"/>
			<path id="Левое_плечо_00000116945236225554420950000012968957174826544548_" class="st1" d="M375.6,20.7
				c1.3-0.4,2.9,1.1,3.2,1.3c1.1,1,1.4,2.2,1.6,2.9c0.1,0.4,0.1,0.7,0.2,3.4c0,2.6,0,3-0.1,3.4c-0.3,1.5-0.5,2.7-1.5,3.2
				c-0.8,0.4-2,0.2-2.7-0.4c-0.7-0.6-0.7-1.4-0.9-2.8c-0.5-2.3-1-2.5-1.4-4.1C373.4,24.9,373.9,21.2,375.6,20.7z"/>
			<path id="Левый_кулак_00000167385587229871862040000013610833667465130136_" class="st1" d="M385.9,28.4
				c0.1,0,1.8-0.7,3.3,0.5c1.2,1,1.5,2.5,1.3,3.4c-0.3,1.4-1.7,2.6-3.4,2c-1.3-0.4-2.4-1.7-2.7-3C384.1,29.8,384.8,28.8,385.9,28.4z
				"/>
		</g>
		<g id="Левая_нога__x28_копия4_x29_">
			<path id="Левое_бедро_00000158734799812380672250000016166174560899300228_" class="st2" d="M363.6,47.5
				c-1.7,2.2-2.5,4.2-2.9,5.7c-1,3.1-0.7,5.3-2.6,8c-0.7,0.9-1.3,1.8-2.4,2c-1.9,0.3-4-1.9-4.9-4c-0.7-1.8-0.1-4.4,1.1-9.7
				c0.5-2,1.1-4.2,2.4-6.6c1.3-2.3,2.1-2.8,2.4-2.9c2.3-1.2,6.1-0.2,7.3,2.6C365.1,44.9,363.8,47.2,363.6,47.5z"/>
			<path id="Левая_голень_00000034774282157560401830000018338528171415423640_" class="st3" d="M355,58.9
				c1,0.8,1.3,2.4,1.4,3.2c0.2,1,0.4,2.5-0.4,3.3c-0.9,0.8-2.4,0.3-5.8-0.6c-3.4-0.8-5.1-1.2-6.6-1.3c-5.2-0.3-9,0-9,0
				c-0.4,0-1.4,0.1-1.6-0.3c-0.2-0.5,0.7-1.6,1.6-2.2c1.3-0.9,2.7-1.1,3.1-1.1c9-0.8,9-0.5,11.3-0.9C352.3,58.7,353.8,58,355,58.9z"
				/>
			<path id="Левая_стопа_00000144328375260634383060000018156209151606706084_" class="st3" d="M336.1,63.5
				c-1.5,1.5-2.7,0.9-3.5,2.1c-0.4,0.6-0.5,1.4-0.7,3.1c-0.1,0.9-0.1,1.5-0.5,1.7c-0.4,0.2-1.1-0.1-1.5-0.5
				c-0.7-0.8-0.6-1.9-0.3-3.8c0.2-1.5,0.4-1.3,0.7-3.3c0.2-1.1,0.2-1.4,0.4-2c0.2-0.4,0.8-1.8,1.8-1.9c0.5-0.1,0.6,0.2,3,1.9
				c0.8,0.5,1.1,0.8,1.2,1.2C336.9,62.2,336.9,62.7,336.1,63.5z"/>
		</g>
		<path id="Туловище_00000145034765159617494250000011721608522444826241_" class="st4" d="M356.9,35.8c0.6-1.8,0.7-1.9,1-3
			c0.3-1.2,0.3-1.8,0.5-3c0.3-1.9,0.8-3.3,1.2-4.7c1-3.1,1.5-4.6,2.8-5.6c1.3-1,2.7-1.2,3.4-1.2c0.5-0.1,2-0.2,4.3,0.8
			c1.2,0.5,6.4,2.6,6.5,5.9c0.1,1.2-0.6,2.1-2.1,4.1c-1.5,1.9-2.5,3.4-3.2,4.4c-1.9,2.7-2,2.8-2.8,3.6c-1,1-1.8,1.7-3.2,2.8
			c-2.2,1.8-3.3,2.6-3.6,2.7c-0.5,0.2-3,1.1-4.5-0.3c-1.1-1-1.1-2.6-1.1-3.2C356.1,38.3,356.4,37.5,356.9,35.8z"/>
		<g id="Правая_нога__x28_копия4_x29_">
			<path id="Правое_бедро_00000144303061275812251940000017170532079117315508_" class="st5" d="M374.9,55
				c0.5-2.5-2.8-3.7-6.3-8.6c-2.9-3.9-2.7-5.7-5.5-7.5c-0.9-0.5-3.1-2-5-1.1c-1.9,0.9-2.5,3.6-2.4,5.5c0.2,1.9,1.7,3.5,4.6,6.8
				c2.1,2.3,3.6,4,6.2,5.6c2,1.2,4.6,2.7,6.6,1.6C373.2,57.3,374.6,56.5,374.9,55z"/>
			<path id="Правая_голень_00000013897534687198515840000010220653417795652534_" class="st3" d="M368,56.6
				c0.7-2.1,3.6-1.7,7.1-4.8c0.3-0.3,0.6-0.6,1-0.5c0.9,0.2,0.6,3.3,0.8,7.3c0.2,3.7,0.9,6.5,1,7.1c2.2,9.1,2.6,10.1,2.6,10.1
				c0.2,0.5,0.6,1.5,0.1,2c-0.6,0.6-2.1,0.2-3.2-0.4c-1.7-1-2.1-2.7-2.7-4.4c-1.4-4-1.6-2.3-5.9-12.7
				C367.9,58.1,367.7,57.4,368,56.6z"/>
			<path id="Правая_стопа_00000005256220214543352500000016425552624130281621_" class="st3" d="M379.4,74.6
				c1.4,0.4,1.6,1.2,3.5,2.5c0.7,0.5,1.3,0.8,2.1,1.1c1.3,0.4,2.2,0.2,2.3,0.6c0.1,0.4-0.8,0.9-0.9,0.9c-0.5,0.3-1,0.4-2,0.4
				c-1,0-1.8,0-2.2-0.1c-1.9-0.2-3.9-0.7-5.8-0.8c-0.2,0-0.6,0-0.9-0.3c-0.3-0.4,0.1-1.2,0.8-2.5c0.8-1.5,1.2-1.7,1.3-1.8
				C377.9,74.5,378.5,74.3,379.4,74.6z"/>
		</g>
		<g id="Правая_рука__x28_копия4_x29_">
			<path id="Правое_плечо_00000033358634935600684430000017358354771703912335_" class="st1" d="M365.7,19
				c1,1.2,1.3,3.4,0.3,4.8c-0.7,1-2,1.5-3.1,1.4c-0.7-0.1-1.1-0.3-1.8-0.7c-0.7-0.4-3.2-1.8-5.8-1.8c-2.1,0-2.6,0.8-3.7,0.3
				c-1-0.5-1.8-2-1.5-3c0.1-0.3,0.5-1.4,5.2-2C360.3,17.2,364,16.7,365.7,19z"/>
			<path id="Правый_кулак_00000167392628254911049340000015632362364591874715_" class="st1" d="M347.7,28.2
				c0.1,0.1,1.4,1,1.2,2.4c-0.2,1.1-1.3,1.8-2.1,1.9c-1.2,0.2-2.9-0.3-3.2-1.7c-0.3-1,0.3-2.1,1.1-2.7
				C345.6,27.5,346.9,27.7,347.7,28.2z"/>
			<path id="Правое_предплечье_00000136412701626007828750000011897575651444266160_" class="st1" d="M352.3,23.8
				c-0.9,1-1.4,1.1-3.7,2.6c-2.6,1.7-3.2,2.4-3.7,2.2c-0.6-0.3-0.6-1.8-0.1-2.8c0.3-0.7,0.8-1,1-1.2c3-2.4,3.3-5.4,5.2-5.7
				c1.2-0.1,2.4,0.9,2.6,2C353.9,22,352.9,23.1,352.3,23.8z"/>
		</g>
		<g id="Пояс_00000057124412476003003740000008031898080975358348_">
			<g>
				<path d="M356.9,40.2c2.5,0.6,5,1.2,7.6,1.8c0.8,0.2,1.7-0.2,1.9-1c0.2-0.8-0.2-1.7-1-1.8c-2.5-0.6-5-1.2-7.6-1.8
					c-0.8-0.2-1.7,0.2-1.9,1C355.7,39.1,356.1,40,356.9,40.2L356.9,40.2z"/>
			</g>
		</g>
	</g>
	<g id="Кадр4">
		<path id="Шея_00000084522878934581608900000004546583837930809485_" class="st0" d="M289.1,15.1c-0.8-2.6,1.9-4.2,3.3-4.2
			c1.4,0,2.5,0.5,2.6,1.8s-0.6,3.4-1.9,3.7C291.8,16.5,289.6,16.7,289.1,15.1z"/>
		<path id="Голова_00000062906455362580997910000018434813162655600520_" class="st1" d="M289.5,9.3c-0.3-2.6,1.7-4.6,1.9-4.8
			c0.3-0.3,2.5-2.3,5.2-1.5c2.5,0.7,3.4,3.3,3.6,4c1.1,3.2,0.1,7.6-2.3,8.4c-1.5,0.5-3.1-0.5-4.5-1.4
			C291.9,13.2,289.8,11.8,289.5,9.3z"/>
		<g id="Левая_рука__x28_копия2_x29_">
			<path id="Левое_предплечье_00000013883707407861571480000007173665804579920789_" class="st1" d="M296.8,26.2
				c0.8,0,0.8,0.2,2.5,0.6c1.1,0.3,1.2,0.2,2.6,0.5c2,0.4,3,0.6,3,1c0.1,0.6-1.2,1.3-1.7,1.5c-0.6,0.3-1.8,0.9-4,1
				c-2.3,0.1-3.6,0.2-4.6-0.7c-0.7-0.7-1.3-1.9-0.9-2.8C294.3,26.1,296.5,26.2,296.8,26.2z"/>
			<path id="Левое_плечо_00000084488152162169869680000007518107468656984484_" class="st1" d="M295.1,16
				c1.2-0.2,2.4,1.5,2.6,1.7c0.8,1.1,0.9,2.2,0.9,2.9c0,0.4,0,0.7-0.4,3.1c-0.4,2.4-0.5,2.7-0.6,3.1c-0.5,1.3-0.9,2.4-1.8,2.6
				c-0.8,0.2-1.8-0.2-2.3-0.8c-0.5-0.7-0.4-1.4-0.4-2.7c0-2.2-0.5-2.4-0.6-4C292.4,19.4,293.5,16.2,295.1,16z"/>
			<path id="Левый_кулак_00000004527576089540669670000010189879219330957696_" class="st1" d="M302.6,26.5
				c0.1,0,1.2-0.2,2.1,0.8c0.7,0.8,0.7,1.9,0.5,2.5c-0.3,0.9-1.3,1.5-2.4,0.9c-0.8-0.5-1.4-1.5-1.4-2.4
				C301.3,27.3,301.9,26.7,302.6,26.5z"/>
		</g>
		<g id="Левая_нога__x28_копия2_x29_">
			<path id="Левое_бедро_00000138563104561900869190000000351526042225386640_" class="st2" d="M284.5,46.5
				c-2,1.9-3.2,3.8-3.9,5.1c-1.5,2.9-1.6,5.1-4,7.5c-0.8,0.8-1.6,1.6-2.7,1.6c-1.9,0-3.6-2.6-4.1-4.8c-0.4-1.9,0.7-4.4,2.8-9.3
				c0.8-1.9,1.8-3.9,3.5-6.1c1.7-2.1,2.6-2.4,2.9-2.5c2.5-0.8,6,0.9,6.8,3.8C286.5,44.2,284.8,46.3,284.5,46.5z"/>
			<path id="Левая_голень_00000166656538703896364430000000741001142661313963_" class="st3" d="M269.3,54.8
				c2-0.5,2.8,1.2,8.8,3c0.9,0.3,1.6,0.4,1.6,0.8c0.1,0.9-3.2,1.7-7.4,4.2c-2.4,1.5-4,2.9-4.4,3.3c-4,3.6-6,5.3-7.3,7.6
				c-0.2,0.4-0.6,1.1-1.2,1.1c-0.9,0-1.9-1.7-1.9-3.3c0-1.3,0.8-2.2,1.2-2.7c2.5-3,4.3-6.4,6.6-9.5C268.5,55.3,268.6,55,269.3,54.8z
				"/>
			<path id="Левая_стопа_00000080914349567652810140000001959980076871968420_" class="st3" d="M259.6,72.4
				c1.1,2.2,0.5,3.2,1.4,4.4c0.5,0.7,1.2,1,1.9,1.4c1.3,0.7,2.2,0.8,2.2,1c0,0.3-1.2,0.4-1.9,0.5c-2.6,0.3-3.9,0.5-4.8-0.3
				c-0.8-0.6-0.5-1.1-1.5-1.9c-0.8-0.6-1.2-0.5-1.7-1.1c-0.1-0.1-0.9-1-0.7-2.1c0.1-0.8,0.9-1.3,2.4-2.4c0.9-0.7,1.3-0.8,1.6-0.7
				C258.9,71.3,259.2,71.6,259.6,72.4z"/>
		</g>
		<path id="Туловище_00000080893611465518967570000009686917794129884606_" class="st4" d="M279.7,32.7
			c0-1.4-0.1-0.5-0.7-8.5c-0.2-2.6-0.4-5.2,1-7.6c0.1-0.2,0.2-0.4,0.5-0.7c1.8-2.2,5.1-2.3,6.6-2.3c2.4-0.1,7,0.6,8.1,3.3
			c0.5,1.2,0.1,2.2-0.6,4.5c-0.7,2.3-1.2,4-1.5,5.3c-0.9,3.1-0.9,3.3-1.4,4.3c-0.6,1.3-1.1,2.2-2,3.7c-1,1.7-1.6,2.7-2.5,3.8
			c-1.6,2-3.3,4.1-4.9,3.8c-1.4-0.3-2.1-2.6-2.4-3.8C279.3,36.5,279.6,35.1,279.7,32.7z"/>
		<g id="Правая_нога__x28_копия2_x29_">
			<path id="Правое_бедро_00000131324991345770406700000013127982854988236471_" class="st5" d="M300.4,48.5
				c-0.7-2.5-4.4-2-9.2-4.6c-5.7-3.1-7.5-7.6-10.6-6.8c-1,0.2-1.5,0.9-1.8,1.2c-1.9,2.1-1.7,5.9-0.1,8.4c1,1.5,3,2.3,6.9,3.8
				c2.8,1.1,4.9,1.9,7.8,2.1c2.2,0.2,5.1,0.4,6.4-1.4C300,51,300.8,49.8,300.4,48.5z"/>
			<path id="Правая_голень_00000167354696652109351700000006918274004577556611_" class="st3" d="M297.2,46.2
				c2.2-0.3,3.1,2.5,7.4,4.3c0.4,0.2,0.8,0.3,0.9,0.7c0.2,0.9-2.8,2-6.2,3.9c-3.3,1.8-5.5,3.6-5.9,4c-7.3,5.9-8,6.7-8,6.7
				c-0.4,0.4-1.1,1.2-1.8,1c-0.8-0.2-1.1-1.8-1-3c0.2-1.9,1.5-3.1,2.8-4.4c3-3,1.4-2.4,8.9-10.8C295.9,46.8,296.4,46.3,297.2,46.2z"
				/>
			<path id="Правая_стопа_00000012458181723210068080000008845454599921473164_" class="st3" d="M284.4,64.4
				c1,1,0.7,1.9,1.8,3.9c0.4,0.8,0.7,1.3,1.3,2c0.9,0.9,1.8,1.2,1.7,1.6c-0.1,0.4-1.1,0.4-1.2,0.4c-0.6,0-1.1-0.2-1.9-0.6
				c-0.9-0.5-1.6-0.9-1.8-1.1c-1.6-1.1-3-2.5-4.7-3.5c-0.2-0.1-0.5-0.3-0.6-0.7c0-0.5,0.6-1,1.9-1.8c1.4-0.9,1.9-0.9,2-0.9
				C283.1,63.7,283.6,63.7,284.4,64.4z"/>
		</g>
		<g id="Правая_рука__x28_копия2_x29_">
			<path id="Правое_плечо_00000116924900668017209300000003060135266229055922_" class="st1" d="M285.9,14.3
				c1.3,0.9,2.1,2.9,1.6,4.5c-0.4,1.1-1.5,2-2.6,2.2c-0.7,0.1-1.1,0-1.9-0.2c-0.8-0.2-3.6-0.8-6-0.2c-2,0.5-2.3,1.5-3.5,1.3
				c-1.2-0.2-2.3-1.4-2.3-2.5c0-0.3,0.1-1.4,4.5-3.3C280.2,14.1,283.7,12.6,285.9,14.3z"/>
			<path id="Правый_кулак_00000172400394512096549510000004658642985889987006_" class="st1" d="M275.6,29.3
				c0.1,0,1.6,0.6,1.8,2c0.1,1.2-0.8,2.1-1.5,2.4c-1.1,0.6-2.8,0.5-3.6-0.7c-0.6-0.9-0.3-2.1,0.3-2.9
				C273.4,29.1,274.7,29,275.6,29.3z"/>
			<path id="Правое_предплечье_00000120516818902629056340000014785611192340012432_" class="st1" d="M275.4,22.4
				c0.5,2.3-0.2,2.6-0.6,7.5c-0.1,1.4-0.1,2.1-0.6,2.4c-0.7,0.4-2.2-0.7-2.9-2c-0.4-0.8-0.4-1.5-0.4-1.7c0-4.3-2.7-6.9-1.4-8.7
				c0.8-1.1,2.8-1.5,4-0.8C274.8,19.7,275.1,21.1,275.4,22.4z"/>
		</g>
		<g id="Пояс_00000108992109323700966750000007466790589258982016_">
			<g>
				<path d="M279.9,39.5c2.5,0.6,5,1.2,7.6,1.8c0.8,0.2,1.7-0.2,1.9-1c0.2-0.8-0.2-1.7-1-1.8c-2.5-0.6-5-1.2-7.6-1.8
					c-0.8-0.2-1.7,0.2-1.9,1C278.7,38.4,279.1,39.3,279.9,39.5L279.9,39.5z"/>
			</g>
		</g>
	</g>
	<g id="Кадр3">
		<path id="Шея_00000155115712673081330670000003179850163730207661_" class="st0" d="M207.6,14c-0.8-2.6,1.9-4.2,3.3-4.2
			c1.4,0,2.5,0.5,2.6,1.8c0.1,1.3-0.6,3.4-1.9,3.7S208.1,15.6,207.6,14z"/>
		<path id="Голова_00000119095636407319371780000005709855874694233757_" class="st1" d="M206.8,7c-0.3-2.6,1.7-4.6,1.9-4.8
			c0.3-0.3,2.5-2.3,5.2-1.5c2.5,0.7,3.4,3.3,3.6,4c1.1,3.2,0.1,7.6-2.3,8.4c-1.5,0.5-3.1-0.5-4.5-1.4C209.3,10.9,207.1,9.5,206.8,7z
			"/>
		<g id="Левая_рука__x28_копия3_x29_">
			<path id="Левое_предплечье_00000124122493959722757470000013890214138859649964_" class="st1" d="M210.2,25.2
				c0.3,0.7,0.2,0.8,0.6,2.5c0.3,1.1,0.4,1.2,0.8,2.5c0.6,1.9,0.8,2.9,0.5,3.2c-0.5,0.4-1.7-0.5-2.1-0.8c-0.6-0.4-1.6-1.2-2.7-3.1
				c-1.2-2-1.8-3.1-1.5-4.4c0.3-0.9,1.1-2,2.1-2C209.2,22.9,210.1,24.9,210.2,25.2z"/>
			<path id="Левое_плечо_00000001653409127652352850000016071547069793277113_" class="st1" d="M215.7,14.9
				c1.4,0.8,0.8,4.1,0.7,4.5c-0.2,1.1-0.6,1.7-0.7,1.9c-0.1,0.2-0.5,0.8-1.6,1.7c-1,0.7-1.8,1.1-3.4,1.9c-2.4,1.1-2.8,1-3.1,0.9
				c-0.8-0.3-1.3-1.3-1.2-2.1c0-0.9,0.6-1.3,1.4-2.4c1.4-1.7,1.1-2.2,2.1-3.5C211.4,15.9,214.3,14,215.7,14.9z"/>
			<path id="Левый_кулак_00000127741988435763721250000012916109565039080065_" class="st1" d="M211.9,30.7
				c0.1,0,1.1,0.6,1.1,1.9c0,1.1-0.6,1.9-1.2,2.2c-0.8,0.5-1.9,0.3-2.4-0.8c-0.3-0.9-0.1-2,0.4-2.7
				C210.5,30.5,211.3,30.4,211.9,30.7z"/>
		</g>
		<g id="Левая_нога__x28_копия3_x29_">
			<path id="Левое_бедро_00000047775285389562529980000017976475763375524510_" class="st2" d="M207.5,41.1
				c-1.1,2.6-1.4,4.7-1.5,6.2c-0.2,3.3,0.6,5.3-0.6,8.4c-0.4,1.1-0.8,2.1-1.8,2.5c-1.8,0.7-4.3-0.9-5.7-2.8
				c-1.1-1.5-1.1-4.3-1.2-9.7c0-2,0-4.3,0.8-7c0.7-2.6,1.4-3.2,1.6-3.4c2-1.7,5.9-1.6,7.7,0.8C208.4,38.2,207.6,40.8,207.5,41.1z"/>
			<path id="Левая_голень_00000075122682801844152280000005052265368994118553_" class="st3" d="M196.8,53.6
				c1.7-1.3,3.1,0,9.3-0.7c0.9-0.1,1.6-0.2,1.8,0.2c0.5,0.8-2.3,2.8-5.2,6.8c-1.6,2.3-2.6,4.2-2.8,4.7c-2.3,4.8-3.4,7.3-3.8,9.8
				c-0.1,0.4-0.2,1.3-0.7,1.5c-0.8,0.4-2.4-0.8-3-2.3c-0.5-1.2-0.1-2.3,0.1-2.9c1.1-3.7,1.4-7.6,2.4-11.3
				C196.2,54.3,196.2,54,196.8,53.6z"/>
			<path id="Левая_стопа_00000026140356366633944800000018380818219526372742_" class="st3" d="M194.6,74
				c1.8,0.5,1.7,1.6,3.4,2.5c0.4,0.2,2.4,1.2,4.4,1.2c0.3,0,1.1,0,1.5,0.5c0.2,0.2,0.4,0.6,0.3,0.9c-0.2,0.8-2,0.8-2.7,0.8
				c-1.6,0.1-2-0.3-4.1-0.6c-1.9-0.3-3.8-0.7-5.8-0.8c-0.2,0-0.6,0-0.9-0.3c-0.3-0.4,0.1-1.2,0.8-2.5c0.8-1.5,1.2-1.7,1.3-1.8
				C193.1,73.9,193.6,73.7,194.6,74z"/>
		</g>
		<path id="Туловище_00000167370100831120734900000013830732130473772220_" class="st4" d="M199.6,31.6
			c0-1.4-0.1-0.5-0.7-8.4c-0.2-2.6-0.4-5.2,1-7.6c0.1-0.2,0.2-0.4,0.4-0.7c1.8-2.2,5.1-2.3,6.6-2.3c2.4-0.1,7,0.6,8.1,3.4
			c0.5,1.2,0.1,2.2-0.6,4.5c-0.7,2.3-1.2,4-1.6,5.3c-0.9,3.1-0.9,3.3-1.4,4.3c-0.6,1.3-1.1,2.2-2,3.7c-1.1,1.7-1.6,2.7-2.5,3.8
			c-1.6,2-3.3,4.1-4.9,3.8c-1.4-0.3-2.1-2.6-2.4-3.8C199.2,35.3,199.5,34,199.6,31.6z"/>
		<g id="Правая_нога__x28_копия3_x29_">
			<path id="Правое_бедро_00000031196719281456627120000003642753207749027218_" class="st5" d="M210.4,56.6
				c1.1-2.5-0.7-5.2-2.2-9.4c-2.2-6.3-1.4-9.8-4-10.9c-0.9-0.4-1.8-0.3-2.1-0.3c-2.8,0.3-5.1,3.4-5.5,6.3c-0.2,1.8,0.8,3.7,2.8,7.4
				c2.7,5.1,3.8,6.1,4.6,6.7c0.4,0.3,3.7,2.6,5.6,1.4C209.8,57.6,210.1,57.3,210.4,56.6z"/>
			<path id="Правая_голень_00000151506651638689692280000008395014614223771272_" class="st3" d="M209.4,50.6
				c1.8,1.3,0.6,4,2.6,8.2c0.2,0.4,0.4,0.8,0.2,1.1c-0.5,0.8-3.4-0.4-7.2-1.3c-3.6-0.8-6.5-1-7.1-1c-9.4-0.5-10.5-0.4-10.5-0.4
				c-0.5,0-1.6,0.1-2-0.5c-0.4-0.7,0.4-2.1,1.3-2.9c1.4-1.3,3.2-1.3,5-1.3c4.2-0.2,2.7-0.8,13.9-2C208.1,50.1,208.7,50.1,209.4,50.6
				z"/>
			<path id="Правая_стопа_00000107567806165263025940000000684622878164031674_" class="st3" d="M187.4,55.7
				c-0.3,1.8-1.4,1.9-2.2,3.6c-0.2,0.5-1,2.5-0.8,4.5c0,0.3,0.1,1.1-0.4,1.6c-0.2,0.2-0.6,0.4-0.9,0.4c-0.8-0.2-1-1.9-1.1-2.6
				c-0.2-1.6,0.1-2,0.2-4.1c0.1-2,0.4-3.9,0.3-5.8c0-0.2,0-0.7,0.2-0.9c0.4-0.3,1.2,0,2.5,0.5c1.6,0.7,1.8,1,1.9,1.2
				C187.4,54.2,187.6,54.7,187.4,55.7z"/>
		</g>
		<g id="Правая_рука__x28_копия3_x29_">
			<path id="Правое_плечо_00000170242204119068811660000017710474541608081045_" class="st1" d="M201.8,13.4
				c1.4-0.9,3.7-1.1,5,0.2c0.9,0.9,1.4,2.5,1.1,3.8c-0.1,0.8-0.5,1.2-0.9,1.9c-0.5,0.8-2.2,3.5-2.5,6.4c-0.3,2.4,0.6,3.1-0.1,4.4
				c-0.7,1.1-2.2,1.9-3.3,1.4c-0.3-0.1-1.4-0.8-1.5-6.3C199.4,19.5,199.3,15.1,201.8,13.4z"/>
			<path id="Правый_кулак_00000000924101945183309850000001213720495293953431_" class="st1" d="M212,29.6
				c0.1-0.1,1.2-1.5,2.6-1.1c1.2,0.4,1.7,1.7,1.8,2.7c0.1,1.4-0.6,3.3-2.1,3.5c-1.1,0.2-2.2-0.5-2.7-1.6
				C211.1,31.9,211.4,30.5,212,29.6z"/>
			<path id="Правое_предплечье_00000155826569906631393090000011994909775294629027_" class="st1" d="M206.2,26.3
				c2.4,0.4,2.4,1.4,7.1,3.9c1.3,0.7,2.1,1,2.1,1.6c0.1,1-1.5,2.1-3.1,2.2c-0.9,0.1-1.6-0.2-1.8-0.4c-4.2-1.9-7.8,0-9.1-2.2
				c-0.8-1.3-0.3-3.6,0.8-4.7C203.2,25.7,204.8,26,206.2,26.3z"/>
		</g>
		<g id="Пояс_00000101826062907317368420000002672582977206026636_">
			<g>
				<path d="M198.9,37.9c2.5,0.6,5,1.2,7.6,1.8c0.8,0.2,1.7-0.2,1.9-1c0.2-0.8-0.2-1.7-1.1-1.8c-2.5-0.6-5-1.2-7.6-1.8
					c-0.8-0.2-1.7,0.2-1.9,1C197.7,36.8,198.1,37.7,198.9,37.9L198.9,37.9z"/>
			</g>
		</g>
	</g>
	<g id="Кадр2">
		<path id="Шея_00000175309971934716460910000000331429983599561107_" class="st0" d="M127.7,16c-0.8-2.6,1.9-4.2,3.3-4.2
			c1.4,0,2.5,0.5,2.6,1.8c0.1,1.3-0.6,3.4-1.9,3.7C130.3,17.5,128.2,17.7,127.7,16z"/>
		<path id="Голова_00000052815272909658965940000007376960747476149381_" class="st1" d="M127.9,9.8c-0.3-2.6,1.7-4.6,1.9-4.8
			c0.3-0.3,2.5-2.3,5.2-1.5c2.5,0.7,3.4,3.3,3.6,4c1.1,3.2,0.1,7.6-2.3,8.4c-1.5,0.5-3.1-0.5-4.5-1.4
			C130.4,13.6,128.2,12.3,127.9,9.8z"/>
		<g id="Левая_рука__x28_копия_x29_">
			<path id="Левое_предплечье_00000133506819112135590070000004464729793017243307_" class="st1" d="M116.5,22.5
				c0,0.8-0.2,0.8-0.5,2.5c-0.2,1.1-0.1,1.3-0.3,2.6c-0.3,2-0.5,3-0.9,3.1c-0.6,0.1-1.3-1.1-1.6-1.6c-0.3-0.6-0.9-1.8-1.2-4
				c-0.2-2.3-0.4-3.6,0.5-4.6c0.6-0.7,1.8-1.4,2.7-1C116.5,20,116.5,22.2,116.5,22.5z"/>
			<path id="Левое_плечо_00000158021282230787359640000000370052181142124463_" class="st1" d="M125.7,15.4
				c0.9,1.3-1,4.1-1.2,4.4c-0.6,0.9-1.2,1.3-1.4,1.5c-0.2,0.1-0.8,0.5-2.2,0.9c-1.2,0.3-2.1,0.3-3.8,0.3c-2.6,0-2.9-0.2-3.2-0.5
				c-0.6-0.6-0.6-1.7-0.3-2.4c0.4-0.8,1.1-1,2.3-1.5c2-1,2-1.5,3.4-2.3C121.4,14.5,124.8,14.1,125.7,15.4z"/>
			<path id="Левый_кулак_00000150789415246228549030000007030490174613902518_" class="st1" d="M115.8,28.2
				c0.1,0.1,0.7,1,0.2,2.2c-0.4,1-1.4,1.5-2,1.5c-0.9,0.1-1.9-0.5-1.8-1.8c0.1-0.9,0.7-1.9,1.5-2.3
				C114.5,27.4,115.3,27.7,115.8,28.2z"/>
		</g>
		<g id="Левая_нога__x28_копия_x29_">
			<path id="Левое_бедро_00000112621049611402960290000014342829158486161837_" class="st2" d="M128.4,42.4
				c0.3,2.8,1,4.8,1.6,6.2c1.4,3,3,4.4,3.4,7.7c0.1,1.1,0.2,2.3-0.4,3.1c-1.2,1.5-4.3,1.2-6.3,0.2c-1.7-0.8-3-3.2-5.6-8
				c-1-1.8-2-3.8-2.6-6.5c-0.6-2.6-0.3-3.5-0.2-3.8c0.9-2.4,4.4-4.2,7.2-3C127.8,39.4,128.3,42.1,128.4,42.4z"/>
			<path id="Левая_голень_00000014610147562881004420000009722941441342783385_" class="st3" d="M125.3,57.8
				c0.7-2,2.5-1.8,7.3-5.8c0.7-0.6,1.2-1.1,1.6-0.9c0.9,0.4-0.3,3.6-0.4,8.5c0,2.8,0.3,4.9,0.4,5.5c0.9,5.3,1.3,7.9,2.5,10.2
				c0.2,0.4,0.6,1.1,0.3,1.6c-0.5,0.8-2.5,0.7-3.8-0.2c-1.1-0.7-1.4-1.9-1.6-2.5c-1.2-3.7-3.1-7.1-4.5-10.7
				C125.2,58.8,125.1,58.5,125.3,57.8z"/>
			<path id="Левая_стопа_00000102519530663832742300000012981859225225676176_" class="st3" d="M134.8,75
				c1.8,0.2,2,1.3,3.8,1.9c0.5,0.2,2.6,0.8,4.5,0.5c0.3-0.1,1.1-0.2,1.6,0.2c0.2,0.2,0.5,0.5,0.4,0.9c-0.1,0.8-1.8,1.2-2.5,1.3
				c-1.6,0.3-2,0-4.1,0.1c-1.9,0.1-3.9-0.1-5.8,0.2c-0.2,0-0.6,0.1-0.9-0.2c-0.4-0.4-0.1-1.2,0.4-2.6c0.6-1.6,0.9-1.9,1-2
				C133.3,75.1,133.8,74.8,134.8,75z"/>
		</g>
		<path id="Туловище_00000025432414389123255580000004066665624691030681_" class="st4" d="M118.7,34.3
			c0-1.3-0.1-0.5-0.7-8.5c-0.2-2.6-0.4-5.2,1-7.6c0.1-0.2,0.2-0.4,0.4-0.7c1.8-2.2,5.1-2.3,6.6-2.3c2.4-0.1,7,0.6,8.1,3.4
			c0.5,1.2,0.1,2.2-0.6,4.5c-0.7,2.3-1.2,4-1.6,5.3c-0.9,3.1-0.9,3.3-1.4,4.3c-0.6,1.3-1.1,2.2-2,3.7c-1.1,1.7-1.6,2.7-2.5,3.8
			c-1.7,2-3.3,4.1-4.9,3.8c-1.4-0.3-2.1-2.6-2.4-3.8C118.4,38,118.7,36.7,118.7,34.3z"/>
		<g id="Правая_нога__x28_копия_x29_">
			<path id="Правое_бедро_00000142175179109724960280000011290384814642040728_" class="st5" d="M121.3,61.3
				c2.2-1.4,0.6-4.8,1.7-10.1c1.3-6.4,5.1-9.4,3.4-12.1c-0.5-0.8-1.3-1.2-1.6-1.4c-2.5-1.2-6.2,0.2-8,2.4c-1.1,1.4-1.3,3.5-1.6,7.8
				c-0.2,3-0.4,5.2,0.3,8.1c0.5,2.2,1.2,5,3.3,5.7C118.7,61.6,120.1,62,121.3,61.3z"/>
			<path id="Правая_голень_00000036969961562584723940000004770415534403738005_" class="st3" d="M122.6,56.3
				c1.1,1.9-1.1,3.9-1,8.5c0,0.4,0,0.9-0.2,1.1c-0.8,0.6-2.9-1.7-6.1-4.1c-3-2.2-5.5-3.6-6.1-3.8c-8.4-4.3-9.4-4.6-9.4-4.6
				c-0.5-0.2-1.6-0.6-1.6-1.2c-0.1-0.8,1.2-1.8,2.4-2.1c1.8-0.6,3.5,0.2,5.1,0.8c3.9,1.5,2.8,0.3,13.5,3.8
				C121.6,55.4,122.2,55.6,122.6,56.3z"/>
			<path id="Правая_стопа_00000039819555158637851620000000210465977528557462_" class="st3" d="M101.1,51.3
				c-1.3,1.3-2.2,0.7-3.9,1.7c-0.4,0.3-2.2,1.4-3.3,3.2c-0.2,0.2-0.5,0.9-1.2,1.1c-0.3,0-0.7,0-0.9-0.2c-0.6-0.6,0.3-2.2,0.6-2.7
				c0.8-1.5,1.2-1.6,2.6-3.2c1.2-1.5,2.5-3,3.6-4.6c0.1-0.2,0.3-0.5,0.7-0.6c0.5,0,1,0.7,1.8,1.9c0.9,1.5,0.9,1.9,0.9,2
				C102,50,101.9,50.5,101.1,51.3z"/>
		</g>
		<g id="Правая_рука__x28_копия_x29_">
			<path id="Правое_плечо_00000049222644168540112800000001547277885927669153_" class="st1" d="M129.3,18.5
				c0.9-1.3,2.9-2.1,4.5-1.6c1.1,0.4,2,1.5,2.2,2.6c0.1,0.7,0,1.1-0.2,1.9c-0.2,0.8-0.8,3.6-0.2,6c0.5,2,1.5,2.3,1.3,3.5
				c-0.2,1.2-1.4,2.3-2.4,2.3c-0.3,0-1.4-0.2-3.3-4.5C129.1,24.2,127.6,20.8,129.3,18.5z"/>
			<path id="Правый_кулак_00000109710535198790086430000005386062440644630441_" class="st1" d="M143.6,27.9
				c0-0.1,0.6-1.6,2-1.8c1.1-0.1,2.1,0.8,2.4,1.5c0.6,1.1,0.5,2.8-0.7,3.6c-0.9,0.6-2.1,0.3-2.9-0.3
				C143.4,30.1,143.2,28.8,143.6,27.9z"/>
			<path id="Правое_предплечье_00000129176790019687910940000014727462474427606661_" class="st1" d="M137.3,27.3
				c2.3-0.5,2.6,0.2,7.5,0.6c1.4,0.1,2.1,0.1,2.4,0.6c0.4,0.7-0.7,2.2-2,2.9c-0.8,0.4-1.5,0.4-1.7,0.4c-4.3,0-6.9,2.7-8.7,1.4
				c-1.1-0.8-1.4-2.8-0.8-4C134.5,27.9,136,27.5,137.3,27.3z"/>
		</g>
		<g id="Пояс">
			<g>
				<path d="M119,39.1c2.5,0.6,5,1.2,7.6,1.8c0.8,0.2,1.7-0.2,1.9-1c0.2-0.8-0.2-1.7-1.1-1.8c-2.5-0.6-5-1.2-7.6-1.8
					c-0.8-0.2-1.7,0.2-1.8,1C117.8,38.1,118.2,38.9,119,39.1L119,39.1z"/>
			</g>
		</g>
	</g>
	<g id="Кадр1">
		<path id="Шея" class="st0" d="M47.9,16.9c-0.8-2.6,1.9-4.2,3.3-4.2c1.4,0,2.5,0.5,2.6,1.8s-0.6,3.4-1.9,3.7
			C50.5,18.4,48.4,18.5,47.9,16.9z"/>
		<path id="Голова" class="st1" d="M47.8,10.9c-0.3-2.6,1.7-4.6,1.9-4.8c0.3-0.3,2.5-2.3,5.2-1.5c2.5,0.7,3.4,3.3,3.6,4
			c1.1,3.2,0.2,7.6-2.3,8.4c-1.5,0.5-3.1-0.5-4.5-1.4C50.2,14.8,48.1,13.4,47.8,10.9z"/>
		<g id="Левая_рука">
			<path id="Левое_предплечье" class="st1" d="M33,22c-0.3,0.7-0.5,0.7-1.4,2.1c-0.6,1-0.6,1.1-1.3,2.3
				c-1,1.7-1.6,2.6-2,2.5c-0.6-0.1-0.8-1.5-0.9-2.1c-0.1-0.7-0.2-2,0.5-4.1c0.7-2.2,1.1-3.5,2.3-4.1c0.9-0.4,2.2-0.5,2.9,0.1
				C34,19.8,33.2,21.7,33,22z"/>
			<path id="Левое_плечо" class="st1" d="M43,14.7c0.9,1.3-1,4.1-1.2,4.4c-0.6,0.9-1.2,1.3-1.5,1.5
				c-0.2,0.1-0.8,0.5-2.2,0.9c-1.2,0.3-2.1,0.3-3.8,0.3c-2.6,0-2.9-0.2-3.2-0.5c-0.6-0.6-0.6-1.7-0.3-2.4c0.4-0.8,1.1-1,2.3-1.5
				c2-1,2-1.5,3.4-2.3C38.7,13.8,42.1,13.4,43,14.7z"/>
			<path id="Левый_кулак" class="st1" d="M31.2,27.5c0,0.1,0.7,1,0.2,2.2c-0.4,1-1.4,1.5-2,1.5c-0.9,0.1-1.9-0.5-1.8-1.8
				c0.1-0.9,0.7-1.9,1.5-2.3C30,26.7,30.8,26.9,31.2,27.5z"/>
		</g>
		<g id="Левая_нога">
			<path id="Левое_бедро_00000101818425025741348090000000655381625070069908_" class="st2" d="M47,40.4
				c1,2.6,2.2,4.4,3.2,5.5c2.1,2.5,4.1,3.5,5.4,6.5c0.4,1,0.8,2.1,0.4,3.1c-0.8,1.8-3.8,2.3-6,1.9c-1.9-0.3-3.8-2.3-7.5-6.2
				c-1.4-1.5-2.9-3.1-4.3-5.6c-1.3-2.4-1.2-3.3-1.2-3.6c0.3-2.6,3.1-5.2,6.1-4.8C45.6,37.7,46.9,40.1,47,40.4z"/>
			<path id="Левая_голень_00000057837103855705188620000005391208503494079167_" class="st3" d="M49,57.2
				c0.5-2,2.4-1.9,6.8-6.3c0.7-0.7,1.1-1.2,1.5-1c0.9,0.3-0.1,3.7,0.2,8.5c0.2,2.8,0.6,4.9,0.8,5.5c1.2,5.2,1.9,7.8,3.2,10.1
				c0.2,0.4,0.7,1.1,0.4,1.6c-0.4,0.8-2.4,0.9-3.8,0.1c-1.1-0.6-1.5-1.8-1.8-2.3c-1.4-3.6-3.6-6.8-5.2-10.3
				C49,58.2,48.8,57.9,49,57.2z"/>
			<path id="Левая_стопа_00000083065487386674616970000009331870928108683685_" class="st3" d="M60,74.5
				c1.8-0.2,2.2,0.8,4.1,1.1c0.5,0.1,2.7,0.3,4.5-0.4c0.3-0.1,1-0.4,1.6-0.1c0.2,0.1,0.6,0.4,0.6,0.8c0.1,0.8-1.6,1.5-2.2,1.8
				c-1.5,0.7-1.9,0.4-4,0.9c-1.9,0.4-3.8,0.7-5.7,1.3c-0.2,0.1-0.6,0.2-0.9,0c-0.4-0.3-0.3-1.1-0.2-2.6c0.2-1.7,0.5-2,0.6-2.1
				C58.6,75,59,74.6,60,74.5z"/>
		</g>
		<path id="Туловище" class="st4" d="M37.9,34.1c0-1.3-0.1-0.5-0.7-8.5c-0.2-2.6-0.4-5.2,1-7.6c0.1-0.2,0.2-0.4,0.5-0.7
			c1.8-2.2,5.1-2.3,6.6-2.3c2.4-0.1,7,0.6,8.1,3.4c0.5,1.2,0.1,2.2-0.6,4.5c-0.7,2.3-1.2,4-1.5,5.3c-0.8,3.1-0.9,3.3-1.4,4.3
			c-0.6,1.3-1.1,2.2-2,3.7c-1,1.7-1.6,2.7-2.5,3.8c-1.7,2-3.3,4.1-4.9,3.8c-1.4-0.3-2.1-2.6-2.4-3.8C37.5,37.8,37.8,36.5,37.9,34.1z
			"/>
		<g id="Правая_нога">
			<path id="Правое_бедро" class="st5" d="M37.2,60.7c2.4-1.1,1.3-4.7,3.1-9.8c2.1-6.1,6.3-8.6,5-11.5
				c-0.4-0.9-1.1-1.4-1.4-1.6c-2.3-1.6-6.1-0.7-8.3,1.3c-1.3,1.2-1.8,3.3-2.7,7.5c-0.6,3-1.1,5.1-0.8,8c0.2,2.2,0.5,5.2,2.4,6.1
				C34.6,60.7,35.9,61.3,37.2,60.7z"/>
			<path id="Правая_голень" class="st3" d="M35.7,54.4c1.9,1,1,3.7,3.3,7.5c0.2,0.3,0.5,0.7,0.3,1
				c-0.4,0.8-3.3-0.1-7-0.6c-3.6-0.5-6.3-0.4-6.9-0.4c-9.1,0.3-10.1,0.5-10.1,0.5c-0.5,0.1-1.6,0.2-1.9-0.3c-0.5-0.6,0.2-2,1-2.8
				c1.2-1.3,3-1.4,4.7-1.7c4-0.5,2.5-1,13.1-3C34.3,54.1,35,54,35.7,54.4z"/>
			<path id="Правая_стопа" class="st3" d="M16,60.1c-0.8,1.6-1.9,1.4-3.1,2.9c-0.3,0.4-1.7,2.1-2.1,4
				c-0.1,0.3-0.2,1.1-0.8,1.4c-0.2,0.1-0.6,0.2-0.9,0.1c-0.7-0.4-0.4-2.1-0.3-2.8c0.3-1.6,0.7-1.9,1.4-3.9c0.6-1.8,1.5-3.6,1.9-5.5
				c0.1-0.2,0.2-0.6,0.5-0.8c0.5-0.2,1.1,0.3,2.3,1.3c1.3,1.1,1.4,1.5,1.5,1.7C16.4,58.6,16.5,59.2,16,60.1z"/>
		</g>
		<g id="Правая_рука">
			<path id="Правое_плечо_00000095324174185796742330000011583053270163583902_" class="st1" d="M49.6,20.1
				c0.5-1.5,2.1-3,3.8-2.9c1.2,0,2.4,0.8,2.9,1.8c0.3,0.6,0.3,1.1,0.4,1.8c0.1,0.8,0.4,3.7,1.8,5.8c1.1,1.7,2.2,1.7,2.3,2.9
				c0.2,1.2-0.6,2.6-1.6,2.9c-0.3,0.1-1.4,0.3-4.6-3.2C51.3,25.6,48.7,22.8,49.6,20.1z"/>
			<path id="Правый_кулак_00000131349086595737274600000018236998777019692475_" class="st1" d="M66.7,25
				c0-0.1,0.6-1.6,2-1.8c1.2-0.1,2.1,0.8,2.4,1.5c0.6,1.1,0.5,2.8-0.7,3.6c-0.9,0.6-2.1,0.3-2.9-0.3C66.5,27.2,66.3,25.9,66.7,25z"
				/>
			<path id="Правое_предплечье_00000142155377419884467450000009348645900478857114_" class="st1" d="M59.3,26.4
				c2.2-0.8,2.6-0.1,7.5-0.4c1.4-0.1,2.1-0.2,2.4,0.2c0.5,0.7-0.4,2.3-1.6,3.1c-0.7,0.5-1.4,0.6-1.7,0.6c-4.3,0.5-6.5,3.6-8.5,2.6
				c-1.2-0.6-1.8-2.5-1.3-3.9C56.7,27.4,58,26.9,59.3,26.4z"/>
		</g>
		<g id="Пояс_00000006672300101815831140000015636376335001793923_">
			<g>
				<path d="M38.1,38.9c2.5,0.6,5,1.2,7.6,1.8c0.8,0.2,1.7-0.2,1.8-1c0.2-0.8-0.2-1.7-1-1.8c-2.5-0.6-5-1.2-7.6-1.8
					c-0.8-0.2-1.7,0.2-1.8,1C36.9,37.8,37.3,38.7,38.1,38.9L38.1,38.9z"/>
			</g>
		</g>
	</g>
</g>
<g id="Рамки" class="st6">
	<rect class="st7" width="80" height="80"/>
	<rect x="80" class="st7" width="80" height="80"/>
	<rect x="160" class="st7" width="80" height="80"/>
	<rect x="240" class="st7" width="80" height="80"/>
	<rect x="320" class="st7" width="80" height="80"/>
	<rect x="400" class="st7" width="80" height="80"/>
	<rect x="480" class="st7" width="80" height="80"/>
	<rect x="560" class="st7" width="80" height="80"/>
</g>
</svg>
