<?xml version="1.0" encoding="utf-8"?>
<!-- Generator: Adobe Illustrator 27.2.0, SVG Export Plug-In . SVG Version: 6.00 Build 0)  -->
<svg version="1.1" id="Слой_1" xmlns="http://www.w3.org/2000/svg" xmlns:xlink="http://www.w3.org/1999/xlink" x="0px" y="0px"
	 viewBox="0 0 640 80" style="enable-background:new 0 0 640 80;" xml:space="preserve">
<style type="text/css">
	.st0{fill:#FFA46A;stroke:#1D1D1B;stroke-width:0.5;stroke-miterlimit:10;}
	.st1{fill:#FFA46A;stroke:#000000;stroke-width:0.5;stroke-miterlimit:10;}
	.st2{fill:#004F55;stroke:#1D1D1B;stroke-width:0.5;stroke-miterlimit:10;}
	.st3{fill:#C96600;stroke:#7F0011;stroke-width:0.5;stroke-miterlimit:10;}
	.st4{fill:#1700D4;stroke:#1D1D1B;stroke-width:0.5;stroke-miterlimit:10;}
	.st5{fill:#C0D1DA;stroke:#1D1D1B;stroke-width:0.5;stroke-miterlimit:10;}
	.st6{display:none;}
	.st7{display:inline;fill:none;stroke:#1D1D1B;stroke-miterlimit:10;}
</style>
<g id="Кадры">
	<g id="Кадр8">
		<g id="Левая_рука__x28_копия2_x29_">
			<path id="Левое_предплечье_00000006698064709151589870000011567613533225908378_" class="st0" d="M604.9,26.2
				c0.8-0.1,0.8,0.1,2.5,0.2c1.2,0.1,1.3,0,2.7,0.1c2,0.1,3,0.2,3.1,0.6c0.2,0.5-1,1.4-1.4,1.8c-0.6,0.4-1.6,1.1-3.9,1.5
				c-2.3,0.5-3.6,0.7-4.7-0.1c-0.8-0.6-1.5-1.7-1.2-2.6C602.4,26.4,604.6,26.2,604.9,26.2z"/>
			<path id="Левое_плечо_00000093168460642434946590000013073311127764083359_" class="st0" d="M590.6,31.8
				c-0.6-1.5,1.8-3.8,2-4.1c0.8-0.7,1.5-1.1,1.7-1.1c0.2-0.1,0.9-0.4,2.3-0.4c1.2,0,2.1,0.1,3.8,0.5c2.5,0.5,2.9,0.8,3,1.1
				c0.4,0.7,0.3,1.8-0.2,2.4c-0.5,0.7-1.3,0.7-2.5,1.1c-2.1,0.6-2.2,1.1-3.7,1.6C594.7,33.5,591.3,33.3,590.6,31.8z"/>
			<path id="Левый_кулак_00000078005680046542315400000012342656048481864841_" class="st0" d="M612.2,26.8
				c0.2-0.5,0.8-0.7,1.4-0.9c0.6-0.2,0.9-0.3,1.3-0.2c1.1,0.2,1.7,1.4,1.8,1.6c0.2,0.4,0.5,1,0.2,1.6c-0.1,0.3-0.4,0.6-0.8,0.8
				c-0.9,0.4-2,0.2-2.7-0.2c-0.5-0.3-0.6-0.7-0.8-1.2C612.3,27.6,612.1,27.2,612.2,26.8z"/>
		</g>
		<path id="Шея_00000070827022175951989950000005036456466338241181_" class="st1" d="M589.5,26.8c-0.8-2.6,1.9-4.2,3.3-4.2
			c1.4,0,2.5,0.5,2.6,1.8c0.1,1.3-0.6,3.4-1.9,3.7S590,28.4,589.5,26.8z"/>
		<path id="Голова_00000076582687705915397860000004944562966653427375_" class="st0" d="M589.3,20.8
			c-0.3-2.6,1.7-4.6,1.9-4.8c0.3-0.3,2.5-2.3,5.2-1.5c2.5,0.7,3.4,3.3,3.6,4c1.1,3.2,0.1,7.6-2.3,8.4c-1.5,0.5-3.1-0.5-4.5-1.4
			S589.6,23.3,589.3,20.8z"/>
		<g id="Левая_нога__x28_копия2_x29_">
			<path id="Левое_бедро_00000142151346374605681440000012415950164605008824_" class="st2" d="M592,39.5
				c2.1,1.9,4,2.9,5.3,3.5c3,1.3,5.2,1.2,7.7,3.4c0.9,0.7,1.7,1.5,1.8,2.6c0.1,1.9-2.3,3.8-4.5,4.5c-1.8,0.5-4.4-0.3-9.5-2.1
				c-1.9-0.7-4-1.5-6.3-3.1c-2.2-1.5-2.6-2.4-2.7-2.7c-1-2.4,0.4-6.1,3.3-7C589.5,37.7,591.7,39.3,592,39.5z"/>
			<path id="Левая_голень_00000047020450472385577740000000767082802120972433_" class="st3" d="M603.1,45
				c2.1,0.2,2.3,2,7.3,5.7c0.8,0.5,1.3,0.9,1.2,1.3c-0.2,0.9-3.6,0.5-8.4,1.5c-2.7,0.6-4.7,1.4-5.3,1.6c-4.9,2.1-7.4,3.1-9.4,4.7
				c-0.4,0.3-1,0.8-1.5,0.6c-0.9-0.3-1.2-2.2-0.7-3.7c0.5-1.2,1.5-1.8,2-2.1c3.3-2,6.2-4.7,9.4-6.8C602.1,45.2,602.3,44.9,603.1,45z
				"/>
			<path id="Левая_стопа_00000081628999164282629820000003599840550504937856_" class="st3" d="M587.8,57.3
				c1.2,1.4,0.6,2.3,1.5,4c0.2,0.5,1.3,2.3,2.9,3.5c0.2,0.2,0.9,0.6,1,1.3c0,0.3,0,0.7-0.3,0.9c-0.6,0.5-2.1-0.4-2.7-0.8
				c-1.4-0.9-1.5-1.3-3.1-2.8c-1.5-1.3-2.8-2.7-4.4-3.9c-0.2-0.1-0.5-0.4-0.5-0.8c0-0.5,0.7-0.9,2-1.6c1.5-0.8,1.9-0.8,2.1-0.7
				C586.6,56.4,587.1,56.5,587.8,57.3z"/>
		</g>
		<path id="Туловище_00000173855905790062486080000002626209455112050590_" class="st4" d="M583.3,41.8
			c-0.4-2.5-0.4-4.3-0.7-8.5c-0.2-2.6-0.4-5.2,1-7.6c0.1-0.2,0.2-0.4,0.5-0.7c1.5-1.7,4.7-1,5.3-0.9c2.2,0.5,4.4,2.1,5.3,4.5
			c0.4,1,0.3,2.3,0.2,4.8c-0.2,3.3-0.8,5.6-1,6.2c-0.4,1.5-0.8,2.7-1.6,4.1c-0.9,1.5-2,3.3-3.8,3.5c-1.9,0.2-3.4-1.2-3.6-1.5
			C583.9,44.8,583.6,43.7,583.3,41.8z"/>
		<g id="Правая_нога__x28_копия2_x29_">
			<path id="Правое_бедро_00000058547484799472371100000004391689076218227335_" class="st5" d="M603.4,56.6
				c0.1-2.5-3.5-3.1-7.4-7.1c-3.9-4-4.4-7.8-7.8-8.3c-0.9-0.1-1.4,0-1.8,0.1c-2.4,0.8-3.8,4.3-3.2,7.1c0.4,1.7,2.1,3,5.5,5.7
				c2.4,1.9,4.1,3.3,6.8,4.3c2,0.8,4.8,1.9,6.5,0.5C602.2,58.9,603.4,58,603.4,56.6z"/>
			<path id="Правая_голень_00000147177795610160029960000005740472459643545506_" class="st3" d="M597.4,60.2
				c0.2-2.1,3-2.4,5.5-6c0.2-0.3,0.5-0.7,0.8-0.7c0.9,0,1.2,3,2.3,6.7c1,3.5,2.2,5.9,2.5,6.4c4,8.1,4.6,9,4.6,9
				c0.3,0.4,0.9,1.3,0.5,1.9c-0.4,0.7-1.9,0.6-3,0.3c-1.7-0.6-2.5-2.1-3.5-3.6c-2.1-3.4-1.9-1.8-8.2-10.7
				C597.7,61.5,597.4,61,597.4,60.2z"/>
			<path id="Правая_стопа_00000124851566515796409230000005033901776073983393_" class="st3" d="M611.1,74.4
				c0.4,0,0.7,0.1,0.9,0.2c1.6,0.7,2,1.6,2.9,1.7c0.4,0,1-0.2,1.8-1.3c0.1,0,1.3-0.3,1.7,0.3c0.5,0.6-0.2,1.8-0.5,2.3
				c-0.5,0.9-1.2,1.4-1.4,1.5c-1.7,1.2-3.8,0.9-4.7,0.8c-1.3-0.2-1.5-0.5-2.9-0.5c-0.4,0-0.7,0-0.9-0.2c-0.4-0.4-0.1-1.2,0.4-2.6
				c0.5-1.6,0.9-1.9,1-2C609.6,74.6,610.1,74.3,611.1,74.4z"/>
		</g>
		<g id="Правая_рука__x28_копия2_x29_">
			<path id="Правое_плечо_00000016044388489514287220000001411478192693330111_" class="st0" d="M584.8,25.8
				c1.5,0.2,3.1,1.6,3.5,3.4c0.2,1.2-0.2,2.6-1,3.3c-0.5,0.5-0.9,0.5-1.6,0.8c-0.7,0.2-3.3,1-5,2.8c-1.4,1.5-1.1,2.5-2.2,2.9
				c-1.1,0.4-2.5-0.1-3-1.1c-0.1-0.3-0.6-1.4,2-5.3C580.1,28.5,582.2,25.4,584.8,25.8z"/>
			<path id="Правый_кулак_00000114035132420125591670000003398476549004011166_" class="st0" d="M578.8,46.9
				c0.1,0.1,1.3,1,1,2.5c-0.2,1.2-1.3,1.9-2.1,2c-1.2,0.3-2.7-0.3-3-1.7c-0.2-1.1,0.3-2.2,1.2-2.8C576.9,46.2,578.1,46.3,578.8,46.9
				z"/>
			<path id="Правое_предплечье_00000051361281037332719250000007689246183850865818_" class="st0" d="M580.7,39.7
				c0.2,2-0.5,2.2-1.5,6.3c-0.3,1.2-0.3,1.8-0.8,1.9c-0.7,0.2-2-0.9-2.4-2.1c-0.2-0.7-0.1-1.3-0.1-1.5c0.5-3.7-1.7-6.3-0.3-7.7
				c0.9-0.8,2.7-0.8,3.8-0.1C580.4,37.2,580.6,38.5,580.7,39.7z"/>
		</g>
		<g id="Пояс_00000003078339703940555300000016225327935539430847_">
			<g>
				<path d="M584.9,43.6c2.6-0.2,5.2-0.4,7.8-0.6c0.8-0.1,1.5-0.7,1.5-1.5s-0.7-1.6-1.5-1.5c-2.6,0.2-5.2,0.4-7.8,0.6
					c-0.8,0.1-1.5,0.7-1.5,1.5C583.4,42.8,584.1,43.7,584.9,43.6L584.9,43.6z"/>
			</g>
		</g>
	</g>
	<g id="Кадр7">
		<path id="Шея_00000047049866576124554190000016044621332869765529_" class="st1" d="M513.9,30.1c-0.8-2.6,1.9-4.2,3.3-4.2
			c1.4,0,2.5,0.5,2.6,1.8c0.1,1.3-0.6,3.4-1.9,3.7C516.6,31.6,514.5,31.7,513.9,30.1z"/>
		<path id="Голова_00000080169454372227032180000013459931837950945440_" class="st0" d="M513.8,24.1
			c-0.3-2.6,1.7-4.6,1.9-4.8c0.3-0.3,2.5-2.3,5.2-1.5c2.5,0.7,3.4,3.3,3.6,4c1.1,3.2,0.1,7.6-2.3,8.4c-1.5,0.5-3.1-0.5-4.5-1.4
			S514.1,26.6,513.8,24.1z"/>
		<g id="Левая_рука__x28_копия4_x29_">
			<path id="Левое_предплечье_00000075846214802219646550000008786391154439875508_" class="st0" d="M526.1,37.3
				c0.8-0.1,0.8,0.1,2.5,0.2c1.2,0.1,1.3,0,2.7,0.1c2,0.1,3,0.2,3.1,0.6c0.2,0.5-1,1.4-1.4,1.8c-0.6,0.4-1.6,1.1-3.9,1.5
				c-2.3,0.5-3.6,0.7-4.7-0.1c-0.8-0.6-1.5-1.7-1.2-2.6C523.7,37.5,525.8,37.3,526.1,37.3z"/>
			<path id="Левое_плечо_00000134939005336089639870000009570431394494709914_" class="st0" d="M513.5,32.5
				c0.7-1.4,4-1.2,4.4-1.1c1.1,0.1,1.8,0.4,2,0.5s0.9,0.4,1.9,1.5c0.8,0.9,1.3,1.7,2.2,3.2c1.3,2.2,1.3,2.7,1.2,3
				c-0.2,0.8-1.1,1.4-2,1.5c-0.9,0.1-1.4-0.5-2.5-1.2c-1.9-1.2-2.3-0.9-3.7-1.8C514.9,36.6,512.8,33.9,513.5,32.5z"/>
			<path id="Левый_кулак_00000076582426981201256420000001570729523786793650_" class="st0" d="M531.4,36
				c0.2-0.5,0.8-0.7,1.4-0.9c0.6-0.2,0.9-0.3,1.3-0.2c1.1,0.2,1.7,1.4,1.8,1.7c0.2,0.4,0.5,1,0.2,1.7c-0.1,0.3-0.4,0.6-0.8,0.8
				c-0.9,0.4-2,0.2-2.7-0.2c-0.5-0.3-0.6-0.7-0.8-1.2C531.5,36.9,531.3,36.4,531.4,36z"/>
		</g>
		<g id="Левая_нога__x28_копия4_x29_">
			<path id="Левое_бедро_00000090262294940312986430000008514825281583133319_" class="st2" d="M516.5,42.8
				c2.1,1.9,4,2.9,5.3,3.5c3,1.3,5.2,1.2,7.7,3.4c0.9,0.7,1.7,1.5,1.8,2.6c0.1,1.9-2.3,3.8-4.5,4.5c-1.8,0.5-4.4-0.3-9.5-2.1
				c-1.9-0.7-4-1.5-6.3-3.1c-2.2-1.5-2.6-2.4-2.7-2.7c-1-2.4,0.4-6.1,3.3-7C514,41,516.2,42.6,516.5,42.8z"/>
			<path id="Левая_голень_00000005981422961946603140000004220418253953896621_" class="st3" d="M527.6,48.3
				c2.1,0.2,2.3,2,7.3,5.7c0.8,0.5,1.3,0.9,1.2,1.3c-0.2,0.9-3.6,0.5-8.4,1.5c-2.7,0.6-4.7,1.4-5.3,1.6c-4.9,2.1-7.4,3.1-9.4,4.7
				c-0.4,0.3-1,0.8-1.5,0.6c-0.9-0.3-1.2-2.2-0.7-3.7c0.5-1.2,1.5-1.8,2-2.1c3.3-2,6.2-4.7,9.4-6.8
				C526.6,48.5,526.8,48.2,527.6,48.3z"/>
			<path id="Левая_стопа_00000101793256118684556070000007516415392481171855_" class="st3" d="M512.3,60.6
				c1.2,1.4,0.6,2.3,1.5,4c0.2,0.5,1.3,2.3,2.9,3.5c0.2,0.2,0.9,0.6,1,1.3c0,0.3,0,0.7-0.3,0.9c-0.6,0.5-2.1-0.4-2.7-0.8
				c-1.4-0.9-1.5-1.3-3.1-2.8c-1.5-1.3-2.8-2.7-4.4-3.9c-0.2-0.1-0.5-0.4-0.5-0.8c0-0.5,0.7-0.9,2-1.6c1.5-0.8,1.9-0.8,2.1-0.7
				C511.1,59.7,511.6,59.8,512.3,60.6z"/>
		</g>
		<path id="Туловище_00000019656392199005774670000017502154937599480725_" class="st4" d="M507.8,45.2
			c-0.4-2.5-0.4-4.3-0.7-8.5c-0.2-2.6-0.4-5.2,1-7.6c0.1-0.2,0.2-0.4,0.5-0.7c1.5-1.7,4.6-1,5.3-0.9c1.1,0.2,4.6,1.2,6,4.3
			c0.7,1.6,0.5,3,0.1,5.4c-0.2,1.5-0.7,2.9-1.6,5.7c-0.7,2.1-1.1,3.2-1.6,4.1c-0.9,1.5-2,3.3-3.8,3.5c-1.9,0.2-3.4-1.2-3.6-1.5
			C508.4,48.1,508.1,47,507.8,45.2z"/>
		<g id="Правая_нога__x28_копия4_x29_">
			<path id="Правое_бедро_00000085968228634824374140000016817535117547397035_" class="st5" d="M530.3,58.3
				c-0.4-2.6-4.1-2.5-8.6-5.6c-5.3-3.7-6.6-8.4-9.8-7.9c-1,0.1-1.6,0.7-1.9,0.9c-2.2,1.8-2.3,5.7-1,8.3c0.8,1.6,2.7,2.6,6.5,4.6
				c2.7,1.4,4.6,2.4,7.5,3c2.2,0.4,5.1,0.9,6.5-0.7C529.6,60.8,530.5,59.7,530.3,58.3z"/>
			<path id="Правая_голень_00000114031252927187510710000002203902772795449505_" class="st3" d="M524.2,54.4
				c1.9-0.9,3.6,1.4,8,1.7c0.4,0,0.8,0,1,0.3c0.4,0.8-2,2.6-4.6,5.3c-2.5,2.6-4,4.9-4.3,5.4c-5,7.5-5.5,8.4-5.5,8.4
				c-0.2,0.5-0.7,1.4-1.4,1.4c-0.8,0-1.5-1.3-1.7-2.5c-0.4-1.8,0.6-3.3,1.4-4.8c1.9-3.6,0.6-2.6,5.2-12.4
				C523.2,55.3,523.5,54.8,524.2,54.4z"/>
			<path id="Правая_стопа_00000088817087506962409070000002602165463389689228_" class="st3" d="M518.5,72.8
				c0.2,0.3,0.2,0.7,0.3,0.9c0.2,1.8-0.4,2.8,0,3.3c0.2,0.2,0.8,0.3,2.2-0.2c0.1,0.1,0.7,0.9,0.5,1.7c-0.2,0.8-1.2,1.1-1.8,1.3
				c-0.3,0.1-1.4,0.4-2.5,0.1c-1.8-0.6-2.6-2.5-3.1-3.7s-0.3-1.6-1-2.7c-0.2-0.4-0.4-0.6-0.3-0.9c0.1-0.5,1-0.7,2.4-1
				c1.7-0.3,2.1-0.2,2.2-0.1C517.6,71.6,518.1,71.8,518.5,72.8z"/>
		</g>
		<g id="Правая_рука__x28_копия4_x29_">
			<path id="Правое_плечо_00000093879249702338437960000015101391909553259138_" class="st0" d="M510.9,27.4
				c1.4,0.5,2.8,2.1,2.8,3.9c0,1.2-0.7,2.5-1.6,3.1c-0.6,0.4-1,0.4-1.7,0.5c-0.8,0.1-3.5,0.5-5.4,1.9c-1.6,1.2-1.5,2.3-2.7,2.5
				c-1.1,0.2-2.5-0.6-2.8-1.6c-0.1-0.3-0.3-1.5,2.9-4.8C505.8,29.2,508.4,26.5,510.9,27.4z"/>
			<path id="Правый_кулак_00000158009195496368321550000001223107824684551079_" class="st0" d="M501.5,45.1
				c0.1,0.1,1.2,1.2,0.7,2.6c-0.4,1.2-1.5,1.7-2.4,1.7c-1.2,0.1-2.6-0.7-2.7-2.1c-0.1-1.1,0.6-2.2,1.6-2.7
				C499.7,44.2,500.9,44.5,501.5,45.1z"/>
			<path id="Правое_предплечье_00000059294923134850182610000005461412936925049014_" class="st0" d="M503.9,39.7
				c-0.1,2-0.9,2.1-2.3,6c-0.4,1.1-0.6,1.7-1.1,1.8c-0.8,0.1-1.8-1.2-2.1-2.5c-0.1-0.8,0-1.3,0.1-1.5c1.1-3.5-0.8-6.5,0.8-7.6
				c1-0.7,2.8-0.4,3.8,0.5C504,37.3,504,38.6,503.9,39.7z"/>
		</g>
		<g id="Пояс_00000022528186300084029310000004436847900243728780_">
			<g>
				<path d="M509.1,47c2.6-0.2,5.2-0.4,7.8-0.6c0.8-0.1,1.5-0.7,1.5-1.5s-0.7-1.6-1.5-1.5c-2.6,0.2-5.2,0.4-7.8,0.6
					c-0.8,0.1-1.5,0.7-1.5,1.5S508.3,47.1,509.1,47L509.1,47z"/>
			</g>
		</g>
	</g>
	<g id="Кадр6">
		<path id="Шея_00000060029341582207252600000014340064110293620374_" class="st1" d="M433,32.1c-0.8-2.6,1.9-4.2,3.3-4.2
			c1.4,0,2.5,0.5,2.6,1.8s-0.6,3.4-1.9,3.7S433.5,33.7,433,32.1z"/>
		<path id="Голова_00000170263291860893033300000005428988850180141745_" class="st0" d="M432.9,26.1
			c-0.3-2.6,1.7-4.6,1.9-4.8c0.3-0.3,2.5-2.3,5.2-1.5c2.5,0.7,3.4,3.3,3.6,4c1.1,3.2,0.1,7.6-2.3,8.4c-1.5,0.5-3.1-0.5-4.5-1.4
			C435.3,29.9,433.2,28.6,432.9,26.1z"/>
		<g id="Левая_рука__x28_копия_x29_">
			<path id="Левое_предплечье_00000026877890336824073900000011987992992985359542_" class="st0" d="M439.8,41.5
				c0.8-0.1,0.8,0.1,2.5,0.2c1.2,0.1,1.3,0,2.7,0.1c2,0.1,3,0.2,3.1,0.6c0.2,0.5-1,1.4-1.4,1.8c-0.6,0.4-1.6,1.1-3.9,1.6
				s-3.6,0.7-4.7,0c-0.8-0.5-1.6-1.7-1.3-2.6C437.3,41.8,439.5,41.6,439.8,41.5z"/>
			<path id="Левое_плечо_00000142145555999478037680000005245748994974641290_" class="st0" d="M432.1,32.3
				c1.2-1,4.2,0.5,4.5,0.7c0.9,0.5,1.5,1.1,1.6,1.3s0.6,0.7,1.1,2.1c0.4,1.1,0.5,2,0.7,3.8c0.3,2.6,0.1,3-0.1,3.2
				c-0.5,0.6-1.6,0.8-2.4,0.5s-1.1-1-1.8-2.1c-1.2-1.8-1.8-1.8-2.7-3.1C431.7,36.7,430.9,33.4,432.1,32.3z"/>
			<path id="Левый_кулак_00000074414070836395420510000005306890021011627649_" class="st0" d="M445.1,40.2
				c0.2-0.5,0.8-0.7,1.4-0.9s0.9-0.3,1.3-0.2c1.1,0.2,1.7,1.4,1.8,1.6c0.2,0.4,0.5,1,0.2,1.7c-0.1,0.3-0.4,0.6-0.8,0.8
				c-0.9,0.4-2,0.2-2.7-0.2c-0.5-0.3-0.6-0.7-0.8-1.2C445.1,41.1,444.9,40.7,445.1,40.2z"/>
		</g>
		<g id="Левая_нога__x28_копия_x29_">
			<path id="Левое_бедро_00000158740481307760875170000003124851212101606311_" class="st2" d="M435.5,44.8
				c2.1,1.9,4,2.9,5.3,3.5c3,1.3,5.2,1.2,7.7,3.4c0.9,0.7,1.7,1.5,1.8,2.6c0.1,1.9-2.3,3.8-4.5,4.5c-1.8,0.5-4.4-0.3-9.5-2.1
				c-1.9-0.7-4-1.5-6.3-3.1c-2.2-1.5-2.6-2.4-2.7-2.7c-0.9-2.4,0.4-6.1,3.3-7C433,43,435.3,44.6,435.5,44.8z"/>
			<path id="Левая_голень_00000016052650445050059460000011217727552336203148_" class="st3" d="M446.6,50.3
				c2.1,0.2,2.3,2,7.3,5.7c0.8,0.5,1.3,0.9,1.2,1.3c-0.2,0.9-3.6,0.5-8.4,1.5c-2.7,0.6-4.7,1.4-5.3,1.6c-4.9,2.1-7.4,3.1-9.4,4.7
				c-0.4,0.3-1,0.8-1.5,0.6c-0.9-0.3-1.2-2.2-0.7-3.7c0.5-1.2,1.5-1.8,2-2.1c3.3-2,6.2-4.7,9.4-6.8
				C445.7,50.5,445.9,50.2,446.6,50.3z"/>
			<path id="Левая_стопа_00000170239335980240705950000001420646828231630214_" class="st3" d="M431.3,62.6
				c1.2,1.4,0.6,2.3,1.5,4c0.2,0.5,1.3,2.3,2.9,3.5c0.2,0.2,0.9,0.6,1,1.3c0,0.3,0,0.7-0.3,0.9c-0.6,0.5-2.1-0.4-2.7-0.8
				c-1.4-0.9-1.5-1.3-3.1-2.8c-1.4-1.3-2.8-2.7-4.4-3.9c-0.2-0.1-0.5-0.4-0.5-0.8c0-0.5,0.7-0.9,2-1.6c1.5-0.8,1.9-0.8,2.1-0.7
				C430.1,61.7,430.7,61.8,431.3,62.6z"/>
		</g>
		<path id="Туловище_00000114784458004777710820000015850556346898689176_" class="st4" d="M426.9,47.2
			c-0.4-2.5-0.4-4.3-0.7-8.5c-0.2-2.6-0.4-5.2,1-7.6c0.1-0.2,0.2-0.4,0.4-0.7c1.5-1.6,4.4-1.1,5.2-0.9h0.1c0.7,0.2,4.9,1.2,6.3,4.1
			c0.6,1.2,0.3,2.8-0.2,5.7c-0.4,2.2-0.4,2-1.6,5.5c-1,3-1.4,3.7-1.6,4.1c-0.9,1.5-1.9,3.3-3.8,3.5c-1.9,0.2-3.4-1.2-3.6-1.5
			C427.5,50.1,427.2,49,426.9,47.2z"/>
		<g id="Правая_нога__x28_копия_x29_">
			<path id="Правое_бедро_00000162341659381094664080000015849866747810488239_" class="st5" d="M447.2,62.6
				c0.1-2.6-3.6-3.2-7.4-7.1c-4.5-4.7-4.9-9.5-8.1-9.6c-1,0-1.7,0.4-2.1,0.6c-2.5,1.4-3.4,5.2-2.6,8c0.5,1.7,2.1,3,5.5,5.7
				c2.4,1.9,4.1,3.3,6.8,4.3c2.1,0.8,4.8,1.9,6.6,0.6C446,64.9,447.1,64,447.2,62.6z"/>
			<path id="Правая_голень_00000143616376299048386000000013040431427071784325_" class="st3" d="M441.3,57.4
				c2.1-0.2,2.9,2.4,7,4.1c0.4,0.2,0.8,0.3,0.8,0.6c0.1,0.9-2.7,1.8-6.1,3.6c-3.2,1.7-5.4,3.4-5.8,3.7c-7.2,5.6-7.9,6.3-7.9,6.3
				c-0.4,0.4-1.1,1.1-1.7,0.9c-0.7-0.2-1-1.8-0.9-2.9c0.2-1.8,1.6-2.9,2.8-4.1c3-2.8,1.4-2.3,8.9-10.1C440,58,440.5,57.5,441.3,57.4
				z"/>
			<path id="Правая_стопа_00000126297424847075668540000016501093800201535126_" class="st3" d="M430,73c0,0.4,0,0.7,0,1
				c-0.3,1.8-1.3,2.6-1.1,3.1c0.1,0.3,0.6,0.6,2.1,0.5c0.1,0.2,0.4,1.1-0.1,1.7c-0.5,0.7-1.4,0.7-2.1,0.7c-0.3,0-1.4,0-2.4-0.7
				c-1.5-1.1-1.6-3.2-1.7-4.5c-0.1-1.3,0.2-1.6-0.1-2.9c-0.1-0.4-0.2-0.7,0-0.9c0.3-0.4,1.1-0.3,2.6-0.2c1.7,0.2,2,0.5,2.1,0.6
				C429.5,71.6,429.9,72,430,73z"/>
		</g>
		<g id="Правая_рука__x28_копия_x29_">
			<path id="Правое_плечо_00000113317298038235031890000008777639892920717243_" class="st0" d="M432.9,30.1
				c1.2,0.9,1.9,2.9,1.3,4.6c-0.4,1.2-1.5,2.1-2.6,2.4c-0.7,0.2-1.1,0-1.8-0.2c-0.7-0.2-3.4-0.7-5.8,0c-1.9,0.6-2.2,1.7-3.4,1.4
				c-1.1-0.2-2.1-1.4-2.1-2.5c0-0.3,0.2-1.5,4.4-3.6C427.4,30.1,430.8,28.4,432.9,30.1z"/>
			<path id="Правый_кулак_00000140702226266932108510000008868676381573848505_" class="st0" d="M422.4,42.8
				c0.1,0.1,1.3,1.1,0.9,2.5c-0.3,1.2-1.4,1.8-2.2,2c-1.2,0.2-2.7-0.4-2.9-1.8c-0.2-1.1,0.4-2.2,1.3-2.8
				C420.5,42,421.6,42.3,422.4,42.8z"/>
			<path id="Правое_предплечье_00000177445095001929618440000010478680068872286860_" class="st0" d="M424.2,37.2
				c0.1,2-0.6,2.2-1.7,6.3c-0.3,1.2-0.4,1.8-0.9,1.9c-0.7,0.2-1.9-1-2.3-2.2c-0.2-0.7-0.1-1.3-0.1-1.5c0.7-3.6-1.4-6.4,0-7.7
				c0.9-0.8,2.8-0.7,3.8,0.1C424,34.8,424.1,36.1,424.2,37.2z"/>
		</g>
		<g id="Пояс_00000101064366354291919670000003451566767690820530_">
			<g>
				<path d="M428.2,49c2.6-0.2,5.2-0.4,7.8-0.6c0.8-0.1,1.5-0.7,1.5-1.5s-0.7-1.6-1.5-1.5c-2.6,0.2-5.2,0.4-7.8,0.6
					c-0.8,0.1-1.5,0.7-1.5,1.5S427.3,49.1,428.2,49L428.2,49z"/>
			</g>
		</g>
	</g>
	<g id="Кадр5_00000022558289744756088250000014465887697487814282_">
		<path id="Шея_00000003085263043171061270000017767333421805688221_" class="st1" d="M348.5,30c-0.8-2.6,1.9-4.2,3.3-4.2
			c1.4,0,2.5,0.5,2.6,1.8c0.1,1.3-0.6,3.4-1.9,3.7C351.1,31.5,349,31.7,348.5,30z"/>
		<path id="Голова_00000047026691851222384630000009878195104008174496_" class="st0" d="M348.3,24c-0.3-2.6,1.7-4.6,1.9-4.8
			c0.3-0.3,2.5-2.3,5.2-1.5c2.5,0.7,3.4,3.3,3.6,4c1.1,3.2,0.2,7.6-2.3,8.4c-1.5,0.5-3.1-0.5-4.5-1.4
			C350.8,27.9,348.6,26.5,348.3,24z"/>
		<g id="Левая_рука__x28_копия3_x29_">
			<path id="Левое_предплечье_00000042006637309841915350000010966752543156321698_" class="st0" d="M350.7,40.3
				c0.8,0.2,0.7,0.4,2.2,1.2c1,0.5,1.2,0.5,2.4,1.1c1.8,0.9,2.7,1.3,2.7,1.8c0,0.6-1.5,0.9-2,1.1c-0.7,0.2-1.9,0.4-4.2,0
				c-2.3-0.5-3.6-0.7-4.3-1.8c-0.5-0.8-0.8-2.2-0.2-2.9C348.3,39.6,350.4,40.2,350.7,40.3z"/>
			<path id="Левое_плечо_00000106845372762161752380000012659303788088013952_" class="st0" d="M347.2,28.8
				c1.5-0.5,3.6,2.1,3.9,2.4c0.7,0.8,0.9,1.6,1,1.8s0.3,0.9,0.2,2.4c-0.1,1.2-0.3,2.1-0.8,3.8c-0.7,2.5-1,2.8-1.3,2.9
				c-0.7,0.4-1.8,0.1-2.4-0.4c-0.6-0.6-0.6-1.3-0.8-2.6c-0.4-2.2-0.9-2.3-1.3-3.9C345.1,32.7,345.6,29.3,347.2,28.8z"/>
			<path id="Левый_кулак_00000166642047057388118060000008676659647763323541_" class="st0" d="M356.1,41.2
				c0.4-0.4,1-0.3,1.7-0.3c0.6,0,0.9,0,1.3,0.3c1,0.6,1,2,1,2.2c0,0.4,0,1.1-0.5,1.6c-0.3,0.2-0.6,0.4-1.1,0.4
				c-0.9,0-1.9-0.5-2.4-1.3c-0.3-0.4-0.3-0.9-0.3-1.4C355.8,42,355.8,41.5,356.1,41.2z"/>
		</g>
		<g id="Левая_нога__x28_копия3_x29_">
			<path id="Левое_бедро_00000114063830338861203650000012298784519125965698_" class="st2" d="M351.6,44.8
				c2.1,1.9,4,2.9,5.3,3.5c3,1.3,5.2,1.2,7.7,3.4c0.9,0.7,1.7,1.5,1.8,2.6c0.1,1.9-2.3,3.8-4.5,4.5c-1.8,0.5-4.4-0.3-9.5-2.1
				c-1.9-0.7-4-1.5-6.3-3.1c-2.2-1.5-2.6-2.4-2.7-2.7c-0.9-2.4,0.4-6.1,3.3-7C349.1,43,351.3,44.6,351.6,44.8z"/>
			<path id="Левая_голень_00000162329361201250308930000014892542660563060368_" class="st3" d="M364.7,50.3
				c2,0.6,1.9,2.4,6.1,7c0.6,0.7,1.1,1.2,1,1.5c-0.3,0.9-3.6-0.2-8.5,0c-2.8,0.1-4.9,0.5-5.5,0.6c-5.2,1.1-7.9,1.7-10.1,2.9
				c-0.4,0.2-1.1,0.6-1.6,0.3c-0.8-0.4-0.8-2.4,0-3.8c0.7-1.1,1.8-1.5,2.4-1.7c3.6-1.3,6.9-3.4,10.5-4.9
				C363.7,50.3,364,50.1,364.7,50.3z"/>
			<path id="Левая_стопа_00000110465936324612745200000006641381721387474098_" class="st3" d="M347.5,58.9
				c1.2,1.4,0.6,2.3,1.5,4c0.2,0.5,1.3,2.3,2.9,3.5c0.2,0.2,0.9,0.6,1,1.3c0,0.3,0,0.7-0.3,0.9c-0.6,0.5-2.1-0.4-2.7-0.8
				c-1.4-0.9-1.5-1.3-3.1-2.8c-1.4-1.3-2.8-2.7-4.4-3.9c-0.2-0.1-0.5-0.4-0.5-0.8c0-0.5,0.7-0.9,2-1.6c1.5-0.8,1.9-0.8,2.1-0.7
				C346.3,58,346.8,58.1,347.5,58.9z"/>
		</g>
		<path id="Туловище_00000061448922698226531340000017568753999179017622_" class="st4" d="M342.3,45.1
			c-0.4-2.5-0.4-4.3-0.7-8.5c-0.2-2.6-0.4-5.2,1-7.6c0.1-0.2,0.2-0.4,0.4-0.7c1.6-1.8,4.9-1,5.3-0.9c3.5,0.9,5.1,4.2,5.2,4.6
			c0.8,1.8,0.8,3.3,0.7,4.6c0,1.8-0.5,3.2-1.5,6.2c-0.7,2-1,3.1-1.6,4.1c-0.9,1.5-1.9,3.3-3.8,3.5c-1.9,0.2-3.4-1.2-3.6-1.5
			C342.9,48.1,342.6,46.9,342.3,45.1z"/>
		<g id="Правая_нога__x28_копия3_x29_">
			<path id="Правое_бедро_00000134939496896375270360000017764008243307615383_" class="st5" d="M361.5,62.6
				c0.5-2.5-3.1-3.7-6.3-8.1c-3.8-5.3-3.5-10.1-6.6-10.7c-1-0.2-1.8,0.1-2.1,0.3c-2.6,1-4.1,4.6-3.7,7.5c0.2,1.8,1.7,3.3,4.6,6.5
				c2.1,2.2,3.6,3.8,6.1,5.3c1.9,1.1,4.5,2.6,6.4,1.5C360,64.7,361.3,64,361.5,62.6z"/>
			<path id="Правая_голень_00000079445005851659945080000017072080502350128557_" class="st3" d="M355.9,56.9
				c2.1-0.5,3.3,2,7.6,3c0.4,0.1,0.8,0.2,0.9,0.5c0.3,0.8-2.4,2.2-5.4,4.5c-2.9,2.2-4.8,4.2-5.2,4.5c-6.3,6.6-6.9,7.4-6.9,7.4
				c-0.3,0.4-0.9,1.3-1.6,1.2c-0.8-0.1-1.2-1.6-1.3-2.7c0-1.8,1.1-3.1,2.2-4.5c2.5-3.2,1.1-2.5,7.3-11.3
				C354.8,57.6,355.1,57.1,355.9,56.9z"/>
			<path id="Правая_стопа_00000082368872367628175180000001182762890304286360_" class="st3" d="M347.4,72.9
				c0.3,0.3,0.4,0.6,0.6,0.8c1.1,1.8,1.2,2,1.4,2.3c0.3,0.4,0.9,0.9,2,1.2c0.1,0.1,1,0.4,1,1c0,0.7-1,1.1-1.6,1.3
				c-0.4,0.2-1.2,0.5-2.3,0.4c-2-0.2-3.4-1.7-4.1-2.4c-0.9-0.9-0.8-1.3-1.8-2.2c-0.3-0.3-0.6-0.4-0.6-0.7c0-0.5,0.7-1,1.9-1.7
				c1.5-0.9,1.9-0.9,2.1-0.8C346.1,72,346.7,72.1,347.4,72.9z"/>
		</g>
		<g id="Пояс_00000054972986698720081960000007507324924498221245_">
			<g>
				<path d="M343.6,47.9c2.5-0.6,5.1-1.1,7.6-1.7c0.8-0.2,1.3-1.1,1.1-1.8c-0.3-0.8-1-1.2-1.8-1c-2.5,0.6-5.1,1.1-7.6,1.7
					c-0.8,0.2-1.3,1.1-1.1,1.8C342,47.6,342.8,48,343.6,47.9L343.6,47.9z"/>
			</g>
		</g>
		<g id="Правая_рука__x28_копия3_x29_">
			<path id="Правое_плечо_00000179640028807571552480000002278452821853640857_" class="st0" d="M343.9,28.2
				c1.3-0.7,3.5-0.5,4.8,0.7c0.9,0.9,1.3,2.2,1.1,3.3c-0.1,0.7-0.4,1-0.9,1.6c-0.4,0.6-2.1,2.8-2.4,5.2c-0.3,2,0.6,2.7-0.1,3.7
				c-0.6,0.9-2.1,1.4-3.1,0.9c-0.3-0.2-1.3-0.8-1.4-5.5C341.6,33.1,341.5,29.4,343.9,28.2z"/>
			<path id="Правый_кулак_00000167389138108134014090000009565346635605177017_" class="st0" d="M351.1,43.1
				c0.1,0,1.5-0.7,2.7,0.2c1,0.7,1.1,2,0.9,2.8c-0.3,1.2-1.5,2.3-2.9,1.9c-1.1-0.3-1.8-1.3-2-2.3C349.6,44.4,350.3,43.5,351.1,43.1z
				"/>
			<path id="Правое_предплечье_00000008852792981884709300000007370870949504322213_" class="st0" d="M346.7,39.1
				c1.9,0.7,1.7,1.5,5,4.2c0.9,0.8,1.4,1.1,1.3,1.6c-0.2,0.7-1.7,1.3-3,1.2c-0.8-0.1-1.3-0.5-1.4-0.6c-3-2.2-6.4-1.3-6.9-3.2
				c-0.3-1.2,0.5-2.8,1.7-3.4C344.5,38.2,345.7,38.7,346.7,39.1z"/>
		</g>
	</g>
	<g id="Кадр4">
		<path id="Шея_00000092454768218451458560000015721132117400512915_" class="st1" d="M285.5,21.6c-0.5-2.5,2.4-3.6,3.7-3.5
			c1.4,0.2,2.4,0.8,2.4,2c0,1.2-1,3.1-2.3,3.2C287.9,23.2,285.8,23.1,285.5,21.6z"/>
		<path id="Голова_00000169515809604179062100000004744524401389834643_" class="st0" d="M286.1,16c0-2.4,2.2-4,2.4-4.2
			c0.3-0.2,2.7-1.8,5.3-0.8c2.3,0.8,3,3.5,3.1,4.1c0.7,3.1-0.7,7-3.2,7.5c-1.5,0.3-3-0.8-4.3-1.8C288,19.8,286.1,18.4,286.1,16z"/>
		<g id="Левая_рука_00000148658194707944719370000012864964120137204375_">
			<path id="Левое_предплечье_00000176043200520020027770000003584270438660962958_" class="st0" d="M270.8,24.3
				c-0.1,0.7-0.3,0.7-0.8,2.2c-0.3,1-0.2,1.1-0.7,2.3c-0.5,1.8-0.8,2.7-1.2,2.8c-0.6,0-1.2-1.2-1.4-1.7c-0.2-0.6-0.7-1.8-0.6-3.8
				c0.1-2.1,0.1-3.4,1.1-4.2c0.7-0.6,2-1,2.8-0.6C271.2,21.9,270.8,23.9,270.8,24.3z"/>
			<path id="Левое_плечо_00000035526620787627674730000008916294290432160420_" class="st0" d="M281.5,19.4
				c0.7,1.3-1.5,3.7-1.7,3.9c-0.7,0.8-1.3,1.1-1.7,1.2c-0.2,0.1-0.9,0.4-2.3,0.6c-1.2,0.1-2.1,0-3.8-0.2c-2.6-0.3-2.9-0.5-3.1-0.8
				c-0.5-0.6-0.4-1.6,0-2.3c0.5-0.7,1.2-0.8,2.5-1.1c2.1-0.7,2.2-1.1,3.6-1.7C277.3,18,280.8,18,281.5,19.4z"/>
			<path id="Левый_кулак_00000039098711695638354510000013044923822100437682_" class="st0" d="M270.8,29.3
				c0.5,0.2,0.5,0.8,0.6,1.5c0,0.6,0.1,0.9,0,1.2c-0.4,1-1.8,1.2-2,1.3c-0.4,0-1.1,0.2-1.7-0.2c-0.3-0.2-0.4-0.5-0.6-0.9
				c-0.2-0.9,0.2-1.8,0.8-2.4c0.3-0.3,0.9-0.4,1.4-0.5C270,29.1,270.5,29,270.8,29.3z"/>
		</g>
		<g id="Левая_нога_00000132800770345307451270000011145243339158974369_">
			<path id="Левое_бедро_00000142151832996078075580000010883561731265339572_" class="st2" d="M284.2,40.5
				c0.7,2.5,1.7,4.3,2.6,5.5c1.8,2.6,3.7,3.7,4.6,6.7c0.3,1,0.6,2,0,2.9c-1,1.6-4,1.7-6.2,1c-1.9-0.5-3.5-2.6-6.7-6.6
				c-1.2-1.6-2.5-3.2-3.6-5.7c-1-2.4-0.8-3.2-0.8-3.5c0.6-2.4,3.7-4.4,6.6-3.7C283.1,37.9,284.1,40.2,284.2,40.5z"/>
			<path id="Левая_голень_00000169520190389104302600000013463170528544537761_" class="st3" d="M287.1,50.4
				c2.1,0.5,1.8,2.3,6,6.6c0.6,0.6,1.1,1.1,0.9,1.4c-0.3,0.8-3.6-0.3-8.5-0.2c-2.8,0-4.9,0.3-5.5,0.5c-5.3,0.9-7.8,1.4-10.2,2.5
				c-0.4,0.2-1.1,0.5-1.6,0.3c-0.8-0.4-0.8-2.3,0-3.6c0.6-1,1.8-1.4,2.4-1.5c3.7-1.1,6.9-3.1,10.5-4.3
				C286.1,50.4,286.4,50.2,287.1,50.4z"/>
			<path id="Левая_стопа_00000178205744580457360180000010919122311031241347_" class="st3" d="M270.2,59.5
				c0.3,1.7-0.8,2.1-1,3.8c-0.1,0.5-0.2,2.5,0.6,4.2c0.1,0.3,0.4,0.9,0.1,1.5c-0.1,0.3-0.4,0.5-0.8,0.6c-0.8,0.1-1.5-1.4-1.9-2
				c-0.7-1.4-0.5-1.8-1.1-3.7c-0.5-1.7-0.9-3.6-1.6-5.2c-0.1-0.2-0.2-0.6,0-0.8c0.3-0.4,1.1-0.3,2.5-0.2c1.7,0.2,2.1,0.4,2.1,0.5
				C269.7,58.1,270.1,58.5,270.2,59.5z"/>
		</g>
		<path id="Туловище_00000084498580152596211760000016253422006964557244_" class="st4" d="M273.6,36.2
			c0.1-1.2,0-0.5,0.3-7.9c0.1-2.4,0.2-4.8,1.8-6.9c0.1-0.2,0.2-0.3,0.6-0.6c2-1.8,5.3-1.5,6.8-1.3c2.4,0.2,6.9,1.4,7.7,4.1
			c0.4,1.2-0.1,2-1.1,4.1s-1.6,3.5-2.1,4.7c-1.1,2.8-1.3,2.9-1.9,3.8c-0.7,1.1-1.3,1.9-2.4,3.2c-1.2,1.4-1.9,2.3-2.9,3.2
			c-1.9,1.6-3.7,3.4-5.3,2.9c-1.4-0.4-1.8-2.7-2-3.8C272.8,39.6,273.3,38.4,273.6,36.2z"/>
		<g id="Правая_нога_00000062188116741485315230000001617430428383981731_">
			<path id="Правое_бедро_00000048466023941338173610000013953562721421787820_" class="st5" d="M276.6,60.1
				c2.3-1.1,0.9-4.4,2.2-9.3c1.6-5.9,5.6-8.4,4-11c-0.5-0.8-1.3-1.2-1.5-1.4c-2.5-1.3-6.1-0.3-8.2,1.7c-1.2,1.2-1.5,3.2-2,7.1
				c-0.3,2.8-0.7,4.8-0.1,7.5c0.4,2,0.9,4.8,3,5.5C273.9,60.2,275.3,60.8,276.6,60.1z"/>
			<path id="Правая_голень_00000149362711225640519340000013071794033463116972_" class="st3" d="M270.4,55.3
				c1.4-1.5,3.8-0.1,7.9-1.4c0.4-0.1,0.8-0.3,1-0.1c0.7,0.6-0.8,2.9-2.1,6.2c-1.2,3.1-1.7,5.7-1.9,6.1c-1.6,8.3-1.6,9.3-1.6,9.3
				c-0.1,0.5-0.1,1.5-0.7,1.7c-0.7,0.3-1.9-0.6-2.5-1.5c-1-1.4-0.7-3-0.6-4.6c0.4-3.8-0.5-2.5-0.2-12.6
				C269.8,56.3,269.8,55.8,270.4,55.3z"/>
			<path id="Правая_стопа_00000038406243586541224230000011280612738207719856_" class="st3" d="M274,72.2
				c1.4,1.1,0.9,2.1,2.1,3.4c1.3,1.6,3.2,2.2,3.2,2.2c0.9,0.3,1.6,0.3,1.7,0.8c0.1,0.4-0.4,0.8-0.8,1c-0.6,0.3-1.4,0.1-2.3-0.2
				c-1.5-0.6-2.7-1.1-3.4-1.5c-1.7-0.9-3.3-2.1-5-2.9c-0.2-0.1-0.6-0.3-0.6-0.6c-0.1-0.5,0.5-1,1.7-1.8c1.3-1,1.7-1,1.9-1
				C272.5,71.6,273.1,71.6,274,72.2z"/>
		</g>
		<g id="Правая_рука_00000060725708633687871810000009896847260096753087_">
			<path id="Правое_плечо_00000000940971187800510500000014442634969731906236_" class="st0" d="M284.5,24.2
				c0.7-1.2,2.5-2.3,4.2-2.1c1.2,0.1,2.4,0.9,2.9,1.9c0.3,0.6,0.3,1,0.2,1.6c0,0.8,0,3.3,1.2,5.2c1,1.6,2.1,1.8,2.2,2.9
				c0.1,1-0.9,2.2-2,2.4c-0.3,0.1-1.5,0.1-4.4-3.3C285.7,29.1,283.3,26.4,284.5,24.2z"/>
			<path id="Правый_кулак_00000078006850527745206910000011145182621130542222_" class="st0" d="M299.2,31.4
				c0-0.1,0.8-1.3,2.3-1.3c1.2,0.1,2.1,0.9,2.4,1.6c0.5,1,0.2,2.6-1.2,3c-1,0.3-2.2,0-3-0.7C298.8,33.3,298.7,32.2,299.2,31.4z"/>
			<path id="Правое_предплечье_00000108998790510209305040000007465330600972798637_" class="st0" d="M293.3,30.8
				c2-0.5,2.2,0.2,6.5,0.4c1.2,0.1,1.8,0,2.1,0.4c0.3,0.6-0.5,2-1.7,2.5c-0.7,0.4-1.2,0.3-1.4,0.3c-3.7,0-5.9,2.5-7.5,1.4
				c-0.9-0.7-1.2-2.4-0.8-3.5C291,31.3,292.2,31,293.3,30.8z"/>
		</g>
		<g id="Пояс_00000125573543668256495400000012066851397863396008_">
			<g>
				<path d="M273.7,40.3c3,0.2,6.1,0.4,9.1,0.6c0.8,0.1,1.6-0.5,1.7-1.2s-0.5-1.5-1.3-1.6c-3-0.2-6.1-0.4-9.1-0.6
					c-0.8-0.1-1.6,0.5-1.7,1.2C272.3,39.4,272.9,40.3,273.7,40.3L273.7,40.3z"/>
			</g>
		</g>
	</g>
	<g id="Кадр3">
		<path id="Шея_00000006693039478261532200000013310817889789741726_" class="st1" d="M202.8,21.6c-0.5-2.5,2.4-3.6,3.8-3.4
			c1.4,0.2,2.4,0.8,2.3,2c-0.1,1.2-1,3-2.4,3.1C205.2,23.3,203.1,23.2,202.8,21.6z"/>
		<path id="Голова_00000090293349421590639990000013622819751066819743_" class="st0" d="M203.5,16.1c0-2.4,2.3-4,2.5-4.2
			c0.3-0.2,2.8-1.8,5.3-0.7c2.3,0.9,2.9,3.5,3,4.2c0.7,3.1-0.8,7-3.4,7.4c-1.6,0.3-3-0.9-4.3-1.9C205.4,19.9,203.5,18.4,203.5,16.1z
			"/>
		<g id="Левая_рука_00000029011161380055184320000000545939855907520416_">
			<path id="Левое_предплечье_00000150786880568375263090000018423007098925068215_" class="st0" d="M188,24
				c-0.1,0.7-0.3,0.7-0.8,2.2c-0.3,1-0.3,1.1-0.7,2.3c-0.6,1.8-0.9,2.7-1.3,2.7c-0.6,0-1.1-1.2-1.4-1.7c-0.2-0.6-0.7-1.8-0.6-3.8
				c0.1-2.1,0.2-3.4,1.2-4.1c0.7-0.6,2.1-0.9,2.8-0.5C188.5,21.7,188.1,23.7,188,24z"/>
			<path id="Левое_плечо_00000093862979360811920690000012989515920199752878_" class="st0" d="M198.9,19.4
				c0.7,1.3-1.5,3.6-1.8,3.9c-0.7,0.7-1.4,1-1.7,1.2c-0.2,0.1-0.9,0.3-2.3,0.5c-1.2,0.1-2.1,0-3.8-0.3c-2.6-0.4-2.8-0.6-3.1-0.9
				c-0.5-0.6-0.4-1.6,0-2.3c0.5-0.7,1.2-0.8,2.5-1.1c2.1-0.6,2.2-1.1,3.7-1.6C194.7,17.9,198.2,18,198.9,19.4z"/>
			<path id="Левый_кулак_00000058559036053202196410000010915067302824722613_" class="st0" d="M188,29.1
				c0.5,0.3,0.5,0.8,0.6,1.5c0,0.6,0.1,0.9-0.1,1.2c-0.4,1-1.8,1.2-2,1.2c-0.4,0-1.1,0.2-1.7-0.2c-0.3-0.2-0.4-0.5-0.6-0.9
				c-0.2-0.9,0.3-1.8,0.8-2.4c0.3-0.3,0.9-0.3,1.4-0.5C187.2,28.9,187.7,28.8,188,29.1z"/>
		</g>
		<g id="Левая_нога_00000119098377018533762630000016944785940376008891_">
			<path id="Левое_бедро_00000160894260533338377550000003060180916304311738_" class="st2" d="M201.2,40.5
				c0.7,2.5,1.6,4.4,2.5,5.5c1.8,2.6,3.6,3.8,4.5,6.7c0.3,1,0.5,2,0,2.9c-1,1.5-4.1,1.6-6.2,0.9c-1.8-0.5-3.5-2.6-6.6-6.8
				c-1.2-1.6-2.5-3.3-3.5-5.8c-1-2.4-0.8-3.2-0.7-3.5c0.6-2.4,3.7-4.4,6.7-3.6C200.1,37.9,201.1,40.2,201.2,40.5z"/>
			<path id="Левая_голень_00000085211923076486188210000014985665283569070210_" class="st3" d="M203.9,50.5
				c2,0.6,1.8,2.3,5.9,6.7c0.6,0.7,1.1,1.1,0.9,1.4c-0.3,0.8-3.6-0.3-8.5-0.4c-2.8,0-4.9,0.2-5.5,0.3c-5.3,0.9-7.9,1.2-10.2,2.3
				c-0.4,0.2-1.1,0.5-1.6,0.2c-0.8-0.4-0.8-2.3,0.1-3.6c0.7-1,1.8-1.3,2.4-1.4c3.7-1.1,7-3,10.6-4.1
				C202.9,50.4,203.2,50.3,203.9,50.5z"/>
			<path id="Левая_стопа_00000089557873287443737790000009574628382794652089_" class="st3" d="M186.8,59.2
				c0.3,1.7-0.8,2-1,3.8c-0.1,0.5-0.3,2.5,0.5,4.2c0.1,0.3,0.4,0.9,0.1,1.5c-0.1,0.3-0.4,0.5-0.8,0.5c-0.8,0.1-1.5-1.4-1.8-2
				c-0.7-1.4-0.4-1.8-1-3.7c-0.5-1.8-0.8-3.6-1.5-5.3c-0.1-0.2-0.2-0.6,0-0.8c0.3-0.4,1.2-0.3,2.5-0.1c1.7,0.2,2.1,0.5,2.1,0.6
				C186.4,57.9,186.7,58.3,186.8,59.2z"/>
		</g>
		<path id="Туловище_00000183946539715288006480000012138681816560927646_" class="st4" d="M190.7,36c0.2-1.2,0-0.5,0.4-7.9
			c0.1-2.4,0.3-4.8,2-6.9c0.1-0.2,0.3-0.3,0.6-0.6c2.1-1.8,5.3-1.4,6.8-1.2c2.4,0.2,6.9,1.5,7.6,4.3c0.3,1.2-0.2,2-1.2,4.1
			c-1,2-1.7,3.5-2.2,4.7c-1.2,2.7-1.3,2.9-1.9,3.8c-0.8,1.1-1.4,1.9-2.5,3.1c-1.2,1.4-1.9,2.3-3,3.1c-1.9,1.6-3.8,3.3-5.3,2.8
			c-1.3-0.5-1.7-2.7-1.9-3.8C189.8,39.4,190.3,38.2,190.7,36z"/>
		<g id="Правая_нога_00000124153389625501188140000001191163772992347791_">
			<path id="Правое_бедро_00000121255859544210584930000001319488059277465506_" class="st5" d="M193.2,60
				c2.3-1.1,1-4.4,2.4-9.2c1.7-5.9,5.7-8.3,4.2-11c-0.5-0.8-1.2-1.2-1.5-1.4c-2.4-1.4-6.1-0.4-8.2,1.6c-1.3,1.1-1.6,3.2-2.1,7
				c-0.4,2.8-0.8,4.8-0.2,7.5c0.3,2,0.8,4.8,2.8,5.6C190.5,60.1,191.9,60.6,193.2,60z"/>
			<path id="Правая_голень_00000152232579720939173910000010281377532525623978_" class="st3" d="M187.1,55.1
				c1.4-1.5,3.8,0,7.9-1.2c0.4-0.1,0.8-0.3,1,0c0.7,0.6-0.8,2.9-2.2,6.2c-1.2,3.1-1.8,5.7-2,6.1c-1.8,8.3-1.8,9.2-1.8,9.2
				c-0.1,0.5-0.1,1.5-0.7,1.7c-0.7,0.3-1.9-0.6-2.5-1.6c-1-1.5-0.7-3-0.6-4.6c0.4-3.8-0.5-2.5,0.1-12.6
				C186.4,56.1,186.5,55.5,187.1,55.1z"/>
			<path id="Правая_стопа_00000075140722896946813200000011160424704535700365_" class="st3" d="M190.4,72
				c1.4,1.1,0.8,2.1,2,3.5c1.3,1.6,3.1,2.2,3.1,2.2c0.9,0.3,1.6,0.3,1.7,0.8c0,0.4-0.4,0.8-0.8,1c-0.6,0.3-1.4,0.1-2.3-0.2
				c-1.5-0.6-2.7-1.1-3.4-1.6c-1.7-0.9-3.2-2.1-4.9-3c-0.2-0.1-0.6-0.3-0.6-0.7c-0.1-0.5,0.5-1,1.8-1.7c1.3-0.9,1.8-1,2-0.9
				C188.9,71.4,189.5,71.4,190.4,72z"/>
		</g>
		<g id="Правая_рука_00000137843268888014047880000002212266329099313305_">
			<path id="Правое_плечо_00000168079536574761418430000007540569705171474613_" class="st0" d="M201.8,24.2
				c0.7-1.2,2.5-2.3,4.2-2c1.2,0.2,2.4,1,2.8,2c0.3,0.6,0.3,1,0.2,1.6c0,0.8-0.1,3.3,1.1,5.2c1,1.6,2.1,1.8,2.1,2.9
				c0.1,1-0.9,2.2-2,2.3c-0.3,0.1-1.5,0.1-4.4-3.4C202.9,29.1,200.5,26.4,201.8,24.2z"/>
			<path id="Правый_кулак_00000152979059336132868660000000731294045392936373_" class="st0" d="M216.4,31.7
				c0-0.1,0.8-1.3,2.3-1.3c1.2,0.1,2.1,1,2.4,1.7c0.5,1,0.1,2.6-1.2,3c-1.1,0.3-2.2,0-3-0.7C215.9,33.6,215.8,32.5,216.4,31.7z"/>
			<path id="Правое_предплечье_00000021840760733385870400000010061614488393104063_" class="st0" d="M210.5,31
				c2-0.5,2.2,0.2,6.5,0.5c1.2,0.1,1.8,0.1,2.1,0.5c0.3,0.6-0.6,2-1.8,2.5c-0.7,0.4-1.3,0.3-1.5,0.3c-3.7-0.1-6,2.3-7.6,1.3
				c-0.9-0.7-1.2-2.4-0.7-3.5C208.1,31.5,209.4,31.2,210.5,31z"/>
		</g>
		<g id="Пояс_00000132055067728304290040000005945496860626086063_">
			<g>
				<path d="M190.7,40.1c3,0.2,6.1,0.5,9.1,0.7c0.8,0.1,1.6-0.4,1.7-1.2c0.1-0.7-0.5-1.5-1.3-1.6c-3-0.2-6.1-0.5-9.1-0.7
					c-0.8-0.1-1.6,0.4-1.7,1.2C189.3,39.2,189.9,40.1,190.7,40.1L190.7,40.1z"/>
			</g>
		</g>
	</g>
	<g id="Кадр2">
		<path id="Шея_00000123422236399926402830000008770607473974829213_" class="st1" d="M120.6,20c-0.7-2.5,2.1-3.9,3.5-3.8
			c1.4,0.1,2.5,0.6,2.5,1.8c0,1.2-0.7,3.2-2.1,3.4C123.2,21.4,121.1,21.5,120.6,20z"/>
		<path id="Голова_00000158717273130695084560000009689811424469041304_" class="st0" d="M120.8,14.3
			c-0.2-2.5,1.9-4.3,2.1-4.5c0.3-0.3,2.6-2.1,5.3-1.2c2.4,0.7,3.3,3.3,3.4,4c1,3.1-0.1,7.2-2.7,7.9c-1.5,0.4-3.1-0.6-4.4-1.5
			C123,18,121,16.7,120.8,14.3z"/>
		<g id="Левая_рука_00000077285932033775366820000006070765314406054820_">
			<path id="Левое_предплечье_00000052064130308373401290000006430310569110669218_" class="st0" d="M106.1,23.9
				c0,0.8-0.2,0.8-0.6,2.4c-0.2,1-0.2,1.1-0.5,2.5c-0.4,1.9-0.6,2.8-1,2.9c-0.6,0.1-1.3-1.1-1.5-1.6c-0.3-0.6-0.8-1.8-0.9-3.9
				c-0.1-2.2-0.1-3.4,0.8-4.4c0.6-0.6,2-1.2,2.7-0.8C106.3,21.4,106.2,23.5,106.1,23.9z"/>
			<path id="Левое_плечо_00000150783923580658381780000016934879191832659132_" class="st0" d="M116.5,18.1
				c0.8,1.3-1.2,3.9-1.4,4.1c-0.6,0.8-1.3,1.2-1.6,1.4c-0.2,0.1-0.8,0.4-2.2,0.8c-1.2,0.2-2.1,0.2-3.8,0.1c-2.6-0.1-2.9-0.3-3.2-0.6
				c-0.6-0.6-0.5-1.6-0.2-2.3c0.4-0.7,1.1-0.9,2.4-1.3c2-0.9,2.1-1.3,3.5-2C112.2,17,115.7,16.7,116.5,18.1z"/>
			<path id="Левый_кулак_00000085949903699862010840000002457204863920331686_" class="st0" d="M106.6,29.1
				c0.5,0.2,0.6,0.8,0.7,1.5c0.1,0.6,0.2,0.9,0,1.2c-0.3,1-1.7,1.4-1.9,1.4c-0.4,0.1-1.1,0.3-1.7-0.1c-0.3-0.2-0.5-0.5-0.7-0.9
				c-0.3-0.9,0.1-1.9,0.6-2.5c0.3-0.4,0.8-0.4,1.3-0.6C105.7,28.9,106.2,28.8,106.6,29.1z"/>
		</g>
		<g id="Левая_нога_00000022542911154290851010000009956057102873007803_">
			<path id="Левое_бедро_00000016781997841513616150000012944402474133056931_" class="st2" d="M120.7,39.4
				c0.9,2.5,2,4.3,3,5.4c2,2.5,3.9,3.5,5.1,6.4c0.4,1,0.7,2,0.3,3c-0.9,1.7-3.9,2-6.1,1.5c-1.9-0.4-3.7-2.4-7.2-6.2
				c-1.3-1.5-2.8-3.1-4.1-5.5c-1.2-2.3-1.1-3.2-1-3.5c0.4-2.5,3.3-4.8,6.3-4.3C119.5,36.8,120.7,39.2,120.7,39.4z"/>
			<path id="Левая_голень_00000005965830149957058250000012940873715924402337_" class="st3" d="M124.4,49.3
				c2.1,0.4,2,2.2,6.5,6.3c0.7,0.6,1.2,1,1,1.4c-0.2,0.8-3.6,0-8.5,0.5c-2.8,0.3-4.8,0.7-5.4,0.9c-5.2,1.4-7.7,2-10,3.4
				c-0.4,0.3-1,0.6-1.6,0.4c-0.8-0.3-1-2.2-0.2-3.6c0.6-1.1,1.7-1.5,2.3-1.7c3.6-1.5,6.7-3.7,10.1-5.3
				C123.4,49.4,123.7,49.2,124.4,49.3z"/>
			<path id="Левая_стопа_00000103239243842414884950000001196194032070194865_" class="st3" d="M108.2,60
				c0.4,1.7-0.6,2.2-0.7,4c0,0.5,0,2.6,0.9,4.2c0.1,0.3,0.5,0.9,0.2,1.5c-0.1,0.3-0.3,0.6-0.7,0.6c-0.8,0.2-1.6-1.3-2-1.9
				c-0.8-1.4-0.6-1.8-1.3-3.7c-0.6-1.7-1.1-3.6-2-5.2c-0.1-0.2-0.3-0.6-0.1-0.9c0.2-0.5,1.1-0.4,2.5-0.4c1.7,0.1,2.1,0.3,2.2,0.4
				C107.7,58.6,108.1,59,108.2,60z"/>
		</g>
		<path id="Туловище_00000018216743466636748330000007298818045034114981_" class="st4" d="M109.9,35.9
			c0.1-1.2-0.1-0.5-0.3-8.1c-0.1-2.5-0.2-5,1.3-7.2c0.1-0.2,0.2-0.4,0.5-0.6c1.9-2,5.2-2,6.7-1.9c2.4,0,7,0.9,7.9,3.6
			c0.4,1.2,0,2.1-0.8,4.3c-0.8,2.2-1.4,3.8-1.7,5c-0.9,2.9-1,3.1-1.6,4c-0.7,1.2-1.2,2-2.2,3.4c-1.1,1.6-1.7,2.5-2.7,3.5
			c-1.8,1.8-3.5,3.8-5.1,3.4c-1.4-0.3-2-2.6-2.2-3.7C109.3,39.4,109.7,38.2,109.9,35.9z"/>
		<g id="Правая_нога_00000134953275619984351860000001395402590392314267_">
			<path id="Правое_бедро_00000031905570886084885590000016404484956454388640_" class="st5" d="M114.6,60.1
				c2.2-1.3,0.6-4.6,1.5-9.7c1.2-6.1,4.9-9,3.1-11.6c-0.6-0.8-1.4-1.1-1.6-1.3c-2.6-1.2-6.1,0.2-8,2.4c-1.2,1.3-1.3,3.4-1.4,7.4
				c-0.1,2.9-0.3,4.9,0.5,7.6c0.5,2,1.3,4.8,3.4,5.4C112,60.4,113.4,60.9,114.6,60.1z"/>
			<path id="Правая_голень_00000128449528202696613340000010151042782098921351_" class="st3" d="M108.1,55.7
				c1.3-1.7,3.8-0.4,7.8-2c0.4-0.2,0.8-0.3,1-0.1c0.8,0.5-0.5,3-1.6,6.5c-0.9,3.3-1.3,6-1.4,6.4c-1,8.6-0.9,9.6-0.9,9.6
				c0,0.5,0,1.5-0.6,1.8c-0.7,0.3-2-0.5-2.6-1.4c-1.1-1.4-1-3-1-4.6c0.1-3.9-0.7-2.5-1.1-12.8C107.6,56.8,107.6,56.2,108.1,55.7z"/>
			<path id="Правая_стопа_00000113327051714999732660000007565792324332049070_" class="st3" d="M112.9,72.7
				c1.5,1,1,2,2.4,3.3c1.4,1.5,3.3,2,3.3,2c0.9,0.2,1.6,0.2,1.8,0.7c0.1,0.4-0.3,0.8-0.8,1.1c-0.6,0.4-1.4,0.2-2.3,0
				c-1.6-0.5-2.8-0.9-3.5-1.3c-1.8-0.7-3.4-1.9-5.2-2.6c-0.2-0.1-0.6-0.2-0.7-0.6c-0.2-0.5,0.4-1,1.6-1.9c1.3-1.1,1.7-1.2,1.9-1.2
				C111.5,72.1,112.1,72,112.9,72.7z"/>
		</g>
		<g id="Правая_рука_00000045586688087913492210000013374913407835200435_">
			<path id="Правое_плечо_00000175324125822552283580000010296018580725543080_" class="st0" d="M119.8,22.7
				c0.6-1.3,2.3-2.6,4-2.5c1.2,0.1,2.5,0.8,3,1.8c0.4,0.6,0.4,1,0.3,1.6c0.1,0.8,0.2,3.3,1.6,5.2c1.1,1.6,2.2,1.6,2.4,2.8
				c0.2,1.1-0.7,2.4-1.8,2.6c-0.3,0.1-1.5,0.2-4.7-3.1C121.4,27.6,118.8,25.1,119.8,22.7z"/>
			<path id="Правый_кулак_00000057139834687282508230000017076445348125625243_" class="st0" d="M135,28.9
				c0-0.1,0.7-1.4,2.2-1.5c1.2,0,2.2,0.8,2.5,1.4c0.6,1,0.4,2.6-0.9,3.2c-1,0.4-2.2,0.2-3.1-0.4C134.7,30.9,134.6,29.8,135,28.9z"/>
			<path id="Правое_предплечье_00000005247862681805877330000017275014668881042825_" class="st0" d="M129.1,28.8
				c1.9-0.7,2.2,0,6.5-0.1c1.2,0,1.8-0.1,2.1,0.3c0.4,0.6-0.4,2.1-1.5,2.7c-0.6,0.4-1.2,0.4-1.4,0.4c-3.7,0.3-5.7,3-7.4,2.1
				c-1-0.6-1.4-2.4-1-3.5C126.8,29.5,128,29.1,129.1,28.8z"/>
		</g>
		<g id="Пояс_00000036246321581466722300000008779739582172892821_">
			<g>
				<path d="M110.3,40c3-0.1,6.1-0.1,9.1-0.2c0.8,0,1.5-0.6,1.6-1.4c0-0.8-0.6-1.5-1.4-1.5c-3,0.1-6.1,0.1-9.1,0.2
					c-0.8,0-1.5,0.6-1.6,1.4C108.8,39.3,109.5,40.1,110.3,40L110.3,40z"/>
			</g>
		</g>
	</g>
	<g id="Кадр1">
		<path id="Шея" class="st1" d="M39.6,17c-0.8-2.6,1.9-4.2,3.3-4.2s2.5,0.5,2.6,1.8s-0.6,3.4-1.9,3.7
			C42.2,18.4,40.1,18.6,39.6,17z"/>
		<path id="Голова" class="st0" d="M39.5,11c-0.3-2.6,1.7-4.6,1.9-4.8c0.3-0.3,2.5-2.3,5.2-1.5C49,5.3,50,8,50.2,8.7
			c1.1,3.2,0.2,7.6-2.3,8.4c-1.5,0.5-3.1-0.5-4.5-1.4C41.9,14.8,39.8,13.5,39.5,11z"/>
		<g id="Левая_рука">
			<path id="Левое_предплечье" class="st0" d="M25.3,21.8c0,0.8-0.2,0.8-0.5,2.5c-0.2,1.1-0.1,1.2-0.4,2.6
				c-0.3,2-0.5,3-0.9,3.1c-0.6,0.1-1.3-1.1-1.6-1.6c-0.3-0.6-0.9-1.8-1.1-4c-0.2-2.3-0.3-3.6,0.6-4.6c0.6-0.7,1.9-1.3,2.7-1
				C25.4,19.2,25.3,21.4,25.3,21.8z"/>
			<path id="Левое_плечо" class="st0" d="M35.4,15.2c0.9,1.3-1,4.1-1.2,4.4c-0.6,0.9-1.2,1.3-1.5,1.5
				c-0.2,0.1-0.8,0.5-2.2,0.9c-1.2,0.3-2.1,0.3-3.8,0.3c-2.6,0-2.9-0.2-3.2-0.5c-0.6-0.6-0.6-1.7-0.3-2.4c0.4-0.8,1.1-1,2.3-1.5
				c2-1,2-1.5,3.4-2.3C31,14.3,34.5,13.8,35.4,15.2z"/>
			<path id="Левый_кулак" class="st0" d="M26,27.2c0.5,0.2,0.6,0.8,0.8,1.5c0.1,0.6,0.2,0.9,0.1,1.3
				c-0.3,1.1-1.6,1.5-1.8,1.6c-0.4,0.1-1.1,0.4-1.7,0c-0.3-0.2-0.5-0.5-0.7-0.9c-0.3-0.9,0-2,0.5-2.7c0.3-0.4,0.8-0.5,1.3-0.7
				C25.1,27.1,25.6,26.9,26,27.2z"/>
		</g>
		<g id="Левая_нога">
			<path id="Левое_бедро_00000101818425025741348090000000655381625070069908_" class="st2" d="M40.6,37.4
				c1,2.6,2.2,4.4,3.2,5.5c2.1,2.5,4.1,3.5,5.4,6.5c0.4,1,0.8,2.1,0.4,3.1c-0.8,1.8-3.8,2.3-6,1.9c-1.9-0.3-3.8-2.3-7.5-6.2
				c-1.4-1.5-2.9-3.1-4.3-5.6c-1.3-2.4-1.2-3.3-1.2-3.6c0.3-2.6,3.1-5.2,6.1-4.8C39.2,34.7,40.5,37.1,40.6,37.4z"/>
			<path id="Левая_голень_00000057837103855705188620000005391208503494079167_" class="st3" d="M44.7,47.6
				c2.1,0.3,2.1,2.2,6.8,6.3c0.7,0.6,1.2,1,1.1,1.4c-0.2,0.9-3.6,0.2-8.5,0.9c-2.8,0.4-4.8,1-5.4,1.2c-5.1,1.7-7.6,2.5-9.8,4
				c-0.4,0.3-1,0.7-1.6,0.5c-0.8-0.3-1.1-2.3-0.4-3.8c0.5-1.2,1.6-1.7,2.2-1.9c3.5-1.7,6.5-4.2,9.9-6C43.7,47.7,44,47.5,44.7,47.6z"
				/>
			<path id="Левая_стопа_00000083065487386674616970000009331870928108683685_" class="st3" d="M29,59.5
				c0.5,1.8-0.5,2.3-0.5,4.2c0,0.5,0.1,2.7,1.1,4.4c0.1,0.3,0.5,0.9,0.3,1.6c-0.1,0.3-0.3,0.6-0.7,0.7c-0.8,0.2-1.7-1.3-2.1-1.9
				c-0.9-1.4-0.7-1.9-1.5-3.8c-0.7-1.8-1.3-3.7-2.2-5.4c-0.1-0.2-0.3-0.6-0.1-0.9c0.2-0.5,1.1-0.5,2.5-0.5c1.7,0,2.1,0.2,2.2,0.3
				C28.4,58.1,28.8,58.5,29,59.5z"/>
		</g>
		<path id="Туловище" class="st4" d="M29.6,34.2c0-1.3-0.1-0.5-0.7-8.5c-0.2-2.6-0.4-5.2,1-7.6c0.1-0.2,0.2-0.4,0.5-0.7
			c1.8-2.2,5.1-2.3,6.6-2.3c2.4-0.1,7,0.6,8.1,3.4c0.5,1.2,0.1,2.2-0.6,4.5c-0.7,2.3-1.2,4-1.5,5.3c-0.8,3.1-0.9,3.3-1.4,4.3
			c-0.6,1.3-1.1,2.2-2,3.7c-1,1.7-1.6,2.7-2.5,3.8c-1.7,2-3.3,4.1-4.9,3.8c-1.4-0.3-2.1-2.6-2.4-3.8C29.2,37.9,29.5,36.6,29.6,34.2z
			"/>
		<g id="Правая_нога">
			<path id="Правое_бедро" class="st5" d="M35.4,59.3c2.1-1.5,0.4-4.8,1.1-10.2c0.9-6.5,4.5-9.7,2.6-12.3
				c-0.6-0.8-1.4-1.1-1.7-1.3c-2.6-1.1-6.1,0.5-7.9,2.9c-1.1,1.4-1.1,3.6-1.1,7.8c0,3-0.1,5.2,0.8,8c0.6,2.1,1.5,5,3.6,5.5
				C32.8,59.8,34.2,60.2,35.4,59.3z"/>
			<path id="Правая_голень" class="st3" d="M28.7,55c1.2-1.8,3.8-0.6,7.7-2.5c0.4-0.2,0.8-0.4,1-0.2
				c0.8,0.5-0.4,3.2-1.3,6.9c-0.8,3.5-1,6.3-1.1,6.8c-0.6,9.1-0.5,10.1-0.5,10.1c0,0.5,0.1,1.6-0.5,1.9c-0.7,0.4-2-0.4-2.7-1.3
				c-1.2-1.4-1.1-3.1-1.2-4.8c-0.1-4.1-0.8-2.6-1.7-13.4C28.2,56.2,28.2,55.6,28.7,55z"/>
			<path id="Правая_стопа" class="st3" d="M34.3,72.6c1.5,1,1.1,2.1,2.5,3.4c1.5,1.5,3.4,1.9,3.4,1.9
				c0.9,0.2,1.6,0.1,1.8,0.6c0.1,0.4-0.3,0.9-0.7,1.2c-0.6,0.4-1.4,0.3-2.3,0.1c-1.6-0.4-2.8-0.8-3.6-1.2c-1.8-0.7-3.5-1.8-5.3-2.5
				c-0.2-0.1-0.6-0.2-0.7-0.6c-0.2-0.5,0.4-1.1,1.5-2.1c1.2-1.2,1.6-1.3,1.8-1.3C32.8,72.1,33.4,72,34.3,72.6z"/>
		</g>
		<g id="Правая_рука">
			<path id="Правое_плечо_00000095324174185796742330000011583053270163583902_" class="st0" d="M38.9,19.9
				c0.5-1.4,2.2-2.8,3.9-2.8c1.2,0,2.5,0.7,3.1,1.7c0.4,0.6,0.4,1,0.4,1.7c0.1,0.8,0.4,3.5,1.8,5.4c1.2,1.6,2.3,1.6,2.5,2.8
				c0.2,1.1-0.6,2.5-1.7,2.8c-0.3,0.1-1.5,0.3-4.8-3C40.7,25,38,22.4,38.9,19.9z"/>
			<path id="Правый_кулак_00000131349086595737274600000018236998777019692475_" class="st0" d="M54.4,25.7
				c0-0.1,0.6-1.5,2.1-1.7c1.2-0.1,2.2,0.7,2.6,1.4c0.6,1,0.5,2.7-0.8,3.4c-1,0.5-2.2,0.3-3.1-0.3C54.2,27.8,54,26.6,54.4,25.7z"/>
			<path id="Правое_предплечье_00000142155377419884467450000009348645900478857114_" class="st0" d="M48.5,25.8
				c1.9-0.8,2.2-0.1,6.5-0.4c1.2-0.1,1.8-0.2,2.1,0.2c0.4,0.6-0.3,2.2-1.4,2.9C55.1,29,54.5,29,54.3,29c-3.7,0.5-5.6,3.4-7.3,2.5
				c-1-0.6-1.5-2.4-1.2-3.6C46.2,26.7,47.4,26.2,48.5,25.8z"/>
		</g>
		<g id="Пояс_00000006672300101815831140000015636376335001793923_">
			<g>
				<path d="M30.2,38.5c3-0.2,6.1-0.4,9.1-0.6c0.8,0,1.5-0.7,1.5-1.5s-0.7-1.5-1.5-1.5c-3,0.2-6.1,0.4-9.1,0.6
					c-0.8,0-1.5,0.7-1.5,1.5C28.7,37.8,29.4,38.6,30.2,38.5L30.2,38.5z"/>
			</g>
		</g>
	</g>
</g>
<g id="Рамки" class="st6">
	<rect class="st7" width="80" height="80"/>
	<rect x="80" class="st7" width="80" height="80"/>
	<rect x="160" class="st7" width="80" height="80"/>
	<rect x="240" class="st7" width="80" height="80"/>
	<rect x="320" class="st7" width="80" height="80"/>
	<rect x="400" class="st7" width="80" height="80"/>
	<rect x="480" class="st7" width="80" height="80"/>
	<rect x="560" class="st7" width="80" height="80"/>
</g>
</svg>
